<svg width="25" height="25" viewBox="0 0 25 25" fill="none" xmlns="http://www.w3.org/2000/svg">
<path d="M0 3C0 1.34315 1.34315 0 3 0H22C23.6569 0 25 1.34315 25 3V22C25 23.6569 23.6569 25 22 25H3C1.34315 25 0 23.6569 0 22V3Z" fill="#FF725C"/>
<path d="M8.80977 7.26191C8.80977 8.31389 7.95698 9.16668 6.90501 9.16668C5.85304 9.16668 5.00024 8.31389 5.00024 7.26191C5.00024 6.20994 5.85304 5.83334 6.90501 5.83334C7.95698 5.83334 8.80977 6.20994 8.80977 7.26191Z" fill="#A81700"/>
<path d="M20.4763 7.26191C20.4763 8.31389 19.6235 9.16668 18.5715 9.16668C17.5195 9.16668 16.6667 8.31389 16.6667 7.26191C16.6667 6.20994 17.5195 5.83334 18.5715 5.83334C19.6235 5.83334 20.4763 6.20994 20.4763 7.26191Z" fill="#A81700"/>
<path fill-rule="evenodd" clip-rule="evenodd" d="M7.45553 20.1978C7.4554 20.1979 7.45565 20.1976 7.45553 20.1978L7.45768 20.1951L7.47572 20.1727C7.49308 20.1514 7.52097 20.1176 7.55889 20.0733C7.6348 19.9846 7.75035 19.8543 7.90144 19.6973C8.20498 19.3818 8.64479 18.9661 9.18802 18.5646C10.2956 17.746 11.7091 17.0757 13.2228 17.2439C14.8228 17.4217 15.746 18.1169 16.2754 18.7279C16.547 19.0412 16.723 19.3425 16.8292 19.5599C16.882 19.6682 16.9167 19.7538 16.9367 19.8073C16.9467 19.8339 16.9529 19.8524 16.9558 19.8613C16.9566 19.8636 16.9571 19.8653 16.9574 19.8663C16.9574 19.8663 16.9574 19.8663 16.9574 19.8663C17.1125 20.3923 17.663 20.6958 18.1913 20.5449C18.7223 20.3931 19.0298 19.8397 18.8781 19.3086L17.9166 19.5833C18.8781 19.3086 18.8779 19.3081 18.8778 19.3075L18.8774 19.3063L18.8767 19.3037L18.8749 19.2978L18.8703 19.2826C18.8668 19.271 18.8623 19.2567 18.8567 19.2397C18.8456 19.2057 18.8303 19.161 18.8101 19.1071C18.7699 18.9994 18.7102 18.854 18.6263 18.6823C18.4591 18.3398 18.1924 17.8859 17.7868 17.418C16.9621 16.4664 15.5936 15.495 13.4436 15.2561C11.2074 15.0076 9.2875 16.0041 7.99924 16.9562C7.34456 17.4401 6.82083 17.9359 6.4603 18.3105C6.27937 18.4986 6.13776 18.658 6.03951 18.7727C5.99035 18.8302 5.95192 18.8766 5.92472 18.91C5.91112 18.9267 5.90032 18.9401 5.89238 18.9501L5.88262 18.9625L5.87937 18.9666L5.87815 18.9682C5.87792 18.9685 5.8772 18.9694 6.66655 19.5833L5.8772 18.9694C5.53813 19.4053 5.61666 20.0336 6.05261 20.3727C6.4884 20.7116 7.11637 20.6333 7.45553 20.1978Z" fill="#A81700"/>
</svg>
