<svg xmlns="http://www.w3.org/2000/svg" xmlns:xlink="http://www.w3.org/1999/xlink" viewBox="0 0 148.99 155.94"><defs><style>.cls-1{fill:url(#Gradient_bez_nazwy_3);}.cls-2{fill:url(#Gradient_bez_nazwy_3-2);}.cls-3{fill:url(#Gradient_bez_nazwy_3-3);}.cls-4{fill:url(#Gradient_bez_nazwy_3-4);}.cls-5{fill:url(#Gradient_bez_nazwy_3-5);}.cls-6{fill:url(#Gradient_bez_nazwy_3-6);}.cls-7{fill:url(#Gradient_bez_nazwy_3-7);}</style><linearGradient id="Gradient_bez_nazwy_3" x1="22.53" y1="77.97" x2="126.47" y2="77.97" gradientUnits="userSpaceOnUse"><stop offset="0" stop-color="#22f2ad"/><stop offset="1" stop-color="#ab21f4"/></linearGradient><linearGradient id="Gradient_bez_nazwy_3-2" x1="29.58" y1="179.29" x2="140.88" y2="179.29" gradientTransform="translate(-26.03 -93.22) rotate(-5)" xlink:href="#Gradient_bez_nazwy_3"/><linearGradient id="Gradient_bez_nazwy_3-3" x1="30.67" y1="284.94" x2="149.33" y2="284.94" gradientTransform="matrix(0.98, -0.17, 0.17, 0.98, -63.61, -187.01)" xlink:href="#Gradient_bez_nazwy_3"/><linearGradient id="Gradient_bez_nazwy_3-4" x1="26.36" y1="388.58" x2="152.37" y2="388.58" gradientTransform="translate(-112.39 -274.24) rotate(-15)" xlink:href="#Gradient_bez_nazwy_3"/><linearGradient id="Gradient_bez_nazwy_3-5" x1="15.08" y1="488.41" x2="148.45" y2="488.41" gradientTransform="translate(-169.38 -353.02) rotate(-20)" xlink:href="#Gradient_bez_nazwy_3"/><linearGradient id="Gradient_bez_nazwy_3-6" x1="-13.12" y1="587.28" x2="127.6" y2="587.28" gradientTransform="matrix(0.91, -0.42, 0.42, 0.91, -225.57, -430.1)" xlink:href="#Gradient_bez_nazwy_3"/><linearGradient id="Gradient_bez_nazwy_3-7" x1="-50.69" y1="691" x2="98.33" y2="691" gradientTransform="matrix(0.87, -0.5, 0.5, 0.87, -291.64, -508.55)" xlink:href="#Gradient_bez_nazwy_3"/></defs><title>ProtoSchool_Symbol_color</title><g id="Warstwa_2" data-name="Warstwa 2"><path class="cls-1" d="M100.48,123h-52l-26-45,26-45h52l26,45ZM49,122.16h51L125.53,78,100,33.77H49L23.47,78Z"/><path class="cls-2" d="M51,128.4l-.13-.19L19.06,82.82l.1-.21L42.58,32.38,98,27.53l.14.2,31.78,45.39-.09.21-23.42,50.22ZM20,82.74l31.39,44.81,54.5-4.76L129,73.2,97.62,28.38l-54.5,4.77Z"/><path class="cls-3" d="M54.21,133.72l-.15-.18-38-45.27.08-.22L36.37,32.52l.23,0L94.79,22.22l.15.18,38,45.27-.09.22-20.21,55.52-.23,0ZM17,88.11l37.53,44.73L112,122.7l20-54.87L94.47,23.1,37,33.24Z"/><path class="cls-4" d="M58.19,138.83l-.17-.17L13.64,94.28l.06-.23L29.94,33.42l.23-.06L90.8,17.11l.17.16,44.39,44.39-.06.23-16.25,60.63-.23.06ZM14.54,94l43.89,43.89,60-16.06,16.06-60L90.56,18,30.61,34.08Z"/><path class="cls-5" d="M62.92,143.64l-.18-.15-50.9-42.72,0-.23L23.41,35.1l.22-.08L86.08,12.3l.17.15,50.91,42.71,0,.23-11.54,65.44-.22.08Zm-50.2-43.19,50.36,42.27,61.78-22.49,11.42-64.75L85.91,13.22,24.13,35.71Z"/><path class="cls-6" d="M68.36,148.06,10.73,107.7l0-.23,6.11-69.86.21-.1L80.63,7.87l57.64,40.36,0,.23-6.11,69.87-.22.09ZM11.58,107.31l56.87,39.82,62.92-29.34,6-69.16L80.55,8.8,17.63,38.15Z"/><path class="cls-7" d="M74.5,152.48,10,115.22V40.71l.41-.23,64.12-37L139,40.71v74.51l-.4.24ZM11.59,114.29,74.5,150.61l62.9-36.32V41.65L74.5,5.33,11.59,41.65Z"/></g></svg>