<svg xmlns="http://www.w3.org/2000/svg" viewBox="0 0 836.993 999.643"><title>libp2p_export-options</title><g opacity="0.9"><g opacity="0.9"><polygon points="418.475 515.492 418.477 515.491 418.483 515.494 419.657 514.818 557.921 435.264 418.464 354.107 418.463 354.108 418.463 354.108 418.459 354.107 418.456 354.107 278.983 434.313 418.456 515.481 418.475 515.492" fill="#bec831"/><polygon points="418.456 676.864 418.456 676.861 418.463 676.865 418.463 515.504 418.463 515.503 278.97 434.325 278.97 434.326 278.966 434.323 278.966 595.686 279.031 595.724 418.456 676.864" fill="#a1a938"/><polygon points="557.952 435.284 419.652 514.817 418.475 515.492 418.459 515.503 418.459 676.864 418.487 676.88 418.488 676.879 418.492 676.881 557.958 596.679 557.959 596.68 557.959 596.661 557.959 435.287 557.952 435.291 557.952 435.284" fill="#999b37"/></g><g opacity="0.9"><polygon points="557.98 596.658 557.982 596.656 557.988 596.66 559.162 595.984 697.426 516.429 557.969 435.272 557.968 435.274 557.968 435.274 557.964 435.272 557.961 435.272 418.488 515.479 557.961 596.647 557.98 596.658" fill="#cc2a65"/><polygon points="557.961 758.03 557.961 758.027 557.968 758.031 557.968 596.67 557.968 596.669 418.475 515.491 418.475 515.492 418.471 515.489 418.471 676.852 418.536 676.89 557.961 758.03" fill="#a21d4c"/><polygon points="697.457 516.45 559.157 595.983 557.98 596.658 557.964 596.669 557.964 758.03 557.992 758.046 557.993 758.045 557.997 758.047 697.463 677.845 697.464 677.846 697.464 677.826 697.464 516.452 697.457 516.456 697.457 516.45" fill="#b62454"/></g><g opacity="0.9"><polygon points="697.477 677.848 697.479 677.847 697.484 677.85 698.659 677.174 836.922 597.62 697.465 516.462 697.465 516.464 697.464 516.464 697.461 516.462 697.458 516.462 557.985 596.669 697.458 677.837 697.477 677.848" fill="#cc2a65"/><polygon points="697.458 839.22 697.458 839.217 697.465 839.221 697.465 677.86 697.465 677.859 557.972 596.681 557.972 596.682 557.968 596.679 557.968 758.042 558.033 758.08 697.458 839.22" fill="#a21d4c"/><polygon points="836.954 597.64 698.654 677.173 697.477 677.848 697.461 677.859 697.461 839.22 697.488 839.236 697.49 839.235 697.494 839.237 836.96 759.035 836.961 759.036 836.961 759.016 836.961 597.643 836.954 597.647 836.954 597.64" fill="#b62454"/></g><g opacity="0.9"><polygon points="279.009 595.692 279.011 595.691 279.016 595.694 280.191 595.019 418.455 515.464 278.998 434.307 278.997 434.308 278.996 434.309 278.993 434.307 278.99 434.307 139.517 514.514 278.99 595.681 279.009 595.692" fill="#c8d92b"/><polygon points="278.99 757.064 278.99 757.061 278.997 757.065 278.997 595.704 278.997 595.703 139.504 514.525 139.504 514.526 139.5 514.524 139.5 675.886 139.565 675.925 278.99 757.064" fill="#c2d02f"/><polygon points="418.486 515.485 280.186 595.017 279.009 595.692 278.993 595.703 278.993 757.064 279.021 757.08 279.022 757.08 279.026 757.082 418.492 676.879 418.493 676.88 418.493 676.861 418.493 515.487 418.486 515.491 418.486 515.485" fill="#b9be33"/></g><g opacity="0.9"><polygon points="418.514 676.858 418.516 676.857 418.521 676.86 419.696 676.184 557.96 596.63 418.503 515.473 418.502 515.474 418.501 515.475 418.498 515.473 418.495 515.473 279.022 595.679 418.495 676.847 418.514 676.858" fill="#cc2a65"/><polygon points="418.495 838.23 418.495 838.227 418.502 838.231 418.502 676.87 418.502 676.869 279.009 595.691 279.009 595.692 279.005 595.69 279.005 757.052 279.07 757.091 418.495 838.23" fill="#a21d4c"/><polygon points="557.991 596.651 419.691 676.183 418.514 676.858 418.498 676.869 418.498 838.23 418.526 838.246 418.527 838.246 418.531 838.248 557.997 758.045 557.998 758.046 557.998 758.027 557.998 596.653 557.991 596.657 557.991 596.651" fill="#b62454"/></g><g opacity="0.9"><polygon points="558.011 758.048 558.013 758.047 558.018 758.05 559.192 757.375 697.456 677.82 557.999 596.663 557.998 596.664 557.998 596.665 557.994 596.663 557.992 596.663 418.518 676.869 557.992 758.037 558.011 758.048" fill="#33b4d7"/><polygon points="557.992 919.42 557.992 919.417 557.998 919.421 557.998 758.06 557.998 758.059 418.506 676.881 418.506 676.882 418.501 676.88 418.501 838.242 418.566 838.281 557.992 919.42" fill="#209ac5"/><polygon points="697.487 677.841 559.188 757.373 558.011 758.048 557.994 758.059 557.994 919.42 558.022 919.436 558.023 919.436 558.028 919.438 697.493 839.235 697.495 839.236 697.495 839.217 697.495 677.843 697.487 677.847 697.487 677.841" fill="#0f8cae"/></g><g opacity="0.9"><polygon points="139.541 675.898 139.543 675.896 139.549 675.9 140.723 675.224 278.987 595.669 139.53 514.512 139.529 514.514 139.528 514.514 139.525 514.512 139.522 514.512 0.049 594.719 139.522 675.887 139.541 675.898" fill="#94d6e3"/><polygon points="139.522 837.27 139.522 837.267 139.529 837.271 139.529 675.91 139.529 675.909 0.036 594.731 0.036 594.732 0.032 594.729 0.032 756.092 0.097 756.13 139.522 837.27" fill="#73ccdd"/><polygon points="279.018 595.69 140.718 675.223 139.541 675.898 139.525 675.909 139.525 837.27 139.553 837.286 139.554 837.285 139.558 837.287 279.024 757.085 279.025 757.086 279.025 757.066 279.025 595.692 279.018 595.696 279.018 595.69" fill="#3bafbb"/></g><g opacity="0.9"><polygon points="279.046 757.064 279.048 757.062 279.054 757.066 280.228 756.39 418.492 676.835 279.035 595.678 279.034 595.68 279.033 595.68 279.03 595.678 279.027 595.678 139.554 675.885 279.027 757.053 279.046 757.064" fill="#94d6e3"/><polygon points="279.027 918.436 279.027 918.433 279.034 918.437 279.034 757.076 279.034 757.074 139.541 675.897 139.541 675.898 139.537 675.895 139.537 837.258 139.602 837.296 279.027 918.436" fill="#73ccdd"/><polygon points="418.523 676.856 280.223 756.389 279.046 757.064 279.03 757.074 279.03 918.436 279.058 918.452 279.059 918.451 279.063 918.453 418.529 838.251 418.53 838.252 418.53 838.232 418.53 676.858 418.523 676.862 418.523 676.856" fill="#3bafbb"/></g><g opacity="0.9"><polygon points="418.543 838.254 418.545 838.252 418.55 838.256 419.724 837.58 557.988 758.025 418.531 676.868 418.531 676.87 418.53 676.87 418.527 676.868 418.524 676.868 279.051 757.075 418.524 838.243 418.543 838.254" fill="#33b4d7"/><polygon points="418.524 999.626 418.524 999.623 418.531 999.627 418.531 838.266 418.531 838.265 279.038 757.087 279.038 757.088 279.034 757.085 279.034 918.448 279.099 918.486 418.524 999.626" fill="#209ac5"/><polygon points="558.019 758.046 419.72 837.579 418.543 838.254 418.527 838.265 418.527 999.626 418.554 999.642 418.556 999.641 418.56 999.643 558.026 919.441 558.027 919.442 558.027 919.422 558.027 758.048 558.019 758.052 558.019 758.046" fill="#0f8cae"/></g></g><g opacity="0.9"><polygon points="418.541 338.439 418.543 338.437 418.548 338.441 419.723 337.766 558.019 258.267 418.595 177.053 418.594 177.055 418.594 177.055 418.59 177.053 418.588 177.053 279.082 257.203 418.522 338.428 418.541 338.439" fill="#bec831"/><polygon points="418.456 499.811 418.456 499.808 418.463 499.812 418.529 338.451 418.529 338.45 279.069 257.215 279.069 257.216 279.065 257.213 278.999 418.576 279.064 418.614 418.456 499.811" fill="#a1a938"/><polygon points="558.05 258.288 419.718 337.764 418.541 338.439 418.525 338.45 418.459 499.811 418.487 499.827 418.488 499.826 418.492 499.828 557.991 419.682 557.992 419.684 557.992 419.664 558.058 258.29 558.05 258.294 558.05 258.288" fill="#999b37"/></g><g opacity="0.9"><polygon points="558.013 419.661 558.015 419.66 558.02 419.663 559.195 418.988 697.491 339.49 558.067 258.276 558.066 258.277 558.066 258.278 558.062 258.276 558.06 258.276 418.554 338.426 557.994 419.651 558.013 419.661" fill="#ee539a"/><polygon points="557.928 581.033 557.928 581.031 557.935 581.035 558.001 419.674 558.001 419.672 418.541 338.437 418.541 338.439 418.537 338.436 418.471 499.799 418.536 499.837 557.928 581.033" fill="#d01b68"/><polygon points="697.522 339.511 559.19 418.987 558.013 419.661 557.997 419.672 557.931 581.033 557.959 581.05 557.96 581.049 557.964 581.051 697.463 500.905 697.464 500.906 697.464 500.887 697.53 339.513 697.522 339.517 697.522 339.511" fill="#ec0f68"/></g><g opacity="0.9"><polygon points="697.477 500.908 697.478 500.907 697.484 500.91 698.658 500.235 836.955 420.736 697.531 339.523 697.53 339.524 697.529 339.525 697.526 339.523 697.523 339.523 558.017 419.673 697.458 500.897 697.477 500.908" fill="#a159a2"/><polygon points="697.392 662.28 697.392 662.277 697.399 662.281 697.464 500.92 697.464 500.919 558.005 419.684 558.005 419.685 558 419.683 557.935 581.045 558 581.084 697.392 662.28" fill="#772a86"/><polygon points="836.986 420.757 698.654 500.234 697.477 500.908 697.46 500.919 697.395 662.28 697.422 662.296 697.424 662.296 697.428 662.298 836.926 582.152 836.927 582.153 836.927 582.133 836.993 420.759 836.986 420.763 836.986 420.757" fill="#8e3b95"/></g><g opacity="0.9"><polygon points="279.042 418.582 279.044 418.581 279.049 418.584 280.224 417.909 418.52 338.411 279.096 257.197 279.096 257.198 279.095 257.199 279.091 257.197 279.089 257.197 139.583 337.347 279.023 418.571 279.042 418.582" fill="#c8d92b"/><polygon points="278.958 579.954 278.958 579.951 278.964 579.955 279.03 418.594 279.03 418.593 139.57 337.358 139.57 337.36 139.566 337.357 139.5 498.719 139.565 498.758 278.958 579.954" fill="#c2d02f"/><polygon points="418.551 338.431 280.219 417.908 279.042 418.582 279.026 418.593 278.96 579.954 278.988 579.97 278.989 579.97 278.993 579.972 418.492 499.826 418.493 499.827 418.493 499.808 418.559 338.434 418.551 338.438 418.551 338.431" fill="#b9be33"/></g><g opacity="0.9"><polygon points="418.514 499.805 418.516 499.803 418.521 499.807 419.696 499.132 557.992 419.633 418.568 338.419 418.567 338.421 418.567 338.421 418.563 338.419 418.561 338.419 279.055 418.57 418.495 499.794 418.514 499.805" fill="#f7af19"/><polygon points="418.43 661.177 418.43 661.174 418.436 661.178 418.502 499.817 418.502 499.816 279.042 418.581 279.042 418.582 279.038 418.58 278.972 579.942 279.037 579.981 418.43 661.177" fill="#f2901f"/><polygon points="558.023 419.654 419.691 499.13 418.514 499.805 418.498 499.816 418.432 661.177 418.46 661.193 418.461 661.192 418.465 661.194 557.964 581.048 557.965 581.05 557.965 581.03 558.031 419.656 558.023 419.66 558.023 419.654" fill="#f9a120"/></g><g opacity="0.9"><polygon points="557.978 581.052 557.98 581.05 557.985 581.054 559.159 580.378 697.456 500.88 558.032 419.666 558.031 419.668 558.03 419.668 558.027 419.666 558.024 419.666 418.518 499.816 557.959 581.041 557.978 581.052" fill="#a159a2"/><polygon points="557.893 742.424 557.893 742.421 557.9 742.425 557.965 581.064 557.965 581.062 418.506 499.828 418.506 499.829 418.501 499.826 418.436 661.189 418.501 661.227 557.893 742.424" fill="#772a86"/><polygon points="697.487 500.901 559.155 580.377 557.978 581.052 557.961 581.062 557.896 742.424 557.924 742.44 557.925 742.439 557.929 742.441 697.427 662.295 697.429 662.297 697.429 662.277 697.494 500.903 697.487 500.907 697.487 500.901" fill="#8e3b95"/></g><g opacity="0.9"><polygon points="139.542 498.731 139.544 498.73 139.549 498.733 140.724 498.058 279.02 418.559 139.596 337.346 139.595 337.347 139.594 337.348 139.591 337.346 139.588 337.346 0.082 417.496 139.523 498.72 139.542 498.731" fill="#f6dd03"/><polygon points="139.457 660.103 139.457 660.1 139.464 660.104 139.53 498.743 139.53 498.742 0.07 417.507 0.07 417.508 0.066 417.506 0 578.868 0.065 578.907 139.457 660.103" fill="#f9bb1d"/><polygon points="279.051 418.58 140.719 498.057 139.542 498.731 139.526 498.742 139.46 660.103 139.488 660.119 139.489 660.119 139.493 660.121 278.991 579.975 278.993 579.976 278.993 579.956 279.058 418.582 279.051 418.586 279.051 418.58" fill="#e9ae20"/></g><g opacity="0.9"><polygon points="279.014 579.954 279.016 579.952 279.021 579.956 280.196 579.281 418.492 499.782 279.068 418.568 279.067 418.57 279.066 418.57 279.063 418.568 279.06 418.568 139.554 498.718 278.995 579.943 279.014 579.954" fill="#f7af19"/><polygon points="278.929 741.326 278.929 741.323 278.936 741.327 279.002 579.966 279.002 579.965 139.542 498.73 139.542 498.731 139.538 498.728 139.472 660.091 139.537 660.129 278.929 741.326" fill="#f2901f"/><polygon points="418.523 499.803 280.191 579.279 279.014 579.954 278.998 579.965 278.932 741.326 278.96 741.342 278.961 741.341 278.965 741.343 418.463 661.197 418.465 661.199 418.465 661.179 418.53 499.805 418.523 499.809 418.523 499.803" fill="#f9a120"/></g><g opacity="0.9"><polygon points="418.477 661.2 418.479 661.199 418.485 661.203 419.659 660.527 557.955 581.029 418.531 499.815 418.531 499.816 418.53 499.817 418.527 499.815 418.524 499.815 279.018 579.965 418.458 661.19 418.477 661.2" fill="#31838b"/><polygon points="418.393 822.572 418.393 822.57 418.399 822.574 418.465 661.213 418.465 661.211 279.005 579.977 279.005 579.978 279.001 579.975 278.936 741.338 279 741.376 418.393 822.572" fill="#22626c"/><polygon points="557.986 581.05 419.654 660.526 418.477 661.2 418.461 661.211 418.395 822.572 418.423 822.589 418.425 822.588 418.429 822.59 557.927 742.444 557.928 742.445 557.928 742.426 557.994 581.052 557.986 581.056 557.986 581.05" fill="#1b4b56"/></g><g opacity="0.9"><polygon points="418.475 161.385 418.477 161.384 418.483 161.388 419.657 160.712 557.921 81.157 418.464 0 418.463 0.001 418.463 0.002 418.459 0 418.456 0 278.983 80.207 418.456 161.375 418.475 161.385" fill="#bec831"/><polygon points="418.456 322.757 418.456 322.755 418.463 322.759 418.463 161.398 418.463 161.396 278.97 80.218 278.97 80.22 278.966 80.217 278.966 241.579 279.031 241.618 418.456 322.757" fill="#a1a938"/><polygon points="557.952 81.178 419.652 160.71 418.475 161.385 418.459 161.396 418.459 322.757 418.487 322.774 418.488 322.773 418.492 322.775 557.958 242.572 557.959 242.574 557.959 242.554 557.959 81.18 557.952 81.184 557.952 81.178" fill="#999b37"/></g><g opacity="0.9"><polygon points="557.98 242.551 557.982 242.55 557.988 242.553 559.162 241.878 697.426 162.323 557.969 81.166 557.968 81.167 557.968 81.168 557.964 81.166 557.961 81.166 418.488 161.373 557.961 242.541 557.98 242.551" fill="#ee539a"/><polygon points="557.961 403.923 557.961 403.921 557.968 403.925 557.968 242.564 557.968 242.562 418.475 161.384 418.475 161.385 418.471 161.383 418.471 322.745 418.536 322.784 557.961 403.923" fill="#d01b68"/><polygon points="697.457 162.344 559.157 241.876 557.98 242.551 557.964 242.562 557.964 403.923 557.992 403.94 557.993 403.939 557.997 403.941 697.463 323.738 697.464 323.74 697.464 323.72 697.464 162.346 697.457 162.35 697.457 162.344" fill="#ec0f68"/></g><g opacity="0.9"><polygon points="697.477 323.741 697.479 323.74 697.484 323.743 698.659 323.068 836.922 243.513 697.465 162.356 697.465 162.357 697.464 162.358 697.461 162.356 697.458 162.356 557.985 242.563 697.458 323.731 697.477 323.741" fill="#a159a2"/><polygon points="697.458 485.113 697.458 485.111 697.465 485.115 697.465 323.754 697.465 323.752 557.972 242.574 557.972 242.575 557.968 242.573 557.968 403.935 558.033 403.974 697.458 485.113" fill="#772a86"/><polygon points="836.954 243.534 698.654 323.066 697.477 323.741 697.461 323.752 697.461 485.113 697.488 485.13 697.49 485.129 697.494 485.131 836.96 404.928 836.961 404.93 836.961 404.91 836.961 243.536 836.954 243.54 836.954 243.534" fill="#8e3b95"/></g><g opacity="0.9"><polygon points="279.009 241.586 279.011 241.584 279.016 241.588 280.191 240.912 418.455 161.357 278.998 80.2 278.997 80.202 278.996 80.202 278.993 80.2 278.99 80.2 139.517 160.407 278.99 241.575 279.009 241.586" fill="#c8d92b"/><polygon points="278.99 402.958 278.99 402.955 278.997 402.959 278.997 241.598 278.997 241.597 139.504 160.419 139.504 160.42 139.5 160.417 139.5 321.78 139.565 321.818 278.99 402.958" fill="#c2d02f"/><polygon points="418.486 161.378 280.186 240.911 279.009 241.586 278.993 241.597 278.993 402.958 279.021 402.974 279.022 402.973 279.026 402.975 418.492 322.773 418.493 322.774 418.493 322.754 418.493 161.38 418.486 161.384 418.486 161.378" fill="#b9be33"/></g><g opacity="0.9"><polygon points="418.514 322.752 418.516 322.75 418.521 322.754 419.696 322.078 557.96 242.523 418.503 161.366 418.502 161.368 418.501 161.368 418.498 161.366 418.495 161.366 279.022 241.573 418.495 322.741 418.514 322.752" fill="#c8d92b"/><polygon points="418.495 484.124 418.495 484.121 418.502 484.125 418.502 322.764 418.502 322.762 279.009 241.584 279.009 241.586 279.005 241.583 279.005 402.946 279.07 402.984 418.495 484.124" fill="#c2d02f"/><polygon points="557.991 242.544 419.691 322.077 418.514 322.752 418.498 322.762 418.498 484.124 418.526 484.14 418.527 484.139 418.531 484.141 557.997 403.938 557.998 403.94 557.998 403.92 557.998 242.546 557.991 242.55 557.991 242.544" fill="#b9be33"/></g><g opacity="0.9"><polygon points="558.011 403.942 558.013 403.94 558.018 403.944 559.189 403.262 697.066 323.038 557.217 242.558 557.216 242.559 557.216 242.56 557.212 242.558 557.21 242.558 418.127 323.44 557.992 403.931 558.011 403.942" fill="#833593"/><polygon points="558.774 565.312 558.774 565.309 558.78 565.313 557.998 403.954 557.998 403.952 418.114 323.451 418.114 323.453 418.11 323.45 418.892 484.81 418.957 484.849 558.774 565.312" fill="#652977"/><polygon points="697.097 323.059 559.184 403.261 558.011 403.942 557.994 403.952 558.776 565.312 558.804 565.328 558.805 565.327 558.809 565.329 697.885 484.452 697.886 484.453 697.886 484.433 697.104 323.061 697.097 323.065 697.097 323.059" fill="#4d1f5b"/></g><g opacity="0.9"><polygon points="139.541 321.791 139.543 321.79 139.549 321.793 140.723 321.118 278.987 241.563 139.53 160.406 139.529 160.407 139.528 160.408 139.525 160.406 139.522 160.406 0.049 240.613 139.522 321.78 139.541 321.791" fill="#f6dd03"/><polygon points="139.522 483.163 139.522 483.16 139.529 483.165 139.529 321.803 139.529 321.802 0.036 240.624 0.036 240.625 0.032 240.623 0.032 401.985 0.097 402.024 139.522 483.163" fill="#f9bb1d"/><polygon points="279.018 241.584 140.718 321.116 139.541 321.791 139.525 321.802 139.525 483.163 139.553 483.179 139.554 483.179 139.558 483.181 279.024 402.978 279.025 402.979 279.025 402.96 279.025 241.586 279.018 241.59 279.018 241.584" fill="#e9ae20"/></g><g opacity="0.9"><polygon points="279.046 402.957 279.048 402.956 279.054 402.959 280.228 402.284 418.492 322.729 279.035 241.572 279.034 241.573 279.033 241.574 279.03 241.572 279.027 241.572 139.554 321.779 279.027 402.946 279.046 402.957" fill="#f7af19"/><polygon points="279.027 564.329 279.027 564.326 279.034 564.33 279.034 402.969 279.034 402.968 139.541 321.79 139.541 321.791 139.537 321.789 139.537 483.151 139.602 483.19 279.027 564.329" fill="#f2901f"/><polygon points="418.523 322.75 280.223 402.282 279.046 402.957 279.03 402.968 279.03 564.329 279.058 564.345 279.059 564.345 279.063 564.347 418.529 484.144 418.53 484.145 418.53 484.126 418.53 322.752 418.523 322.756 418.523 322.75" fill="#f9a120"/></g><g opacity="0.9"><polygon points="418.543 484.147 418.545 484.146 418.55 484.149 419.724 483.474 557.988 403.919 418.531 322.762 418.531 322.763 418.53 322.764 418.527 322.762 418.524 322.762 279.051 402.969 418.524 484.136 418.543 484.147" fill="#f7af19"/><polygon points="418.524 645.519 418.524 645.516 418.531 645.52 418.531 484.159 418.531 484.158 279.038 402.98 279.038 402.981 279.034 402.979 279.034 564.341 279.099 564.38 418.524 645.519" fill="#f2901f"/><polygon points="558.019 403.94 419.72 483.472 418.543 484.147 418.527 484.158 418.527 645.519 418.554 645.535 418.556 645.535 418.56 645.537 558.026 565.334 558.027 565.335 558.027 565.316 558.027 403.942 558.019 403.946 558.019 403.94" fill="#f9a120"/></g></svg>