<svg xmlns="http://www.w3.org/2000/svg" xmlns:xlink="http://www.w3.org/1999/xlink" viewBox="0 0 148.99 155.94"><defs><linearGradient id="a" x1="22.53" y1="77.97" x2="126.47" y2="77.97" gradientUnits="userSpaceOnUse"><stop offset="0" stop-color="#22f2ad"/><stop offset="1" stop-color="#ab21f4"/></linearGradient><linearGradient id="b" x1="29.58" y1="179.29" x2="140.88" y2="179.29" gradientTransform="rotate(-5 -1080.56 251.483)" xlink:href="#a"/><linearGradient id="c" x1="30.67" y1="284.94" x2="149.33" y2="284.94" gradientTransform="matrix(.98 -.17 .17 .98 -63.61 -187.01)" xlink:href="#a"/><linearGradient id="d" x1="26.36" y1="388.58" x2="152.37" y2="388.58" gradientTransform="rotate(-15 -1097.725 289.723)" xlink:href="#a"/><linearGradient id="e" x1="15.08" y1="488.41" x2="148.45" y2="488.41" gradientTransform="rotate(-20 -1085.728 303.79)" xlink:href="#a"/><linearGradient id="f" x1="-13.12" y1="587.28" x2="127.6" y2="587.28" gradientTransform="rotate(-24.5 -1089.124 303.688)" xlink:href="#a"/><linearGradient id="g" x1="-50.69" y1="691" x2="98.33" y2="691" gradientTransform="matrix(.87 -.5 .5 .87 -291.64 -508.55)" xlink:href="#a"/></defs><g data-name="Warstwa 2"><path d="M100.48 123h-52l-26-45 26-45h52l26 45zM49 122.16h51L125.53 78 100 33.77H49L23.47 78z" fill="url(#a)"/><path d="M51 128.4l-.13-.19-31.81-45.39.1-.21 23.42-50.23L98 27.53l.14.2 31.78 45.39-.09.21-23.42 50.22zM20 82.74l31.39 44.81 54.5-4.76L129 73.2 97.62 28.38l-54.5 4.77z" fill="url(#b)"/><path d="M54.21 133.72l-.15-.18-38-45.27.08-.22 20.23-55.53h.23l58.19-10.3.15.18 38 45.27-.09.22-20.21 55.52h-.23zM17 88.11l37.53 44.73L112 122.7l20-54.87L94.47 23.1 37 33.24z" fill="url(#c)"/><path d="M58.19 138.83l-.17-.17-44.38-44.38.06-.23 16.24-60.63.23-.06L90.8 17.11l.17.16 44.39 44.39-.06.23-16.25 60.63-.23.06zM14.54 94l43.89 43.89 60-16.06 16.06-60L90.56 18 30.61 34.08z" fill="url(#d)"/><path d="M62.92 143.64l-.18-.15-50.9-42.72v-.23L23.41 35.1l.22-.08L86.08 12.3l.17.15 50.91 42.71v.23l-11.54 65.44-.22.08zm-50.2-43.19l50.36 42.27 61.78-22.49 11.42-64.75-50.37-42.26-61.78 22.49z" fill="url(#e)"/><path d="M68.36 148.06L10.73 107.7v-.23l6.11-69.86.21-.1L80.63 7.87l57.64 40.36v.23l-6.11 69.87-.22.09zm-56.78-40.75l56.87 39.82 62.92-29.34 6-69.16L80.55 8.8 17.63 38.15z" fill="url(#f)"/><path d="M74.5 152.48L10 115.22V40.71l.41-.23 64.12-37L139 40.71v74.51l-.4.24zm-62.91-38.19l62.91 36.32 62.9-36.32V41.65L74.5 5.33 11.59 41.65z" fill="url(#g)"/></g></svg>
