<svg xmlns="http://www.w3.org/2000/svg" xmlns:xlink="http://www.w3.org/1999/xlink" width="119.5" height="115.3"><style>.st0{opacity:.9;enable-background:new}.st1{clip-path:url(#SVGID_2_)}.st8{clip-path:url(#SVGID_16_)}</style><g class="st0"><defs><path id="SVGID_1_" d="M41 4.3h74v86H41z"/></defs><clipPath id="SVGID_2_"><use xlink:href="#SVGID_1_" overflow="visible"/></clipPath><g class="st1"><defs><path id="SVGID_3_" d="M78 47.2l.3-.2 36.2-20.8L78 5 41.5 26 78 47.2z"/></defs><clipPath id="SVGID_4_"><use xlink:href="#SVGID_3_" overflow="visible"/></clipPath><g clip-path="url(#SVGID_4_)"><defs><path id="SVGID_5_" d="M41 4.3h74v86H41z"/></defs><clipPath id="SVGID_6_"><use xlink:href="#SVGID_5_" overflow="visible"/></clipPath><path d="M36.5 0h83v52.2h-83z" clip-path="url(#SVGID_6_)" fill="#34b4d7"/></g></g><g class="st1"><defs><path id="SVGID_7_" d="M78 89.4V47.2L41.5 26v42.1z"/></defs><clipPath id="SVGID_8_"><use xlink:href="#SVGID_7_" overflow="visible"/></clipPath><g clip-path="url(#SVGID_8_)"><defs><path id="SVGID_9_" d="M41 4.3h74v86H41z"/></defs><clipPath id="SVGID_10_"><use xlink:href="#SVGID_9_" overflow="visible"/></clipPath><path d="M36.5 21H83v73.4H36.5z" clip-path="url(#SVGID_10_)" fill="#219ac5"/></g></g><g class="st1"><defs><path id="SVGID_11_" d="M114.5 26.2L78.3 47l-.3.2v42.2l36.5-21V26.2z"/></defs><clipPath id="SVGID_12_"><use xlink:href="#SVGID_11_" overflow="visible"/></clipPath><g clip-path="url(#SVGID_12_)"><defs><path id="SVGID_13_" d="M41 4.3h74v86H41z"/></defs><clipPath id="SVGID_14_"><use xlink:href="#SVGID_13_" overflow="visible"/></clipPath><path d="M73 21.2h46.5v73.1H73z" clip-path="url(#SVGID_14_)" fill="#138dae"/></g></g></g><g class="st0"><defs><path id="SVGID_15_" d="M5 25.3h74v86H5z"/></defs><clipPath id="SVGID_16_"><use xlink:href="#SVGID_15_" overflow="visible"/></clipPath><g class="st8"><defs><path id="SVGID_17_" d="M41.5 68.1l.3-.1L78 47.2 41.5 26 5 46.9l36.5 21.2z"/></defs><clipPath id="SVGID_18_"><use xlink:href="#SVGID_17_" overflow="visible"/></clipPath><g clip-path="url(#SVGID_18_)"><defs><path id="SVGID_19_" d="M5 25.3h74v86H5z"/></defs><clipPath id="SVGID_20_"><use xlink:href="#SVGID_19_" overflow="visible"/></clipPath><path d="M0 21h83v52.2H0z" clip-path="url(#SVGID_20_)" fill="#34b4d7"/></g></g><g class="st8"><defs><path id="SVGID_21_" d="M41.5 110.3V68.1L5 46.9v42.2z"/></defs><clipPath id="SVGID_22_"><use xlink:href="#SVGID_21_" overflow="visible"/></clipPath><g clip-path="url(#SVGID_22_)"><defs><path id="SVGID_23_" d="M5 25.3h74v86H5z"/></defs><clipPath id="SVGID_24_"><use xlink:href="#SVGID_23_" overflow="visible"/></clipPath><path d="M0 41.9h46.5v73.4H0z" clip-path="url(#SVGID_24_)" fill="#219ac5"/></g></g><g class="st8"><defs><path id="SVGID_25_" d="M78 47.2L41.8 68l-.3.1v42.2L78 89.4V47.2z"/></defs><clipPath id="SVGID_26_"><use xlink:href="#SVGID_25_" overflow="visible"/></clipPath><g clip-path="url(#SVGID_26_)"><defs><path id="SVGID_27_" d="M5 25.3h74v86H5z"/></defs><clipPath id="SVGID_28_"><use xlink:href="#SVGID_27_" overflow="visible"/></clipPath><path d="M36.5 42.2H83v73.1H36.5z" clip-path="url(#SVGID_28_)" fill="#138dae"/></g></g></g></svg>
