<svg width="172" height="33" fill="none" xmlns="http://www.w3.org/2000/svg"><path d="M151.256 16.64c-.884-.583-1.858-.998-2.78-1.516-.598-.337-1.235-.635-1.754-1.063-.884-.725-.702-2.15.221-2.772 1.325-.882 3.52-.39 3.754 1.412 0 .039.039.065.078.065h2.001c.052 0 .091-.04.078-.091-.104-1.244-.585-2.28-1.468-2.941-.845-.635-1.806-.972-2.833-.972-5.287 0-5.768 5.585-2.923 7.347.325.207 3.118 1.606 4.106 2.215.987.61 1.299 1.724.87 2.605-.39.803-1.403 1.36-2.416 1.296-1.105-.065-1.962-.661-2.261-1.594a2.82 2.82 0 01-.078-.635c0-.039-.039-.078-.078-.078h-2.169c-.039 0-.078.04-.078.078 0 1.568.39 2.436 1.455 3.227 1 .751 2.091 1.062 3.222 1.062 2.962 0 4.495-1.672 4.806-3.408.273-1.697-.233-3.226-1.753-4.237zM57.057 9.047h-2.014a.088.088 0 00-.078.052l-1.78 5.857a.081.081 0 01-.155 0l-1.78-5.857c-.013-.04-.04-.052-.078-.052h-3.313c-.039 0-.078.039-.078.078v14.953c0 .039.04.078.078.078h2.17c.039 0 .078-.04.078-.078V12.714c0-.09.13-.104.156-.026l1.792 5.896.13.414c.013.04.04.052.078.052h1.663a.088.088 0 00.078-.052l.13-.414 1.793-5.896c.026-.09.156-.065.156.026v11.364c0 .039.039.078.078.078h2.17c.038 0 .077-.04.077-.078V9.125c0-.04-.039-.078-.078-.078h-1.273zM118.037 9.047a.088.088 0 00-.078.052l-1.779 5.857a.081.081 0 01-.156 0l-1.78-5.857c-.013-.04-.039-.052-.078-.052h-3.3c-.039 0-.078.039-.078.078v14.953c0 .039.039.078.078.078h2.17c.039 0 .078-.04.078-.078V12.714c0-.09.13-.104.156-.026l1.792 5.896.13.414c.013.04.039.052.078.052h1.663a.088.088 0 00.078-.052l.13-.414 1.793-5.896c.026-.09.156-.065.156.026v11.364c0 .039.039.078.078.078h2.169c.039 0 .078-.04.078-.078V9.125c0-.04-.039-.078-.078-.078h-3.3zM90.054 9.047h-10.25c-.039 0-.078.039-.078.078v1.866c0 .038.04.077.078.077h3.963v13.01c0 .039.038.078.078.078h2.169c.039 0 .078-.04.078-.078v-13.01h3.962a.084.084 0 00.078-.077V9.125c0-.04-.026-.078-.078-.078zM102.851 24.155h1.974c.052 0 .091-.051.078-.103l-4.079-15.005c-.013-.04-.039-.052-.078-.052h-2.832a.088.088 0 00-.078.052l-4.08 15.005c-.012.052.027.103.079.103h1.975a.088.088 0 00.078-.051l1.182-4.367c.013-.039.039-.052.078-.052h4.365c.039 0 .065.026.078.052l1.182 4.367c.013.026.052.051.078.051zm-5.184-6.608l1.585-5.844a.081.081 0 01.156 0l1.585 5.844c.013.052-.026.104-.078.104h-3.17c-.052 0-.09-.052-.078-.104zM136.524 24.155h1.974c.052 0 .091-.051.078-.103l-4.079-15.005c-.013-.04-.039-.052-.078-.052h-2.832a.088.088 0 00-.078.052l-4.079 15.005c-.013.052.026.103.078.103h1.975a.088.088 0 00.078-.051l1.182-4.367c.013-.039.039-.052.078-.052h4.365c.039 0 .065.026.078.052l1.182 4.367a.088.088 0 00.078.051zm-5.184-6.608l1.585-5.844a.081.081 0 01.156 0l1.585 5.844c.013.052-.026.104-.078.104h-3.17c-.052 0-.091-.052-.078-.104zM67.216 21.94V17.3c0-.038.039-.077.078-.077h5.781c.039 0 .078-.039.078-.078V15.28c0-.04-.039-.078-.078-.078h-5.781c-.039 0-.078-.04-.078-.078v-3.965c0-.039.039-.078.078-.078h6.574c.038 0 .078-.039.078-.077V9.138c0-.04-.04-.078-.078-.078H64.969c-.04 0-.078.039-.078.078v14.94c0 .039.039.078.078.078h9.171c.04 0 .078-.04.078-.078v-1.97c0-.039-.039-.078-.078-.078h-6.859c-.039-.012-.065-.038-.065-.09zM171.08 24.026l-7.509-7.736a.079.079 0 010-.103l6.756-6.998a.075.075 0 00-.052-.13h-2.767c-.026 0-.039.014-.052.027l-5.729 5.934a.075.075 0 01-.13-.051V9.137c0-.04-.039-.078-.078-.078h-2.17c-.039 0-.078.039-.078.078V24.09c0 .039.039.078.078.078h2.17c.039 0 .078-.04.078-.078v-6.583c0-.064.091-.103.13-.052l6.495 6.687a.099.099 0 00.052.026h2.767c.052-.013.091-.104.039-.143z" fill="#161616"/><path d="M32.958 1l-13.134 9.718 2.443-5.727L32.958 1z" fill="#E17726" stroke="#E17726" stroke-width=".25" stroke-linecap="round" stroke-linejoin="round"/><path d="M2.663 1l13.017 9.809-2.325-5.818L2.663 1zM28.23 23.533l-3.495 5.339 7.483 2.06 2.143-7.282-6.132-.117zM1.273 23.65l2.13 7.282 7.47-2.06-3.481-5.339-6.12.117z" fill="#E27625" stroke="#E27625" stroke-width=".25" stroke-linecap="round" stroke-linejoin="round"/><path d="M10.47 14.515L8.392 17.65l7.405.337-.247-7.97-5.08 4.497zM25.15 14.515l-5.157-4.587-.169 8.06 7.405-.337-2.079-3.136zM10.873 28.872l4.482-2.164-3.858-3.006-.624 5.17zM20.266 26.708l4.469 2.164-.61-5.17-3.86 3.006z" fill="#E27625" stroke="#E27625" stroke-width=".25" stroke-linecap="round" stroke-linejoin="round"/><path d="M24.735 28.872l-4.47-2.164.365 2.903-.04 1.23 4.145-1.969zM10.873 28.872l4.158 1.97-.027-1.231.351-2.903-4.482 2.164z" fill="#D5BFB2" stroke="#D5BFB2" stroke-width=".25" stroke-linecap="round" stroke-linejoin="round"/><path d="M15.108 21.784l-3.715-1.088 2.624-1.205 1.091 2.293zM20.513 21.784l1.091-2.293 2.637 1.205-3.728 1.088z" fill="#233447" stroke="#233447" stroke-width=".25" stroke-linecap="round" stroke-linejoin="round"/><path d="M10.873 28.872l.65-5.339-4.131.117 3.481 5.222zM24.098 23.533l.637 5.339 3.494-5.222-4.13-.117zM27.229 17.65l-7.405.338.688 3.796 1.092-2.293 2.637 1.205 2.988-3.045zM11.393 20.696l2.624-1.205 1.091 2.293.689-3.796-7.405-.337 3 3.045z" fill="#CC6228" stroke="#CC6228" stroke-width=".25" stroke-linecap="round" stroke-linejoin="round"/><path d="M8.392 17.65l3.105 6.052-.104-3.006-3-3.045zM24.241 20.696l-.117 3.006 3.105-6.051-2.988 3.045zM15.797 17.988l-.688 3.796.87 4.483.195-5.908-.377-2.372zM19.824 17.988l-.364 2.358.182 5.921.87-4.483-.688-3.796z" fill="#E27525" stroke="#E27525" stroke-width=".25" stroke-linecap="round" stroke-linejoin="round"/><path d="M20.513 21.784l-.87 4.484.623.44 3.858-3.006.117-3.006-3.728 1.088zM11.393 20.696l.104 3.006 3.858 3.006.624-.44-.87-4.484-3.716-1.088z" fill="#F5841F" stroke="#F5841F" stroke-width=".25" stroke-linecap="round" stroke-linejoin="round"/><path d="M20.59 30.842l.04-1.231-.338-.285h-4.963l-.325.285.027 1.23-4.158-1.969 1.455 1.192 2.95 2.035h5.053l2.962-2.035 1.442-1.192-4.144 1.97z" fill="#C0AC9D" stroke="#C0AC9D" stroke-width=".25" stroke-linecap="round" stroke-linejoin="round"/><path d="M20.266 26.708l-.624-.44H15.98l-.624.44-.35 2.903.324-.285h4.963l.338.285-.364-2.903z" fill="#161616" stroke="#161616" stroke-width=".25" stroke-linecap="round" stroke-linejoin="round"/><path d="M33.517 11.353L34.62 5.99 32.958 1l-12.692 9.394 4.885 4.12 6.898 2.01 1.52-1.776-.663-.48 1.053-.958-.806-.622 1.052-.804-.688-.53zM1 5.989l1.117 5.364-.714.531 1.065.804-.805.622 1.052.959-.663.48 1.52 1.774 6.899-2.008 4.884-4.12L2.663 1 1 5.989z" fill="#763E1A" stroke="#763E1A" stroke-width=".25" stroke-linecap="round" stroke-linejoin="round"/><path d="M32.049 16.523l-6.898-2.008 2.078 3.136-3.105 6.05 4.106-.05h6.131l-2.312-7.128zM10.47 14.515l-6.898 2.008-2.3 7.127h6.12l4.105.052-3.105-6.051 2.078-3.136zM19.824 17.988l.442-7.594 2-5.403h-8.911l2 5.403.442 7.594.169 2.384.013 5.896h3.663l.013-5.896.17-2.384z" fill="#F5841F" stroke="#F5841F" stroke-width=".25" stroke-linecap="round" stroke-linejoin="round"/></svg>
