<svg xmlns="http://www.w3.org/2000/svg" xmlns:xlink="http://www.w3.org/1999/xlink" width="83.1" height="140.6" viewBox="0 0 83.1 140.6"><style>.st0{opacity:.9;enable-background:new}.st1{clip-path:url(#SVGID_2_)}.st2{clip-path:url(#SVGID_4_)}.st3{clip-path:url(#SVGID_6_);fill:#f6dd03}.st4{clip-path:url(#SVGID_8_)}.st5{clip-path:url(#SVGID_10_);enable-background:new}.st6{clip-path:url(#SVGID_12_)}.st7{clip-path:url(#SVGID_14_)}.st8{clip-path:url(#SVGID_16_);fill:#f9bc1e}.st9{clip-path:url(#SVGID_18_)}.st10{clip-path:url(#SVGID_20_);fill:#e9af20}.st11{clip-path:url(#SVGID_22_)}.st12{clip-path:url(#SVGID_24_)}.st13{clip-path:url(#SVGID_26_);fill:#f6dd03}.st14{clip-path:url(#SVGID_28_)}.st15{clip-path:url(#SVGID_30_);fill:#f9bc1e}.st16{clip-path:url(#SVGID_32_)}.st17{clip-path:url(#SVGID_34_);fill:#e9af20}.st18{clip-path:url(#SVGID_36_)}.st19{clip-path:url(#SVGID_38_)}.st20{clip-path:url(#SVGID_40_);fill:#f6dd03}.st21{clip-path:url(#SVGID_42_)}.st22{clip-path:url(#SVGID_44_);enable-background:new}.st23{clip-path:url(#SVGID_46_)}.st24{clip-path:url(#SVGID_48_)}.st25{clip-path:url(#SVGID_50_);fill:#f9bc1e}.st26{clip-path:url(#SVGID_52_)}.st27{clip-path:url(#SVGID_54_);fill:#e9af20}.st28{clip-path:url(#SVGID_56_)}.st29{clip-path:url(#SVGID_58_)}.st30{clip-path:url(#SVGID_60_);fill:#f6dd03}.st31{clip-path:url(#SVGID_62_)}.st32{clip-path:url(#SVGID_64_);fill:#f9bc1e}.st33{clip-path:url(#SVGID_66_)}.st34{clip-path:url(#SVGID_68_);fill:#e9af20}</style><g class="st0"><defs><path id="SVGID_1_" d="M5 50.6h74v85H5z"/></defs><clipPath id="SVGID_2_"><use xlink:href="#SVGID_1_" overflow="visible"/></clipPath><g class="st1"><defs><path id="SVGID_3_" d="M41.5 93.4l.3-.2L78 72.5 41.5 51.2 5 72.2l36.5 21.2z"/></defs><clipPath id="SVGID_4_"><use xlink:href="#SVGID_3_" overflow="visible"/></clipPath><g class="st2"><defs><path id="SVGID_5_" d="M5 50.6h74v85H5z"/></defs><clipPath id="SVGID_6_"><use xlink:href="#SVGID_5_" overflow="visible"/></clipPath><path class="st3" d="M0 46.2h83v52.2H0z"/></g></g><g class="st1"><defs><path id="SVGID_7_" d="M5 72.2h36.5v63.4H5z"/></defs><clipPath id="SVGID_8_"><use xlink:href="#SVGID_7_" overflow="visible"/></clipPath><g class="st4"><defs><path id="SVGID_9_" d="M5 50.6h74v85H5z"/></defs><clipPath id="SVGID_10_"><use xlink:href="#SVGID_9_" overflow="visible"/></clipPath><g class="st5"><defs><path id="SVGID_11_" d="M5 71.6h37v64H5z"/></defs><clipPath id="SVGID_12_"><use xlink:href="#SVGID_11_" overflow="visible"/></clipPath><g class="st6"><defs><path id="SVGID_13_" d="M41.5 135.6V93.4L5 72.2v42.2z"/></defs><clipPath id="SVGID_14_"><use xlink:href="#SVGID_13_" overflow="visible"/></clipPath><g class="st7"><defs><path id="SVGID_15_" d="M5 71.6h37v64H5z"/></defs><clipPath id="SVGID_16_"><use xlink:href="#SVGID_15_" overflow="visible"/></clipPath><path class="st8" d="M0 67.2h46.5v73.4H0z"/></g></g></g></g></g><g class="st1"><defs><path id="SVGID_17_" d="M78 72.5L41.8 93.2l-.3.2v42.2L78 114.7l.1-42.2H78z"/></defs><clipPath id="SVGID_18_"><use xlink:href="#SVGID_17_" overflow="visible"/></clipPath><g class="st9"><defs><path id="SVGID_19_" d="M5 50.6h74v85H5z"/></defs><clipPath id="SVGID_20_"><use xlink:href="#SVGID_19_" overflow="visible"/></clipPath><path class="st10" d="M36.5 67.5H83v73.1H36.5z"/></g></g></g><g class="st0"><defs><path id="SVGID_21_" d="M5 4.6h74v85H5z"/></defs><clipPath id="SVGID_22_"><use xlink:href="#SVGID_21_" overflow="visible"/></clipPath><g class="st11"><defs><path id="SVGID_23_" d="M41.5 47.2l.3-.2L78 26.2 41.5 5 5 26l36.5 21.2z"/></defs><clipPath id="SVGID_24_"><use xlink:href="#SVGID_23_" overflow="visible"/></clipPath><g class="st12"><defs><path id="SVGID_25_" d="M5 4.6h74v85H5z"/></defs><clipPath id="SVGID_26_"><use xlink:href="#SVGID_25_" overflow="visible"/></clipPath><path class="st13" d="M0 0h83v52.2H0z"/></g></g><g class="st11"><defs><path id="SVGID_27_" d="M41.5 89.4V47.2L5 26v42.1z"/></defs><clipPath id="SVGID_28_"><use xlink:href="#SVGID_27_" overflow="visible"/></clipPath><g class="st14"><defs><path id="SVGID_29_" d="M5 4.6h74v85H5z"/></defs><clipPath id="SVGID_30_"><use xlink:href="#SVGID_29_" overflow="visible"/></clipPath><path class="st15" d="M0 21h46.5v73.4H0z"/></g></g><g class="st11"><defs><path id="SVGID_31_" d="M78 26.2L41.8 47l-.3.2v42.2l36.5-21V26.2z"/></defs><clipPath id="SVGID_32_"><use xlink:href="#SVGID_31_" overflow="visible"/></clipPath><g class="st16"><defs><path id="SVGID_33_" d="M5 4.6h74v85H5z"/></defs><clipPath id="SVGID_34_"><use xlink:href="#SVGID_33_" overflow="visible"/></clipPath><path class="st17" d="M36.5 21.2H83v73.1H36.5z"/></g></g></g></svg>