<svg xmlns="http://www.w3.org/2000/svg" xmlns:xlink="http://www.w3.org/1999/xlink" width="119.6" height="186.9"><style>.st0{opacity:.9;enable-background:new}.st1{clip-path:url(#SVGID_2_)}.st8{clip-path:url(#SVGID_16_)}.st15{clip-path:url(#SVGID_30_)}.st22{clip-path:url(#SVGID_44_)}</style><g class="st0"><defs><path id="SVGID_1_" d="M4.5 97.2h74v85h-74z"/></defs><clipPath id="SVGID_2_"><use xlink:href="#SVGID_1_" overflow="visible"/></clipPath><g class="st1"><defs><path id="SVGID_3_" d="M41.5 139.7l.3-.1L78 118.8 41.5 97.5 5 118.5l36.5 21.2z"/></defs><clipPath id="SVGID_4_"><use xlink:href="#SVGID_3_" overflow="visible"/></clipPath><g clip-path="url(#SVGID_4_)"><defs><path id="SVGID_5_" d="M4.5 97.2h74v85h-74z"/></defs><clipPath id="SVGID_6_"><use xlink:href="#SVGID_5_" overflow="visible"/></clipPath><path d="M0 92.5h83v52.2H0z" clip-path="url(#SVGID_6_)" fill="#c8d92b"/></g></g><g class="st1"><defs><path id="SVGID_7_" d="M41.5 181.9v-42.2L5 118.5v42.2z"/></defs><clipPath id="SVGID_8_"><use xlink:href="#SVGID_7_" overflow="visible"/></clipPath><g clip-path="url(#SVGID_8_)"><defs><path id="SVGID_9_" d="M4.5 97.2h74v85h-74z"/></defs><clipPath id="SVGID_10_"><use xlink:href="#SVGID_9_" overflow="visible"/></clipPath><path d="M0 113.5h46.5v73.4H0z" clip-path="url(#SVGID_10_)" fill="#c2d02e"/></g></g><g class="st1"><defs><path id="SVGID_11_" d="M78 118.8l-36.2 20.8-.3.1v42.2l36.5-21v-42.1z"/></defs><clipPath id="SVGID_12_"><use xlink:href="#SVGID_11_" overflow="visible"/></clipPath><g clip-path="url(#SVGID_12_)"><defs><path id="SVGID_13_" d="M4.5 97.2h74v85h-74z"/></defs><clipPath id="SVGID_14_"><use xlink:href="#SVGID_13_" overflow="visible"/></clipPath><path d="M36.5 113.8H83v73.1H36.5z" clip-path="url(#SVGID_14_)" fill="#babf33"/></g></g></g><g class="st0"><defs><path id="SVGID_15_" d="M4.5 51.2h74v85h-74z"/></defs><clipPath id="SVGID_16_"><use xlink:href="#SVGID_15_" overflow="visible"/></clipPath><g class="st8"><defs><path id="SVGID_17_" d="M41.5 93.4l.3-.1L78 72.5 41.5 51.3 5 72.2l36.5 21.2z"/></defs><clipPath id="SVGID_18_"><use xlink:href="#SVGID_17_" overflow="visible"/></clipPath><g clip-path="url(#SVGID_18_)"><defs><path id="SVGID_19_" d="M4.5 51.2h74v85h-74z"/></defs><clipPath id="SVGID_20_"><use xlink:href="#SVGID_19_" overflow="visible"/></clipPath><path d="M0 46.3h83v52.2H0z" clip-path="url(#SVGID_20_)" fill="#c8d92b"/></g></g><g class="st8"><defs><path id="SVGID_21_" d="M41.5 135.6V93.4L5 72.2v42.2z"/></defs><clipPath id="SVGID_22_"><use xlink:href="#SVGID_21_" overflow="visible"/></clipPath><g clip-path="url(#SVGID_22_)"><defs><path id="SVGID_23_" d="M4.5 51.2h74v85h-74z"/></defs><clipPath id="SVGID_24_"><use xlink:href="#SVGID_23_" overflow="visible"/></clipPath><path d="M0 67.2h46.5v73.4H0z" clip-path="url(#SVGID_24_)" fill="#c2d02e"/></g></g><g class="st8"><defs><path id="SVGID_25_" d="M78 72.5L41.8 93.3l-.3.1v42.2L78 114.7l.1-42.2H78z"/></defs><clipPath id="SVGID_26_"><use xlink:href="#SVGID_25_" overflow="visible"/></clipPath><g clip-path="url(#SVGID_26_)"><defs><path id="SVGID_27_" d="M4.5 51.2h74v85h-74z"/></defs><clipPath id="SVGID_28_"><use xlink:href="#SVGID_27_" overflow="visible"/></clipPath><path d="M36.5 67.5H83v73.1H36.5z" clip-path="url(#SVGID_28_)" fill="#babf33"/></g></g></g><g class="st0"><defs><path id="SVGID_29_" d="M4.5 4.2h74v86h-74z"/></defs><clipPath id="SVGID_30_"><use xlink:href="#SVGID_29_" overflow="visible"/></clipPath><g class="st15"><defs><path id="SVGID_31_" d="M41.5 47.2l.3-.2L78 26.2 41.5 5 5 26l36.5 21.2z"/></defs><clipPath id="SVGID_32_"><use xlink:href="#SVGID_31_" overflow="visible"/></clipPath><g clip-path="url(#SVGID_32_)"><defs><path id="SVGID_33_" d="M4.5 4.2h74v86h-74z"/></defs><clipPath id="SVGID_34_"><use xlink:href="#SVGID_33_" overflow="visible"/></clipPath><path d="M0 0h83v52.2H0z" clip-path="url(#SVGID_34_)" fill="#c8d92b"/></g></g><g class="st15"><defs><path id="SVGID_35_" d="M41.5 89.4V47.2L5 26v42.1z"/></defs><clipPath id="SVGID_36_"><use xlink:href="#SVGID_35_" overflow="visible"/></clipPath><g clip-path="url(#SVGID_36_)"><defs><path id="SVGID_37_" d="M4.5 4.2h74v86h-74z"/></defs><clipPath id="SVGID_38_"><use xlink:href="#SVGID_37_" overflow="visible"/></clipPath><path d="M0 21h46.5v73.4H0z" clip-path="url(#SVGID_38_)" fill="#c2d02e"/></g></g><g class="st15"><defs><path id="SVGID_39_" d="M78 26.2L41.8 47l-.3.2v42.2l36.5-21V26.2z"/></defs><clipPath id="SVGID_40_"><use xlink:href="#SVGID_39_" overflow="visible"/></clipPath><g clip-path="url(#SVGID_40_)"><defs><path id="SVGID_41_" d="M4.5 4.2h74v86h-74z"/></defs><clipPath id="SVGID_42_"><use xlink:href="#SVGID_41_" overflow="visible"/></clipPath><path d="M36.5 21.2H83v73.1H36.5z" clip-path="url(#SVGID_42_)" fill="#babf33"/></g></g></g><g class="st0"><defs><path id="SVGID_43_" d="M41.5 25.2h74v86h-74z"/></defs><clipPath id="SVGID_44_"><use xlink:href="#SVGID_43_" overflow="visible"/></clipPath><g class="st22"><defs><path id="SVGID_45_" d="M78 68.4l.3-.2 36.2-20.8L78 26.2l-36.5 21L78 68.4z"/></defs><clipPath id="SVGID_46_"><use xlink:href="#SVGID_45_" overflow="visible"/></clipPath><g clip-path="url(#SVGID_46_)"><defs><path id="SVGID_47_" d="M41.5 25.2h74v86h-74z"/></defs><clipPath id="SVGID_48_"><use xlink:href="#SVGID_47_" overflow="visible"/></clipPath><path d="M36.5 21.2h83v52.2h-83z" clip-path="url(#SVGID_48_)" fill="#c8d92b"/></g></g><g class="st22"><defs><path id="SVGID_49_" d="M78 110.6V68.4L41.5 47.2v42.2z"/></defs><clipPath id="SVGID_50_"><use xlink:href="#SVGID_49_" overflow="visible"/></clipPath><g clip-path="url(#SVGID_50_)"><defs><path id="SVGID_51_" d="M41.5 25.2h74v86h-74z"/></defs><clipPath id="SVGID_52_"><use xlink:href="#SVGID_51_" overflow="visible"/></clipPath><path d="M36.5 42.2H83v73.4H36.5z" clip-path="url(#SVGID_52_)" fill="#c2d02e"/></g></g><g class="st22"><defs><path id="SVGID_53_" d="M114.6 47.4L78.3 68.2l-.3.2v42.2l36.6-21V47.4z"/></defs><clipPath id="SVGID_54_"><use xlink:href="#SVGID_53_" overflow="visible"/></clipPath><g clip-path="url(#SVGID_54_)"><defs><path id="SVGID_55_" d="M41.5 25.2h74v86h-74z"/></defs><clipPath id="SVGID_56_"><use xlink:href="#SVGID_55_" overflow="visible"/></clipPath><path d="M73 42.4h46.5v73.1H73z" clip-path="url(#SVGID_56_)" fill="#babf33"/></g></g></g></svg>
