<svg viewBox="0 0 123 34" fill="none" xmlns="http://www.w3.org/2000/svg" class="css-1g5lknp"><path class="w-animate css-fvm6oo" fill-rule="evenodd" clip-rule="evenodd" d="M123 9.88l-.735-2.334-6.814 2.382-.588-2.479h-2.5v19.1h3.235V12.99L123 9.88zM94.304 10.857c1.377-2.282 3.983-3.982 7.327-3.982 2.508 0 4.474.923 5.95 2.38 1.573 1.7 2.507 4.176 2.458 6.75l-.049 1.942H96.27c0 1.748.69 3.642 1.87 4.808.885.874 2.065 1.36 3.54 1.36 1.524 0 2.803-.438 3.59-1.263.54-.535.885-1.069 1.131-2.088h3.196c-.295 1.893-1.426 3.642-3 4.71-1.377.923-3.098 1.457-4.917 1.457-2.754 0-4.967-1.117-6.442-2.865-1.622-1.846-2.41-4.37-2.41-7.09 0-2.282.394-4.322 1.476-6.119zm7.326-1.263c-3.491 0-5.212 2.817-5.31 5.633h10.326c0-1.408-.394-2.865-1.18-3.885-.836-1.068-2.115-1.748-3.836-1.748zM74.966 10.857c1.377-2.283 3.983-3.982 7.327-3.982 2.508 0 4.475.922 5.95 2.379 1.573 1.7 2.508 4.176 2.458 6.75l-.049 1.942H76.933c0 1.748.688 3.642 1.869 4.808.885.874 2.065 1.36 3.54 1.36 1.524 0 2.803-.438 3.59-1.263.54-.534.885-1.068 1.13-2.088h3.197c-.295 1.894-1.426 3.642-3 4.71-1.377.923-3.098 1.457-4.917 1.457-2.754 0-4.966-1.117-6.442-2.865-1.622-1.845-2.409-4.37-2.409-7.09 0-2.282.393-4.322 1.475-6.119zm7.326-1.263c-3.491 0-5.213 2.817-5.31 5.633h10.326c0-1.408-.394-2.865-1.18-3.885-.837-1.068-2.115-1.748-3.836-1.748zM57.232 10.023c1.125-1.889 3.62-2.955 5.77-2.955 2.348 0 4.207.775 5.38 2.035 1.859 1.84 2.788 4.747 2.788 7.895 0 3.294-.978 6.297-2.934 8.138-1.272 1.162-3.032 1.937-5.282 1.937-2.054 0-4.548-.968-5.575-2.712V34H54.15V7.553h2.494l.587 2.47zm2.104 13.129c.783.678 1.712 1.26 3.13 1.26 4.304 0 5.429-3.827 5.429-7.315 0-3.487-1.125-7.314-5.429-7.314-1.418 0-2.347.581-3.13 1.26-1.614 1.356-2.151 3.68-2.151 6.054s.537 4.65 2.151 6.055zM36.09 10.857c1.377-2.283 3.983-3.982 7.327-3.982 2.508 0 4.475.922 5.95 2.379 1.574 1.7 2.508 4.176 2.459 6.75l-.05 1.942H38.057c0 1.748.689 3.642 1.869 4.808.885.874 2.065 1.36 3.54 1.36 1.525 0 2.803-.438 3.59-1.263.54-.534.885-1.068 1.13-2.088h3.197c-.295 1.894-1.426 3.642-3 4.71-1.376.923-3.097 1.457-4.917 1.457-2.753 0-4.966-1.117-6.441-2.865-1.623-1.845-2.41-4.37-2.41-7.09 0-2.282.394-4.322 1.475-6.119zm7.326-1.263c-3.49 0-5.212 2.817-5.31 5.633h10.326c0-1.408-.393-2.865-1.18-3.885-.836-1.068-2.115-1.748-3.836-1.748z" fill="#131418"/><path class="w-animate css-fvm6oo" d="M6.575 7.449h3.288v19.1H6.575V7.45zM6.576 0h3.674v3.63H6.576V0zM0 0h3.288v26.55H0V0z" fill="#131418"/><path fill-rule="evenodd" clip-rule="evenodd" d="M16.826 7.45h-3.674v3.628h3.674V7.45zm8.507 0H21.66v3.628h3.674V7.45zm0 15.662H21.66v3.63h3.674v-3.63zM29.978 7.45h3.674v3.63h-3.675v-3.63zm-4.061 7.832h3.674v3.629h-3.674v-3.63zm-4.837 0h-3.675v3.629h3.675v-3.63z" fill="url(#-logo-svg-paint0_linear)"/><defs><linearGradient id="-logo-svg-paint0_linear" x1="13.152" y1="17.085" x2="33.652" y2="17.085" gradientUnits="userSpaceOnUse"><stop class="w-color-1" stop-color="#00A55F"/><stop class="w-color-2" offset="1" stop-color="#4CF1AC"/></linearGradient></defs></svg>
