<svg xmlns="http://www.w3.org/2000/svg" width="176.871" height="42" viewBox="0 0 185.76 42.01"><path fill="#1e1e1e" d="M43.5 17.55A10.82 10.82 0 0034.62 22a16 16 0 00-3.57 10.35A9.6 9.6 0 0033.29 39a7.45 7.45 0 005.94 2.52 10.78 10.78 0 008.53-4.2 16.61 16.61 0 003.85-10.82 10.55 10.55 0 00-1.89-6.5c-1.33-1.61-3.43-2.45-6.22-2.45zm.14 17.76a6.06 6.06 0 01-4.27 1.82 3.34 3.34 0 01-2.8-1.26 5.31 5.31 0 01-1-3.49 12.41 12.41 0 012.17-7.48 6.45 6.45 0 015.53-3q3.76 0 3.77 4.61a12.66 12.66 0 01-3.4 8.8zM179 28.6a2.13 2.13 0 00-2.66 1.19c-1.95 4.9-4.33 7.34-7.27 7.34-1.54 0-2.31-1.33-2.31-3.84a54.46 54.46 0 011.24-8.46l.63-2.94h6a2.1 2.1 0 002.09-1.75 2.16 2.16 0 00-2.09-2.59h-5l1-4.89a2.26 2.26 0 00-2.17-2.73 2.18 2.18 0 00-2.17 1.75l-1.29 5.8h-14a10.83 10.83 0 00-8.9 4.52 16 16 0 00-3.57 10.35 13 13 0 00.35 3 5 5 0 01-3.64 1.75 2.18 2.18 0 01-1.88-.77 4.42 4.42 0 01-.56-2.51 39.55 39.55 0 011-7.49l3.63-16.92a2.22 2.22 0 10-4.33-1L131 18.74a9.38 9.38 0 00-4.9-1.33 11.57 11.57 0 00-9.09 4.2 16 16 0 00-3.63 10.63 11.94 11.94 0 00.49 3.63 4.87 4.87 0 01-3.08 1.19 2.43 2.43 0 01-2-.77 3.87 3.87 0 01-.63-2.51 26.68 26.68 0 01.7-5 2.3 2.3 0 00-2-2.73 2.22 2.22 0 00-2.44 1.68 19 19 0 01-3.08 6.65 6 6 0 01-4.62 2.72 2.8 2.8 0 01-2.37-1.4 6.93 6.93 0 01-.92-3.7 11.62 11.62 0 012.16-7.34 6.82 6.82 0 015.74-2.94 8.73 8.73 0 013.36.7 2 2 0 002-.14 2.16 2.16 0 00-.28-3.85 9.33 9.33 0 00-1.74-.56 13.37 13.37 0 00-3.29-.49 11.64 11.64 0 00-9 4.2 13.53 13.53 0 00-2.87 5.17C87.34 33.64 84.55 37 81.19 37a2.89 2.89 0 01-2.52-1.12 4.31 4.31 0 01-.77-2.72 3.42 3.42 0 01.07-.91 11.82 11.82 0 005.11-3.85 9.44 9.44 0 002-5.73c0-3.5-1.88-5.25-5.73-5.25a10 10 0 00-7.13 2.94l2.38-11a2.21 2.21 0 00-2.17-2.66 2.18 2.18 0 00-2.17 1.75l-6.5 30.35a2.2 2.2 0 002.16 2.66A2.18 2.18 0 0068 39.65l2-9.3a18.85 18.85 0 011.4-3.57 10.79 10.79 0 012.94-3.35 6.57 6.57 0 014.4-1.61 1.48 1.48 0 011.68 1.68 5 5 0 01-2.1 3.7 8.87 8.87 0 01-4.54 2.17c-.14 1.33-.21 2.31-.21 2.87A11 11 0 0075.52 39a6.54 6.54 0 005.6 2.45 9.75 9.75 0 007.62-3.78l.84-1a7.91 7.91 0 001.33 2.24 6.85 6.85 0 005.59 2.52c3 0 5.53-1.4 7.63-4.34.9 2.94 3 4.34 6.5 4.34a8.53 8.53 0 005.37-1.99 7 7 0 005 1.89c3 0 5.52-1.4 7.62-4.34.91 2.94 3 4.34 6.5 4.34a8.72 8.72 0 006-2.31 7.48 7.48 0 005.66 2.31 10.76 10.76 0 008.53-4.2 16.61 16.61 0 003.85-10.77 12.17 12.17 0 00-.84-4.68h5.81l-.56 2.52a53.62 53.62 0 00-1.4 8.88c0 5.45 2.24 8.25 6.64 8.25 5 0 8.74-3.36 11.4-10A2 2 0 00179 28.6zm-49.58-2.66c-.77 3.85-2 6.65-3.43 8.47s-3.07 2.72-4.75 2.72a2.82 2.82 0 01-2.38-1.4 6.93 6.93 0 01-.91-3.63 11.57 11.57 0 012.17-7.34 6.48 6.48 0 019.79-1.26zm24.34 5.25a20.21 20.21 0 01-2.52 4.05 6 6 0 01-4.27 1.89 3.32 3.32 0 01-2.79-1.26 5.31 5.31 0 01-1-3.49 12.47 12.47 0 012.16-7.48 6.54 6.54 0 015.53-3q3.78 0 3.78 4.61a14.27 14.27 0 01-.94 4.68zM62.45 6.71a2.18 2.18 0 00-2.17 1.75l-6.5 30.35a2.2 2.2 0 002.16 2.66 2.18 2.18 0 002.17-1.75l6.51-30.35a2.24 2.24 0 00-2.17-2.66zM15.94 0A16 16 0 000 15.94a16.38 16.38 0 00.84 5.18 2.28 2.28 0 002.8 1.4A2.27 2.27 0 005 19.72a10.44 10.44 0 01-.62-4.06 11.5 11.5 0 1112.19 11.82s-2.23.14-3.35.28A11.51 11.51 0 0012 28a.15.15 0 01-.21-.21l.35-1.89 2.1-9.51a2.18 2.18 0 00-4.27-.91s-5 23.22-5 23.43a2.12 2.12 0 001.67 2.59 2.13 2.13 0 002.59-1.68c.07-.28.7-3.36.7-3.36A5.66 5.66 0 0114.62 32c.48-.07 2.51-.21 2.51-.21A15.93 15.93 0 0015.94 0z"/><path fill="#e6007a" d="M183.64 36.71a2.67 2.67 0 00-3.15 2.1 2.64 2.64 0 002.1 3.15 2.6 2.6 0 003.14-2.1 2.76 2.76 0 00-2.09-3.15z"/></svg>
