<svg id="Layer_1" data-name="Layer 1" xmlns="http://www.w3.org/2000/svg" viewBox="0 0 151.11 42.93"><defs><style>.cls-1{fill:#2c3e50}.cls-2{fill:#26b99a}.cls-3{fill:#209e84}</style></defs><path class="cls-1" d="M127 19.59l-1.79-.37a4.73 4.73 0 00.1-.95v-1.93a4.71 4.71 0 10-9.41 0V18.58l-1.83.13v-2.37a6.54 6.54 0 1113.07 0v1.94a6.54 6.54 0 01-.14 1.31z"/><circle class="cls-1" cx="120.53" cy="22.13" r="1.2"/><path class="cls-2" d="M43.87 14.45c3.87 0 6.08 1.91 6.08 5.25s-2.22 5.49-6.08 5.49h-3.54v4.63h-2.59V14.45zm-3.54 8.41h3.43c2.37 0 3.71-1 3.71-3.1s-1.34-3-3.71-3h-3.43zM55.11 16.78v4.15h7.51v2.33h-7.51v4.24h8.65v2.33H52.52V14.45h11v2.33zM69.52 16.78v4.15H77v2.33h-7.48v4.24h8.65v2.33H66.92V14.45h11v2.33zM88.27 25.17h-4.35v4.63h-2.59V14.45h6.24c3.93 0 6.19 1.91 6.19 5.25a4.94 4.94 0 01-3.18 5L94 29.83h-2.92zm-.7-2.31c2.37 0 3.73-1 3.73-3.1s-1.36-3-3.73-3h-3.65v6.08z"/><path class="cls-1" d="M110 22.27v5.67a10.42 10.42 0 01-6 2 7.84 7.84 0 01-8.08-7.8c0-4.39 3.58-7.75 8.24-7.75a9.23 9.23 0 015.91 2.15l-1.47 1.91a6.68 6.68 0 00-4.44-1.76 5.46 5.46 0 100 10.92 7.17 7.17 0 003.54-1.05v-4.29zM128.68 22.14a8.16 8.16 0 11-8.15-7.75 7.87 7.87 0 018.15 7.75zm-13.66 0a5.51 5.51 0 005.53 5.47 5.45 5.45 0 10-5.55-5.47zM141.88 15.93l-1.08 2.28a9.19 9.19 0 00-4.5-1.43c-1.52 0-2.5.57-2.5 1.6 0 3.36 8.3 1.56 8.28 7.09 0 2.75-2.42 4.44-5.8 4.44a9.46 9.46 0 01-6.28-2.43l1.12-2.24a8.11 8.11 0 005.21 2.24c1.8 0 2.88-.68 2.88-1.87 0-3.43-8.3-1.52-8.3-7 0-2.64 2.26-4.28 5.6-4.28a10 10 0 015.37 1.6z"/><path class="cls-1" d="M120.19 22.94l-.5 1.8h1.68l-.57-1.8h-.61z"/><path class="cls-2" d="M10.13 32.26h17.13V35H10.13zM25.36 31.59H12.03l1.7-17.98h9.94l1.69 17.98zM23.68 8.29v.91h-2v-.91H19.7v.91h-2v-.91h-1.98v.91h-2v-.91h-1.98V11.61h13.92V8.29h-1.98z"/><path class="cls-3" d="M11.74 11.61l1.99 2h9.94l1.99-2H11.74zM10.13 32.26l1.9-1.35h13.33l1.9 1.35H10.13zM21.26 21.91l-.71-.15a1.88 1.88 0 000-.38v-.77a1.87 1.87 0 10-3.74 0v.89l-.73.05V20.61a2.6 2.6 0 115.2 0v.77a2.6 2.6 0 01-.02.53z"/><circle class="cls-3" cx="18.7" cy="22.92" r=".48"/><path class="cls-3" d="M21.94 22.92A3.13 3.13 0 0118.7 26a3.1 3.1 0 110-6.18 3.11 3.11 0 013.24 3.1zm-5.43 0a2.19 2.19 0 002.2 2.17 2.17 2.17 0 10-2.2-2.17z"/><path class="cls-3" d="M18.56 23.24l-.2.72h.67l-.22-.72h-.25z"/></svg>
