<svg id="Слой_1" xmlns="http://www.w3.org/2000/svg" xmlns:xlink="http://www.w3.org/1999/xlink" viewBox="0 0 13 15"><style>.st0{opacity:.9;enable-background:new}.st1{clip-path:url(#SVGID_2_)}.st2{clip-path:url(#SVGID_4_)}.st3{clip-path:url(#SVGID_6_);fill:#f6af1a}.st4{clip-path:url(#SVGID_8_)}.st5{clip-path:url(#SVGID_10_);fill:#f29020}.st6{clip-path:url(#SVGID_12_)}.st7{clip-path:url(#SVGID_14_);fill:#f8a120}.st8{clip-path:url(#SVGID_16_)}.st9{clip-path:url(#SVGID_18_)}.st10{clip-path:url(#SVGID_20_);fill:#f6af1a}.st11{clip-path:url(#SVGID_22_)}.st12{clip-path:url(#SVGID_24_);fill:#f29020}.st13{clip-path:url(#SVGID_26_)}.st14{clip-path:url(#SVGID_28_);fill:#f8a120}.st15{clip-path:url(#SVGID_30_)}.st16{clip-path:url(#SVGID_32_)}.st17{clip-path:url(#SVGID_34_);fill:#f6af1a}.st18{clip-path:url(#SVGID_36_)}.st19{clip-path:url(#SVGID_38_);fill:#f29020}.st20{clip-path:url(#SVGID_40_)}.st21{clip-path:url(#SVGID_42_);fill:#f8a120}</style><g class="st0"><defs><path id="SVGID_1_" d="M0 5h9v10H0z"/></defs><clipPath id="SVGID_2_"><use xlink:href="#SVGID_1_" overflow="visible"/></clipPath><g class="st1"><defs><path id="SVGID_3_" d="M4.3 10l4.2-2.4-4.2-2.3L.1 7.6 4.3 10z"/></defs><clipPath id="SVGID_4_"><use xlink:href="#SVGID_3_" overflow="visible"/></clipPath><g class="st2"><defs><path id="SVGID_5_" d="M0 5h9v10H0z"/></defs><clipPath id="SVGID_6_"><use xlink:href="#SVGID_5_" overflow="visible"/></clipPath><path class="st3" d="M-4.9.3h18.4V15H-4.9z"/></g></g><g class="st1"><defs><path id="SVGID_7_" d="M4.3 14.7V10L.1 7.6v4.7z"/></defs><clipPath id="SVGID_8_"><use xlink:href="#SVGID_7_" overflow="visible"/></clipPath><g class="st4"><defs><path id="SVGID_9_" d="M0 5h9v10H0z"/></defs><clipPath id="SVGID_10_"><use xlink:href="#SVGID_9_" overflow="visible"/></clipPath><path class="st5" d="M-4.9 2.6H9.3v17.1H-4.9z"/></g></g><g class="st1"><defs><path id="SVGID_11_" d="M8.5 7.6L4.3 10v4.7l4.2-2.3V7.6z"/></defs><clipPath id="SVGID_12_"><use xlink:href="#SVGID_11_" overflow="visible"/></clipPath><g class="st6"><defs><path id="SVGID_13_" d="M0 5h9v10H0z"/></defs><clipPath id="SVGID_14_"><use xlink:href="#SVGID_13_" overflow="visible"/></clipPath><path class="st7" d="M-.7 2.6h14.2v17.1H-.7z"/></g></g></g><g class="st0"><defs><path id="SVGID_15_" d="M0 0h9v10H0z"/></defs><clipPath id="SVGID_16_"><use xlink:href="#SVGID_15_" overflow="visible"/></clipPath><g class="st8"><defs><path id="SVGID_17_" d="M4.3 4.8l4.2-2.4L4.3.1.1 2.4l4.2 2.4z"/></defs><clipPath id="SVGID_18_"><use xlink:href="#SVGID_17_" overflow="visible"/></clipPath><g class="st9"><defs><path id="SVGID_19_" d="M0 0h9v10H0z"/></defs><clipPath id="SVGID_20_"><use xlink:href="#SVGID_19_" overflow="visible"/></clipPath><path class="st10" d="M-4.9-4.9h18.4V9.8H-4.9z"/></g></g><g class="st8"><defs><path id="SVGID_21_" d="M4.3 9.5V4.8L.1 2.4v4.7z"/></defs><clipPath id="SVGID_22_"><use xlink:href="#SVGID_21_" overflow="visible"/></clipPath><g class="st11"><defs><path id="SVGID_23_" d="M0 0h9v10H0z"/></defs><clipPath id="SVGID_24_"><use xlink:href="#SVGID_23_" overflow="visible"/></clipPath><path class="st12" d="M-4.9-2.6H9.3v17.1H-4.9z"/></g></g><g class="st8"><defs><path id="SVGID_25_" d="M8.5 2.4L4.3 4.8v4.7l4.2-2.3V2.4z"/></defs><clipPath id="SVGID_26_"><use xlink:href="#SVGID_25_" overflow="visible"/></clipPath><g class="st13"><defs><path id="SVGID_27_" d="M0 0h9v10H0z"/></defs><clipPath id="SVGID_28_"><use xlink:href="#SVGID_27_" overflow="visible"/></clipPath><path class="st14" d="M-.7-2.6h14.2v17.1H-.7z"/></g></g></g><g class="st0"><defs><path id="SVGID_29_" d="M4 2h9v10H4z"/></defs><clipPath id="SVGID_30_"><use xlink:href="#SVGID_29_" overflow="visible"/></clipPath><g class="st15"><defs><path id="SVGID_31_" d="M8.5 7.2l4.2-2.4-4.2-2.4-4.2 2.4 4.2 2.4z"/></defs><clipPath id="SVGID_32_"><use xlink:href="#SVGID_31_" overflow="visible"/></clipPath><g class="st16"><defs><path id="SVGID_33_" d="M4 2h9v10H4z"/></defs><clipPath id="SVGID_34_"><use xlink:href="#SVGID_33_" overflow="visible"/></clipPath><path class="st17" d="M-.7-2.6h18.4v14.7H-.7z"/></g></g><g class="st15"><defs><path id="SVGID_35_" d="M8.5 11.9V7.2L4.3 4.8v4.7z"/></defs><clipPath id="SVGID_36_"><use xlink:href="#SVGID_35_" overflow="visible"/></clipPath><g class="st18"><defs><path id="SVGID_37_" d="M4 2h9v10H4z"/></defs><clipPath id="SVGID_38_"><use xlink:href="#SVGID_37_" overflow="visible"/></clipPath><path class="st19" d="M-.7-.2h14.2v17.1H-.7z"/></g></g><g class="st15"><defs><path id="SVGID_39_" d="M12.7 4.8L8.5 7.2v4.7l4.2-2.3V4.8z"/></defs><clipPath id="SVGID_40_"><use xlink:href="#SVGID_39_" overflow="visible"/></clipPath><g class="st20"><defs><path id="SVGID_41_" d="M4 2h9v10H4z"/></defs><clipPath id="SVGID_42_"><use xlink:href="#SVGID_41_" overflow="visible"/></clipPath><path class="st21" d="M3.5-.2h14.2v17.1H3.5z"/></g></g></g></svg>