<?xml version="1.0" encoding="utf-8"?>
<!-- Generator: Adobe Illustrator 21.0.0, SVG Export Plug-In . SVG Version: 6.00 Build 0)  -->
<svg version="1.1" xmlns="http://www.w3.org/2000/svg" xmlns:xlink="http://www.w3.org/1999/xlink" x="0px" y="0px"
	 viewBox="0 0 595.28 193.89" style="enable-background:new 0 0 595.28 193.89;" xml:space="preserve">
<style type="text/css">
	.st0{fill:#FFFFFF;}
	.st1{fill:#00D2D6;}
</style>
<g id="black">
</g>
<g id="color">
	<g>
		<g>
			<g>
				<path class="st1" d="M126.643,160.431c-35.05,0.134-63.662-28.544-63.503-63.786c0.158-34.839,28.631-63.396,63.918-63.186
					c34.783,0.207,63.35,28.675,63.079,64.022C189.872,132.166,161.592,160.543,126.643,160.431z M134.53,91.017
					c5.539,0.782,10.951,1.547,16.529,2.335c0.469-1.679,0.869-3.111,1.326-4.748c-5.739-0.849-11.215-1.659-17.095-2.529
					c1.977-6.997,3.685-13.69,5.822-20.243c0.703-2.157,2.276-4.181,3.879-5.857c2.102-2.197,5.011-1.71,6.793,0.704
					c0.745,1.01,1.449,2.079,2.343,2.944c1.141,1.103,2.825,1.64,3.971,0.565c0.752-0.705,0.729-2.364,0.799-3.61
					c0.028-0.501-0.563-1.092-0.972-1.554c-1.992-2.254-4.681-3.052-7.521-3.171c-6.337-0.266-10.883,2.966-14.454,7.849
					c-3.538,4.838-5.09,10.529-6.779,16.152c-0.493,1.642-0.915,3.306-1.409,5.106c-6.17-0.893-12.088-1.749-18.178-2.63
					c-0.216,1.645-0.418,3.187-0.632,4.826c6.03,0.927,11.799,1.815,17.761,2.732c-0.798,3.362-1.542,6.5-2.306,9.721
					c-5.849-0.817-11.393-1.592-16.975-2.371c-0.236,1.802-0.415,3.165-0.625,4.768c5.606,0.856,11.011,1.682,16.452,2.513
					c0,0.613,0.066,0.971-0.01,1.294c-1.737,7.399-3.351,14.831-5.3,22.174c-0.93,3.502-2.427,6.881-5.338,9.342
					c-2.396,2.025-5.028,1.688-6.83-0.825c-0.813-1.134-1.493-2.477-2.568-3.271c-0.785-0.579-2.533-0.929-3.108-0.463
					c-0.854,0.691-1.472,2.221-1.4,3.344c0.063,0.997,1.021,2.162,1.901,2.84c2.963,2.282,6.452,2.614,9.985,1.918
					c5.919-1.166,10.094-4.859,12.682-10.081c2.034-4.105,3.556-8.491,4.995-12.854c1.303-3.952,2.186-8.042,3.291-12.21
					c5.813,0.843,11.512,1.67,17.329,2.513c0.479-1.661,0.913-3.163,1.38-4.78c-6.084-0.895-11.891-1.749-17.748-2.61
					C133.222,97.412,133.848,94.351,134.53,91.017z"/>
				<path class="st0" d="M134.53,91.017c-0.682,3.334-1.308,6.395-2.011,9.833c5.856,0.861,11.663,1.715,17.748,2.61
					c-0.467,1.617-0.9,3.119-1.38,4.78c-5.817-0.844-11.516-1.67-17.329-2.513c-1.105,4.168-1.988,8.258-3.291,12.21
					c-1.439,4.363-2.962,8.749-4.995,12.854c-2.587,5.222-6.762,8.915-12.682,10.081c-3.533,0.696-7.023,0.364-9.985-1.918
					c-0.88-0.678-1.838-1.843-1.901-2.84c-0.072-1.123,0.547-2.653,1.4-3.344c0.576-0.466,2.324-0.116,3.108,0.463
					c1.075,0.794,1.755,2.137,2.568,3.271c1.803,2.513,4.434,2.85,6.83,0.825c2.911-2.46,4.409-5.839,5.338-9.342
					c1.949-7.343,3.563-14.775,5.3-22.174c0.076-0.324,0.01-0.681,0.01-1.294c-5.441-0.831-10.846-1.657-16.452-2.513
					c0.21-1.603,0.389-2.965,0.625-4.768c5.582,0.78,11.126,1.554,16.975,2.371c0.764-3.221,1.509-6.359,2.306-9.721
					c-5.962-0.917-11.731-1.804-17.761-2.732c0.215-1.639,0.417-3.18,0.632-4.826c6.09,0.881,12.009,1.737,18.178,2.63
					c0.495-1.801,0.916-3.464,1.409-5.106c1.688-5.623,3.241-11.314,6.779-16.152c3.571-4.884,8.118-8.115,14.454-7.849
					c2.84,0.119,5.529,0.918,7.521,3.171c0.409,0.462,1,1.053,0.972,1.554c-0.071,1.246-0.047,2.905-0.799,3.61
					c-1.146,1.074-2.83,0.537-3.971-0.565c-0.894-0.865-1.598-1.934-2.343-2.944c-1.782-2.414-4.69-2.901-6.793-0.704
					c-1.603,1.675-3.176,3.7-3.879,5.857c-2.137,6.553-3.845,13.246-5.822,20.243c5.88,0.87,11.357,1.68,17.095,2.529
					c-0.457,1.637-0.857,3.069-1.326,4.748C145.48,92.564,140.068,91.799,134.53,91.017z"/>
			</g>
			<g>
				<path d="M359.201,107.462c-11.354,0-22.368,0-33.418,0c-0.157,0.477-0.349,0.786-0.348,1.095
					c0.013,8.847,5.176,18.4,18.332,17.039c3.921-0.406,7.663-1.435,11.24-3.086c0.49-0.226,1.006-0.395,1.855-0.724
					c0.385,1.898,0.743,3.657,1.123,5.529c-0.646,0.41-1.188,0.821-1.784,1.123c-6.521,3.297-13.431,4.26-20.578,3.013
					c-7.815-1.364-13.214-5.973-15.84-13.38c-3.096-8.734-2.971-17.552,1.175-25.971c4.431-8.998,13.833-13.256,23.589-11.013
					c3.572,0.821,6.64,2.545,9.084,5.295C358.958,92.375,359.743,99.556,359.201,107.462z M325.66,101.689
					c2.603,0.646,24.507,0.531,26.237-0.12c0.297-2.318-0.213-4.582-0.926-6.794c-3.31-10.272-15.529-10.067-20.549-4.707
					C327.39,93.304,325.985,97.194,325.66,101.689z"/>
				<path d="M434.538,131.917c-10.015,0.041-17.534-5.044-20.905-14.517c-2.969-8.344-2.769-16.738,1.063-24.779
					c4.626-9.707,13.584-12.827,22.968-11.905c12.574,1.236,18.219,11.242,19.442,20.623c0.6,4.6,0.433,9.155-0.75,13.65
					C453.506,125.812,445.684,131.871,434.538,131.917z M419.278,105.885c-0.005,4.602,0.611,8.701,2.587,12.497
					c2.795,5.37,7.374,7.679,13.287,7.577c5.925-0.102,10.315-2.791,12.555-8.284c3.068-7.526,3.079-15.209,0.126-22.806
					c-1.118-2.876-3.04-5.176-5.82-6.669c-7.773-4.174-17.15-0.989-20.7,7.049C419.764,98.755,419.259,102.461,419.278,105.885z"/>
				<path d="M261.93,64.554c0,2.185,0,4.118,0,6.309c-4.958,0-9.667,0-14.377,0c-4.715,0-14.061,0-14.061,0l-0.196,23.855
					c0,0,17.909,0,27.099,0c0,2.18,0,3.985,0,6.034c-0.857,0.084-1.71,0.238-2.564,0.24c-7.261,0.018-14.521,0.001-21.782,0.016
					c-0.934,0.002-1.867,0.127-3.035,0.212c0,9.894,0,29.493,0,29.493h-7.08c0,0-0.78-63.658-0.081-66.161
					C237.795,64.554,249.796,64.554,261.93,64.554z"/>
				<path d="M525.243,130.759c2.357,0,4.443,0,6.7,0c0.094-0.867,0.23-21.239,0.188-30.697c-0.015-3.433-0.262-6.846-1.442-10.12
					c-1.628-4.517-4.675-7.528-9.388-8.661c-7.938-1.907-14.906-0.045-20.865,5.548c-0.519,0.487-1.035,0.979-1.863,1.762
					c-0.44-2.542-0.803-4.641-1.173-6.777c-2.037,0-3.785,0-5.724,0c0,16.495,0,32.684,0,48.901c2.421,0,4.63,0,6.968,0
					c0.052-1.147,0.305-22.086,0.4-31.608c0.026-2.644,1.023-4.945,2.66-6.968c3.393-4.194,8.001-5.585,13.16-5.415
					c6.685,0.22,9.213,3.557,9.892,9.997L525.243,130.759z"/>
				<path d="M404.146,83.814c-0.705,1.98-1.297,3.64-1.903,5.342c-2.348-0.705-4.527-1.49-6.769-1.998
					c-2.687-0.609-5.439-0.707-8.151-0.064c-5.098,1.209-8.429,4.523-10.211,9.276c-2.442,6.514-2.499,13.183-0.086,19.717
					c2.71,7.34,9.393,10.964,17.315,9.466c2.802-0.53,5.518-1.511,8.627-2.386c0.274,1.699,0.557,3.459,0.829,5.149
					c-1.874,1.694-3.964,2.37-6.084,2.899c-3.706,0.924-7.49,0.964-11.234,0.39c-7.402-1.136-12.829-5.185-15.85-11.985
					c-3.898-8.775-3.895-17.791,0.094-26.507c4.57-9.983,13.462-13.339,23.316-12.382C396.399,80.96,402.968,83.232,404.146,83.814z
					"/>
				<path d="M301.632,114.081c0.006,2.184,0.151,4.387,0.466,6.547c0.503,3.449,2.369,5.026,5.826,5.162
					c1.094,0.043,2.193,0.007,3.288-0.046c1.074-0.052,2.145-0.171,3.503-0.284c0.13,1.909,0.247,3.638,0.381,5.605
					c-5.17,0.781-10.092,1.537-14.882-0.709c-2.3-1.079-5.59-2.952-5.769-14.286c-0.167-10.074-0.078-20.151-0.078-30.228
					c0-6.786,0.014-13.572,0.022-20.358c0.001-0.885,0-1.769,0-3.158c2.42-0.146,4.561-0.275,6.965-0.42L301.632,114.081z"/>
				<path d="M272.876,81.805c0,0,4.384,0,6.746,0c0,16.355,0,32.594,0,48.977c-2.334,0-6.603,0-6.603,0L272.876,81.805z"/>
				<path d="M469.906,81.83c2.355,0,4.502,0,6.872,0c0,16.337,0,32.511,0,48.889c-2.268,0-4.47,0-6.872,0
					C469.906,114.419,469.906,98.194,469.906,81.83z"/>
				<path d="M272.741,71.94c0-2.761,0-5.369,0-8.165c2.297,0,6.819,0,6.819,0l0.113,8.165
					C279.673,71.94,275.206,71.94,272.741,71.94z"/>
				<path d="M469.926,71.885c0-2.666,0-5.277,0-8.085c2.247,0,4.392,0,6.779,0c0,2.63,0,5.245,0,8.085
					C474.528,71.885,472.333,71.885,469.926,71.885z"/>
			</g>
		</g>
	</g>
</g>
</svg>
