<svg fill="none" xmlns="http://www.w3.org/2000/svg" viewBox="0 0 109 157"><path d="M103.842 66.688l-16.248 9.325-.137.088V95.04l16.385-9.413v-18.94z" fill="#BE3F9E"/><path d="M87.518 76.102l-16.31 9.35-.137.075h-.013v18.939h.013l16.447-9.453V76.102z" fill="#3DA1BD"/><path d="M22.235 94.963l-.122-18.902L5.59 66.35v18.94l16.645 9.674z" fill="#81D2E0"/><path d="M38.349 104.341v-18.94L21.95 75.964l.013 18.852h.012l16.374 9.526z" fill="#81D2E0"/><path d="M54.735 113.879l.017-18.934L38.35 85.4v18.952h.013l16.373 9.526z" fill="#49B7CF"/><path d="M71.12 85.527l-16.247 9.325-.138.088v18.939l16.323-9.413.063-18.94z" fill="#3DA1BD"/><path d="M103.842 47.747L87.531 57.11l-.087.076v18.941l16.398-9.426V47.747z" fill="#994FA0"/><path d="M87.47 57.212L71.22 66.537l-.138.075-.012 18.94 16.386-9.4v-.013l.012-18.927z" fill="#994FA0"/><path d="M21.95 75.963l.013-18.94L5.577 47.46l.013 18.952 16.36 9.551z" fill="#FFC41A"/><path d="M38.349 85.401V66.55l-8.18-4.784-8.205-4.763-.014 18.96h.013l16.386 9.438z" fill="#F39B35"/><path d="M54.735 94.94V76l-16.386-9.538v18.94l16.386 9.538z" fill="#22758E"/><path d="M71.12 66.587l-16.247 9.326-.138.075-.023.048.023 18.904 16.386-9.413v-18.94z" fill="#026D8E"/><path d="M54.685 19.195l.138-.075L71.07 9.782 54.685.256 38.299 9.669l16.386 9.526z" fill="#C4CD46"/><path d="M71.083 28.721l.126-.087 16.248-9.326L71.07 9.782l-16.386 9.413 16.398 9.526z" fill="#F064A4"/><path d="M87.456 38.248h.013l.125-.088 16.248-9.326-16.386-9.526-16.373 9.413 16.373 9.527z" fill="#AA6AAB"/><path d="M103.842 28.834L87.594 38.16l-.137.087v18.927l.012.013 16.373-9.413v-18.94z" fill="#994FA0"/><path d="M38.324 28.608l.138-.087 16.235-9.326L38.324 9.67 21.95 19.12l16.374 9.488z" fill="#CDDD40"/><path d="M54.735 38.21l16.348-9.489-16.404-9.539-16.377 9.42 16.433 9.608z" fill="#CDDD40"/><path d="M71.12 47.736l16.336-9.489-16.373-9.526-16.348 9.489 16.386 9.526z" fill="#8F499E"/><path d="M87.457 38.247l-16.198 9.401-.138.088v18.94l16.436-9.49v-.012l-.088-18.927h-.012z" fill="#5F356B"/><path d="M21.963 38.084l16.36-9.476L21.95 19.12 5.575 28.564l16.388 9.52z" fill="#FFD75A"/><path d="M21.963 57.024v-18.94L5.577 28.558v18.94h.013l16.373 9.526z" fill="#FFC41A"/><path d="M38.361 47.623l.139-.088 16.247-9.325-16.423-9.602-16.361 9.476 16.386 9.54h.013z" fill="#F8B730"/><path d="M38.349 66.578V47.61l-16.386-9.526v18.939l16.386 9.554z" fill="#F39B35"/><path d="M54.735 57.15l.138-.089 16.248-9.325-16.386-9.526-16.413 9.398 16.413 9.541z" fill="#F8B730"/><path d="M54.748 76.089h.012v-18.94l-16.411-9.526-.016 18.909 16.415 9.557z" fill="#F39B35"/><path d="M54.873 57.061l-.138.088v18.927l.012.013 16.374-9.414v-18.94l-16.248 9.326z" fill="#FAAA36"/><path d="M.478 157v-22.648h4.728v17.892h10.45V157H.479zM18.995 157v-22.648h4.728V157h-4.728zM29.12 134.352h10.265c2.489 0 4.303.593 5.443 1.78 1.162 1.164 1.742 2.62 1.742 4.367 0 2.33-.819 3.894-2.457 4.692 1.057.41 1.846 1.089 2.364 2.038.54.949.809 1.941.809 2.977 0 1.876-.612 3.483-1.836 4.82-1.223 1.316-3.11 1.974-5.66 1.974H29.12v-22.648zm9.799 8.833c1.887 0 2.83-.712 2.83-2.136 0-1.402-.778-2.103-2.333-2.103H33.85v4.239h5.07zm1.088 9.188c.871 0 1.504-.226 1.898-.679a2.34 2.34 0 00.59-1.585c0-1.661-1.109-2.492-3.328-2.492H33.85v4.756h6.158zM51.765 157v-22.648h9.642c2.592 0 4.5.701 5.723 2.103 1.245 1.402 1.867 3.128 1.867 5.177a7.88 7.88 0 01-.436 2.588 7.657 7.657 0 01-1.306 2.297c-.58.712-1.38 1.284-2.395 1.715-1.016.431-2.167.647-3.453.647h-4.914V157h-4.728zm9.829-12.747c.83 0 1.451-.259 1.866-.777.415-.518.622-1.132.622-1.844 0-.69-.197-1.294-.59-1.812-.395-.539-1.027-.809-1.898-.809h-5.101v5.242h5.1zM71.635 157c0-2.222.342-4.184 1.026-5.888.684-1.704 1.545-3.074 2.582-4.109 1.037-1.036 2.322-1.996 3.857-2.88.891-.496 1.576-.992 2.053-1.488a2.424 2.424 0 00.746-1.78c0-1.488-.767-2.232-2.302-2.232-1.493 0-2.623.755-3.39 2.265l-4.23-1.974c.663-1.531 1.67-2.739 3.017-3.624 1.369-.884 2.851-1.326 4.448-1.326 2.198 0 3.93.636 5.194 1.909 1.286 1.272 1.929 2.869 1.929 4.788 0 1.79-.384 3.203-1.151 4.239-.747 1.035-1.897 2.016-3.453 2.944-1.513.949-2.602 1.725-3.266 2.329a5.833 5.833 0 00-1.524 2.103h9.58V157H71.635zM91.707 157v-22.648h9.643c2.592 0 4.499.701 5.723 2.103 1.244 1.402 1.866 3.128 1.866 5.177 0 .884-.145 1.747-.436 2.588a7.64 7.64 0 01-1.306 2.297c-.58.712-1.379 1.284-2.395 1.715-1.016.431-2.167.647-3.452.647h-4.915V157h-4.728zm9.829-12.747c.83 0 1.452-.259 1.866-.777.415-.518.622-1.132.622-1.844 0-.69-.197-1.294-.59-1.812-.394-.539-1.027-.809-1.898-.809h-5.101v5.242h5.101z" fill="#0D1644"/></svg>
