<svg width="301" height="127" fill="none" xmlns="http://www.w3.org/2000/svg">
  <g clip-path="url(#clip0)">
    <path d="M21.836 36.086h257.24c10.781 0 19.459 7.788 19.459 17.46v53.403c0 9.671-8.678 17.459-19.459 17.459H21.834c-10.78 0-19.459-7.788-19.459-17.459V53.545c0-9.67 8.678-17.459 19.46-17.459h.001z" stroke="#E9602A" stroke-width="4.752"/>
    <path d="M105.697 0h2.389V6.84h.131c.336-.687.782-1.22 1.338-1.6.556-.395 1.25-.592 2.083-.592 1.329 0 2.389.497 3.178 1.491.789.993 1.184 2.469 1.184 4.427 0 1.959-.395 3.435-1.184 4.43-.789.992-1.849 1.489-3.178 1.489-.833 0-1.527-.19-2.083-.57-.556-.394-1.002-.935-1.338-1.622h-.131v1.93h-2.389V0zm4.954 14.534c.906 0 1.6-.278 2.083-.834.496-.555.744-1.292.744-2.213V9.645c0-.92-.248-1.658-.744-2.214-.483-.555-1.177-.832-2.083-.832-.351 0-.679.044-.986.131a2.47 2.47 0 00-.811.394 2.048 2.048 0 00-.569.657c-.133.249-.199.549-.199.9v3.77c0 .35.066.657.197.92.146.25.336.461.569.636.235.176.506.308.812.395.307.088.636.132.987.132zm17.243 1.687c-.687 0-1.206-.175-1.557-.526-.336-.35-.54-.811-.613-1.38h-.11a2.892 2.892 0 01-1.205 1.6c-.571.379-1.301.569-2.192.569-1.155 0-2.076-.3-2.761-.898-.687-.614-1.031-1.454-1.031-2.52 0-1.096.402-1.93 1.205-2.5.818-.585 2.068-.878 3.749-.878h2.169v-.876c0-1.534-.811-2.301-2.433-2.301-.731 0-1.322.146-1.775.438a3.6 3.6 0 00-1.139 1.117l-1.426-1.162c.323-.613.863-1.139 1.623-1.577.759-.454 1.738-.68 2.936-.68 1.433 0 2.558.343 3.376 1.03.818.687 1.227 1.68 1.227 2.981v5.679h1.426v1.884h-1.469zm-4.999-1.49c.775 0 1.411-.176 1.908-.527.497-.35.745-.803.745-1.359v-1.643h-2.126c-1.724 0-2.586.519-2.586 1.555v.439c0 .512.183.899.547 1.161.366.249.87.373 1.512.373zm9.067-.44h3.62V6.84h-3.837V4.91h3.837V2.872c0-.848.233-1.535.701-2.06.468-.541 1.199-.812 2.192-.812h3.814v1.928h-4.318v2.983h4.318v1.928h-4.318v7.453h3.814v1.93h-9.821l-.002-1.93zm18.012 2.15c-.702 0-1.199-.146-1.492-.439a1.503 1.503 0 01-.416-1.073v-.57c0-.425.139-.783.416-1.075.293-.293.79-.439 1.492-.439.701 0 1.191.146 1.467.439.293.292.44.65.44 1.073v.57c0 .425-.146.783-.439 1.075-.278.293-.768.439-1.468.439zm13.143 0c-.702 0-1.199-.146-1.491-.439a1.503 1.503 0 01-.416-1.073v-.57c0-.425.139-.783.416-1.075.292-.293.789-.439 1.491-.439.702 0 1.191.146 1.467.439.294.292.441.65.441 1.073v.57c0 .425-.147.783-.439 1.075-.278.293-.768.439-1.469.439zm13.144 0c-.702 0-1.199-.146-1.491-.439a1.498 1.498 0 01-.416-1.073v-.57a1.5 1.5 0 01.416-1.075c.292-.293.789-.439 1.491-.439.702 0 1.191.146 1.467.439.294.292.44.65.44 1.073v.57c0 .425-.146.783-.438 1.075-.279.293-.768.439-1.469.439zm8.496-.22v-2.038h4.297V2.72h-.176l-3.55 3.792-1.514-1.36 3.901-4.23h3.794v13.262h3.704v2.037l-10.456.002zM23.332 77.183c-.601 0-1.044-.153-1.329-.459-.272-.296-.409-.67-.409-1.125v-.94c0-.294.029-.555.085-.783.058-.228.131-.427.22-.597.104-.182.213-.34.325-.476l.325-.394c.193-.227.324-.42.392-.578.08-.172.12-.348.12-.53 0-.739-.71-1.108-2.133-1.108h-1.415v-1.33h1.415c1.421 0 2.132-.368 2.132-1.107 0-.182-.04-.352-.12-.511-.068-.172-.199-.37-.391-.597l-.325-.392a3.229 3.229 0 01-.545-1.075 3.202 3.202 0 01-.086-.784v-.937c0-.455.137-.83.41-1.126.285-.307.728-.46 1.33-.46h3.001v1.328H23.13v1.093c0 .227.017.425.052.596.033.16.078.307.134.443.07.137.143.263.223.376l.273.34c.193.239.375.495.545.769.17.272.255.59.255.954 0 .478-.17.864-.51 1.158-.33.284-.802.466-1.416.546v.103c.614.08 1.085.267 1.416.563.34.284.51.665.51 1.142 0 .364-.085.682-.255.955-.17.273-.352.528-.545.766l-.273.342c-.08.114-.155.239-.223.375-.057.137-.103.29-.136.46a2.778 2.778 0 00-.052.58v1.091h3.207v1.33h-3.002zm16.253-3.852h2.813v-5.798h-2.984v-1.5h2.984V64.45c0-.66.182-1.194.546-1.604.363-.42.932-.63 1.705-.63h2.965v1.5h-3.357v2.318h3.36v1.502h-3.36v5.796h2.97v1.501h-7.64l-.002-1.501zm14.554-8.9c-.478 0-.813-.096-1.007-.29a1.006 1.006 0 01-.272-.716v-.359a1 1 0 01.273-.715c.193-.193.523-.29.989-.29.477 0 .807.097.989.29.193.193.29.43.29.715v.36a.973.973 0 01-.29.715c-.182.194-.506.29-.972.29zm-3.939 8.9h3v-5.798h-3v-1.5h4.859v7.298h2.813v1.501H50.2v-1.501zm9.78 0h2.915v-9.616h-2.917v-1.502h4.776V73.33h2.915v1.502h-7.69v-1.5zm14.246 1.703c-.67 0-1.273-.107-1.807-.322a3.64 3.64 0 01-1.346-.92 4.064 4.064 0 01-.837-1.433c-.194-.568-.29-1.205-.29-1.909 0-.705.097-1.342.29-1.91a4.425 4.425 0 01.835-1.45c.364-.409.802-.721 1.314-.938a4.352 4.352 0 011.705-.323c.613 0 1.17.108 1.67.323.5.205.926.5 1.278.887.353.387.62.847.803 1.381.193.534.29 1.125.29 1.773v.699h-6.309v.29c0 .694.216 1.262.647 1.705.433.432 1.03.647 1.792.647.567 0 1.05-.119 1.45-.357.408-.25.737-.58.987-.989l1.16 1.024c-.296.51-.75.942-1.364 1.294-.603.353-1.359.53-2.268.53v-.002zm-.138-7.79c-.329 0-.635.057-.92.172-.272.112-.51.277-.714.493-.194.205-.347.45-.461.734a2.49 2.49 0 00-.17.937v.12h4.414v-.172c0-.692-.198-1.244-.595-1.653-.387-.421-.905-.632-1.554-.632zm6.49 7.587v-8.798h1.86v1.502h.085a3.42 3.42 0 01.34-.65c.148-.216.324-.397.529-.545.205-.158.443-.283.716-.374.273-.092.59-.138.954-.138.886 0 1.603.29 2.15.87.545.58.817 1.404.817 2.473v5.661h-1.858v-5.388c0-1.398-.609-2.097-1.825-2.097a2.4 2.4 0 00-.699.103c-.227.055-.43.146-.613.271-.181.126-.33.285-.443.478a1.398 1.398 0 00-.154.665v5.967h-1.859zm17.18 0c-.534 0-.938-.137-1.21-.41-.262-.272-.421-.63-.479-1.073h-.084c-.17.534-.483.948-.937 1.243-.445.297-1.013.445-1.706.445-.897 0-1.614-.233-2.149-.699-.534-.477-.8-1.131-.8-1.96 0-.853.312-1.501.937-1.944.637-.455 1.61-.682 2.917-.682h1.686v-.684c0-1.193-.63-1.79-1.892-1.79-.568 0-1.028.114-1.38.342a2.805 2.805 0 00-.888.87l-1.108-.904c.25-.478.67-.887 1.262-1.227.591-.353 1.353-.529 2.285-.529 1.114 0 1.989.267 2.624.801.637.534.956 1.307.956 2.318v4.417H98.9v1.468l-1.143-.002zm-3.887-1.16c.602 0 1.097-.137 1.484-.41.385-.272.578-.624.578-1.055v-1.278H94.28c-1.34 0-2.01.403-2.01 1.208v.342c0 .398.142.7.426.905.284.192.676.288 1.176.288zm6.472 1.16v-8.798h1.585v1.143h.086a2.67 2.67 0 01.58-.955c.261-.26.63-.392 1.108-.392.466 0 .824.131 1.074.392.261.25.426.596.495 1.04h.067a2.83 2.83 0 01.665-1.005c.284-.284.693-.427 1.227-.427.682 0 1.154.24 1.415.717.273.476.409 1.175.409 2.095v6.19h-1.584v-5.95c0-.614-.074-1.035-.223-1.262-.147-.239-.386-.359-.716-.359-.295 0-.544.103-.749.308-.193.193-.29.489-.29.887v6.376h-1.586v-5.95c0-.614-.074-1.035-.221-1.262-.137-.239-.37-.359-.699-.359a1.04 1.04 0 00-.768.308c-.194.193-.29.489-.29.887v6.376h-1.585zm14.775.203c-.671 0-1.273-.107-1.807-.322a3.665 3.665 0 01-1.347-.92 4.08 4.08 0 01-.835-1.433 5.915 5.915 0 01-.29-1.909c0-.705.097-1.342.29-1.91a4.393 4.393 0 01.835-1.45c.364-.409.801-.721 1.312-.938a4.362 4.362 0 011.706-.323c.613 0 1.17.108 1.67.323.501.205.927.5 1.278.887.353.387.62.847.802 1.381.194.534.29 1.125.29 1.773v.699h-6.308v.29c0 .694.216 1.262.649 1.705.431.432 1.028.647 1.789.647.569 0 1.052-.119 1.45-.357.409-.25.738-.58.988-.989l1.16 1.024c-.296.51-.751.942-1.364 1.294-.603.353-1.359.53-2.268.53v-.002zm-.136-7.79c-.329 0-.636.057-.92.172a2.062 2.062 0 00-.717.493c-.193.205-.347.45-.461.734-.113.283-.17.595-.17.937v.12h4.417v-.172c0-.692-.2-1.244-.598-1.653-.386-.421-.904-.632-1.551-.632zM125.153 75c-.545 0-.932-.113-1.16-.34a1.169 1.169 0 01-.323-.835v-.444c0-.33.108-.608.323-.835.228-.227.615-.34 1.16-.34.546 0 .926.113 1.143.34.228.227.342.506.342.835v.444c0 .33-.114.608-.342.835-.217.228-.597.342-1.143.342V75zm0-6.341c-.545 0-.932-.114-1.16-.34a1.172 1.172 0 01-.323-.836v-.444c0-.329.108-.607.323-.835.228-.228.615-.342 1.16-.342.546 0 .926.114 1.143.342.228.228.342.506.342.835v.444c0 .33-.114.608-.342.835-.217.227-.597.34-1.143.34zm16.66 4.672h2.813v-5.798h-2.982v-1.5h2.984V64.45c0-.66.182-1.194.545-1.604.364-.42.932-.63 1.706-.63h2.965v1.5h-3.359v2.318h3.359v1.502h-3.359v5.796h2.969v1.501h-7.641v-1.501zm10.19 0h2.336v-5.798h-2.336v-1.5h4.195v2.335h.103c.078-.306.192-.6.34-.885a2.57 2.57 0 01.563-.734c.227-.216.505-.386.835-.51.329-.137.715-.206 1.158-.206h1.059v1.773h-1.74c-.682 0-1.238.205-1.671.614-.432.398-.647.938-.647 1.62v3.29h3.188v1.502h-7.383v-1.501zm14.23 1.703c-.671 0-1.273-.107-1.807-.322a3.665 3.665 0 01-1.347-.92 4.08 4.08 0 01-.835-1.433 5.915 5.915 0 01-.29-1.909c0-.705.097-1.342.29-1.91a4.393 4.393 0 01.835-1.45c.364-.409.801-.721 1.312-.938a4.361 4.361 0 011.705-.323c.614 0 1.171.108 1.671.323.501.205.927.5 1.278.887.353.387.62.847.802 1.381.193.534.29 1.125.29 1.773v.699h-6.309v.29c0 .694.217 1.262.649 1.705.432.432 1.029.647 1.79.647.569 0 1.052-.119 1.45-.357.409-.25.738-.58.987-.989l1.16 1.024c-.295.51-.75.942-1.363 1.294-.603.353-1.359.53-2.268.53v-.002zm-.137-7.79c-.329 0-.635.057-.92.172a2.068 2.068 0 00-.716.493c-.193.205-.347.45-.461.734a2.487 2.487 0 00-.171.937v.12h4.417v-.172c0-.692-.199-1.244-.597-1.653-.386-.421-.904-.632-1.552-.632zm10.189 7.79c-.955 0-1.779-.153-2.471-.459-.683-.307-1.234-.716-1.654-1.227l1.143-1.023a4.18 4.18 0 001.294.971c.489.217 1.063.325 1.723.325.602 0 1.085-.103 1.45-.307.374-.205.561-.523.561-.955a.956.956 0 00-.102-.46.845.845 0 00-.29-.308 1.54 1.54 0 00-.444-.186 3.345 3.345 0 00-.511-.104l-1.398-.22a7.298 7.298 0 01-1.039-.222 3.72 3.72 0 01-.956-.426 2.477 2.477 0 01-.682-.734c-.17-.296-.255-.67-.255-1.125 0-.898.341-1.58 1.023-2.046.693-.466 1.602-.699 2.727-.699.818 0 1.523.125 2.115.375a3.997 3.997 0 011.501 1.006l-1.04 1.091c-.228-.261-.552-.5-.972-.716-.421-.228-.978-.342-1.671-.342-1.239 0-1.859.392-1.859 1.177 0 .375.131.637.392.784.273.137.591.228.954.273l1.398.222c.354.058.701.131 1.041.221.352.092.665.234.938.427.284.181.511.42.681.716.182.296.273.67.273 1.125 0 .886-.346 1.585-1.039 2.097-.682.5-1.626.751-2.831.751v-.002zm6.523-12.819h1.859v5.318h.086c.091-.227.204-.442.34-.647.147-.216.324-.398.528-.546.205-.158.444-.283.717-.374.272-.092.591-.138.954-.138.886 0 1.603.29 2.149.87.546.58.818 1.404.818 2.473v5.661H188.4v-5.388c0-1.398-.608-2.097-1.824-2.097a2.4 2.4 0 00-.699.103 1.834 1.834 0 00-.613.271c-.182.126-.33.285-.444.478a1.403 1.403 0 00-.153.665v5.967h-1.859V62.215zm9.132 3.818h1.587l.852 7.4h.152l1.314-7.4h1.807l1.294 7.4h.156l.868-7.4h1.519l-1.229 8.798h-2.284l-1.177-6.82h-.153l-1.193 6.82h-2.285l-1.228-8.798zm18.27 8.798c-.533 0-.937-.137-1.209-.41-.262-.272-.421-.63-.479-1.073h-.086a2.239 2.239 0 01-.935 1.243c-.445.297-1.013.445-1.706.445-.897 0-1.614-.233-2.149-.699-.534-.477-.801-1.131-.801-1.96 0-.853.313-1.501.938-1.944.636-.455 1.608-.682 2.917-.682h1.686v-.684c0-1.193-.631-1.79-1.892-1.79-.568 0-1.028.114-1.381.342a2.812 2.812 0 00-.887.87l-1.108-.904c.25-.478.67-.887 1.262-1.227.591-.353 1.353-.529 2.285-.529 1.114 0 1.989.267 2.624.801.637.534.956 1.307.956 2.318v4.417h1.108v1.468l-1.143-.002zm-3.887-1.16c.603 0 1.098-.137 1.485-.41.385-.272.578-.624.578-1.055v-1.278h-1.653c-1.341 0-2.011.403-2.011 1.208v.342c0 .398.141.7.424.905.285.192.677.288 1.177.288zm11.366 1.16c-.773 0-1.341-.205-1.705-.613-.364-.421-.545-.961-.545-1.62v-5.065h-2.71v-1.5h1.924c.331 0 .564-.062.699-.186.137-.137.206-.376.206-.717v-2.2h1.738v3.103h3.752v1.502h-3.752v5.796h3.752v1.501l-3.359-.001zm9.882.203c-.671 0-1.273-.107-1.807-.322a3.665 3.665 0 01-1.347-.92 4.05 4.05 0 01-.835-1.433 5.915 5.915 0 01-.29-1.909c0-.705.097-1.342.29-1.91a4.393 4.393 0 01.835-1.45c.364-.409.801-.721 1.312-.938a4.362 4.362 0 011.706-.323c.613 0 1.17.108 1.67.323.501.205.927.5 1.278.887.353.387.62.847.802 1.381.194.534.29 1.125.29 1.773v.699h-6.308v.29c0 .694.216 1.262.649 1.705.431.432 1.028.647 1.789.647.569 0 1.052-.119 1.45-.357.409-.25.738-.58.988-.989l1.16 1.024c-.296.51-.751.942-1.364 1.294-.603.353-1.359.53-2.268.53v-.002zm-.138-7.79c-.329 0-.635.057-.918.172a2.044 2.044 0 00-.717.493c-.193.205-.347.45-.461.734-.113.283-.17.595-.17.937v.12h4.417v-.172c0-.692-.2-1.244-.598-1.653-.386-.421-.904-.632-1.553-.632zm6.353 6.087h2.337v-5.798h-2.337v-1.5h4.195v2.335h.103c.08-.306.193-.6.34-.885.149-.284.336-.529.563-.734.228-.216.506-.386.835-.51.331-.137.717-.206 1.16-.206h1.057v1.773H240.3c-.682 0-1.239.205-1.67.614-.433.398-.649.938-.649 1.62v3.29h3.189v1.502h-7.382l-.002-1.501zM247.829 75c-.545 0-.932-.113-1.159-.34a1.164 1.164 0 01-.323-.835v-.444c0-.33.107-.608.323-.835.227-.227.614-.34 1.159-.34.546 0 .927.113 1.143.34.227.227.34.506.34.835v.444c0 .33-.113.608-.34.835-.216.228-.597.342-1.143.342V75zm6.456-8.967h1.857v1.502h.104c.261-.535.607-.95 1.039-1.246.432-.306.973-.46 1.62-.46 1.035 0 1.859.387 2.472 1.159.613.773.92 1.921.92 3.445 0 1.522-.307 2.67-.92 3.443-.613.773-1.437 1.16-2.472 1.16-.647 0-1.188-.148-1.62-.443-.432-.308-.778-.728-1.039-1.262h-.104v4.91h-1.857V66.033zm3.852 7.486c.706 0 1.245-.216 1.619-.649.387-.431.58-1.005.58-1.72v-1.434c0-.716-.193-1.29-.58-1.722-.374-.432-.913-.647-1.619-.647-.272 0-.528.034-.766.103-.239.067-.45.169-.632.306a1.595 1.595 0 00-.443.51 1.47 1.47 0 00-.154.7V71.9c0 .271.052.51.155.715.113.193.26.358.442.495.182.136.393.237.632.305.238.07.494.104.766.104zm6.456 1.312v-8.798h1.859v1.502h.084c.091-.228.205-.444.342-.65.147-.216.323-.397.528-.545.205-.158.444-.283.716-.374.273-.092.591-.138.955-.138.886 0 1.602.29 2.147.87.547.58.82 1.404.82 2.473v5.661h-1.859v-5.388c0-1.398-.608-2.097-1.824-2.097-.24 0-.473.034-.699.103a1.836 1.836 0 00-.615.271 1.48 1.48 0 00-.442.478 1.392 1.392 0 00-.155.665v5.967h-1.857zm18.508.954c0 .91-.38 1.58-1.141 2.013-.762.431-1.922.647-3.48.647-.76 0-1.402-.051-1.926-.153-.511-.091-.931-.228-1.26-.41-.319-.181-.552-.403-.701-.664a1.904 1.904 0 01-.203-.887c0-.478.13-.853.391-1.126.273-.26.654-.454 1.143-.578v-.172a1.788 1.788 0 01-.716-.477c-.17-.205-.256-.472-.256-.8 0-.432.148-.756.444-.972.295-.228.675-.399 1.141-.511v-.087a2.91 2.91 0 01-1.243-1.056c-.297-.455-.445-1-.445-1.638 0-.466.086-.886.257-1.26a2.68 2.68 0 01.716-.974 3.38 3.38 0 011.124-.63c.444-.147.939-.22 1.484-.22.614 0 1.165.096 1.654.29v-.29c0-.342.097-.626.29-.853.193-.228.489-.342.887-.342h1.602v1.467h-2.046v.41c.387.26.682.596.886 1.006.205.397.307.863.307 1.398 0 .465-.085.89-.255 1.277a2.784 2.784 0 01-.734.972 3.305 3.305 0 01-1.125.614 4.886 4.886 0 01-1.467.204c-.386 0-.749-.034-1.09-.102a2.194 2.194 0 00-.614.29.642.642 0 00-.307.563c0 .272.13.443.392.51.262.07.586.104.971.104h1.978c1.183 0 2.036.227 2.558.682.523.443.784 1.028.784 1.755zm-1.738.121a.858.858 0 00-.359-.716c-.238-.172-.67-.257-1.295-.257h-3.051c-.433.204-.649.534-.649.989 0 .33.136.614.409.852.284.24.75.36 1.398.36h1.381c.705 0 1.24-.109 1.603-.325.375-.205.563-.507.563-.905v.002zm-2.934-5.2c.603 0 1.046-.143 1.33-.427.285-.284.427-.665.427-1.142v-.461c0-.478-.142-.859-.427-1.143-.284-.284-.727-.426-1.329-.426-.603 0-1.046.142-1.329.426-.285.284-.428.665-.428 1.143v.46c0 .478.142.859.427 1.143.284.284.727.427 1.329.427zM43.693 96.471c-.66 0-1.25-.108-1.773-.323a3.714 3.714 0 01-1.312-.922 4.184 4.184 0 01-.82-1.45c-.181-.567-.272-1.203-.272-1.909 0-.704.09-1.34.273-1.908a4.184 4.184 0 01.82-1.45c.363-.397.8-.704 1.311-.92.523-.217 1.108-.325 1.757-.325.91 0 1.637.194 2.182.58.557.387.971.887 1.243 1.502l-1.448.783a2.106 2.106 0 00-.732-.971c-.319-.24-.734-.36-1.245-.36-.705 0-1.251.217-1.638.65-.386.42-.58.982-.58 1.688v1.465c0 .694.194 1.257.58 1.688.387.432.944.647 1.671.647.545 0 .989-.124 1.33-.374.352-.25.632-.591.836-1.024l1.364.836a3.71 3.71 0 01-1.295 1.519c-.58.385-1.332.578-2.252.578zm9.9 0c-.649 0-1.234-.108-1.757-.323a3.713 3.713 0 01-1.311-.922 4.184 4.184 0 01-.82-1.45c-.194-.567-.29-1.203-.29-1.909 0-.704.096-1.34.29-1.908a4.184 4.184 0 01.82-1.45c.363-.397.8-.704 1.311-.92.523-.217 1.108-.325 1.757-.325.648 0 1.228.108 1.738.325.523.216.96.523 1.312.92.365.398.644.881.837 1.45.194.568.29 1.204.29 1.909 0 .705-.096 1.342-.29 1.91a4.074 4.074 0 01-.835 1.45c-.353.397-.79.704-1.312.92-.512.215-1.092.323-1.74.323zm0-1.467c.682 0 1.221-.204 1.62-.613.41-.42.614-1.04.614-1.857v-1.331c0-.818-.205-1.432-.615-1.842-.398-.42-.937-.63-1.619-.63-.682 0-1.228.21-1.638.63-.397.41-.595 1.024-.595 1.842v1.329c0 .82.198 1.439.595 1.859.41.41.956.614 1.638.614v-.001zm6.54 1.263v-8.797h1.858v1.5h.086c.09-.228.204-.444.34-.648.148-.216.325-.398.53-.545.203-.16.442-.286.714-.377.273-.09.592-.136.957-.136.886 0 1.601.29 2.147.87.545.58.818 1.404.818 2.472v5.661h-1.857V90.88c0-1.398-.608-2.097-1.825-2.097-.24 0-.472.035-.699.104a1.904 1.904 0 00-.614.273c-.182.124-.33.283-.444.476a1.402 1.402 0 00-.153.666v5.967h-1.858zm14.434 0c-.773 0-1.34-.205-1.704-.614-.365-.42-.547-.96-.547-1.62V88.97h-2.71V87.47h1.926c.33 0 .563-.062.7-.187.136-.135.204-.374.204-.716v-2.199h1.739v3.103h3.75v1.5h-3.75v5.796h3.75v1.502h-3.358zm9.883.204c-.671 0-1.273-.108-1.807-.323a3.628 3.628 0 01-1.347-.922 4.061 4.061 0 01-.837-1.432c-.193-.568-.29-1.204-.29-1.91 0-.704.097-1.34.29-1.908a4.422 4.422 0 01.836-1.45c.363-.409.8-.721 1.311-.937a4.345 4.345 0 011.707-.325c.614 0 1.17.108 1.671.325.5.204.925.5 1.278.887.353.385.62.846.802 1.38.193.535.29 1.126.29 1.773v.7h-6.309v.29c0 .692.216 1.26.648 1.705.432.431 1.029.647 1.79.647.568 0 1.051-.12 1.45-.357.41-.251.739-.58.988-.99l1.16 1.022c-.295.512-.75.944-1.363 1.297-.603.352-1.36.528-2.268.528zm-.138-7.791c-.33 0-.636.056-.92.17a2.093 2.093 0 00-.717.494c-.193.205-.346.45-.459.734a2.474 2.474 0 00-.172.937v.12h4.418v-.172c0-.693-.2-1.243-.599-1.652-.385-.421-.902-.632-1.55-.632h-.001zm6.49 7.587v-8.797h1.858v1.5h.087c.09-.228.203-.444.34-.648.147-.216.323-.398.528-.545.205-.16.444-.286.716-.377.273-.09.591-.136.955-.136.886 0 1.602.29 2.149.87.545.58.818 1.404.818 2.472v5.661h-1.86V90.88c0-1.398-.607-2.097-1.823-2.097-.239 0-.472.035-.7.104a1.906 1.906 0 00-.612.273c-.182.124-.33.283-.444.476a1.39 1.39 0 00-.155.666v5.967h-1.857zm14.434 0c-.773 0-1.341-.205-1.705-.614-.364-.42-.545-.96-.545-1.62V88.97h-2.71V87.47h1.926c.329 0 .562-.062.699-.187.136-.135.204-.374.204-.716v-2.199h1.74v3.103h3.75v1.5h-3.75v5.796h3.75v1.502h-3.359zm9.694.17c-.546 0-.932-.114-1.158-.34a1.165 1.165 0 01-.325-.836v-.444c0-.329.108-.607.325-.835.226-.227.612-.34 1.158-.34.546 0 .927.113 1.142.34.228.228.342.506.342.835v.444c0 .329-.114.607-.342.835-.215.228-.596.342-1.142.342v-.002zm0-6.342c-.546 0-.932-.114-1.158-.342a1.162 1.162 0 01-.325-.835v-.442c0-.33.108-.609.325-.836.226-.227.612-.341 1.158-.341.546 0 .927.114 1.142.341.228.227.342.506.342.836v.442c0 .33-.114.608-.342.835-.215.228-.596.342-1.142.342zm40.484-6.785c.602 0 1.039.153 1.312.459.284.296.426.67.426 1.125v.94c0 .294-.034.555-.103.783-.057.227-.13.426-.221.597a3.46 3.46 0 01-.306.477c-.115.136-.223.267-.324.391-.194.228-.33.427-.409.597-.069.16-.104.33-.104.511 0 .74.711 1.11 2.132 1.11h1.415v1.33h-1.415c-1.42 0-2.13.369-2.13 1.107 0 .182.034.358.102.529.079.16.215.353.409.58.102.136.21.273.324.409.113.136.215.296.306.478.103.17.183.369.24.595.057.217.086.473.086.768v.938c0 .454-.143.83-.428 1.125-.273.307-.71.46-1.312.46h-3.003v-1.328h3.205v-1.093c0-.454-.068-.8-.204-1.039a4.875 4.875 0 00-.478-.716 7.758 7.758 0 01-.545-.768 1.759 1.759 0 01-.256-.955c0-.477.165-.858.494-1.142.341-.295.818-.483 1.433-.563v-.102c-.615-.08-1.092-.261-1.433-.546-.329-.295-.494-.682-.494-1.16 0-.363.085-.681.256-.954.17-.273.352-.528.545-.766.182-.228.341-.461.478-.7.136-.25.204-.603.204-1.057V84.64h-3.205v-1.33h3.003z" fill="#17335B"/>
    <text fill="#000" style="white-space:pre" font-family="Roboto" font-size="24" letter-spacing="0em">
      <tspan x="122" y="102.484">🐟</tspan>
    </text>
  </g>
  <defs>
    <clipPath id="clip0">
      <path fill="#fff" d="M0 0h300.912v126.783H0z"/>
    </clipPath>
  </defs>
</svg>
