<?xml version="1.0" encoding="utf-8"?>
<!DOCTYPE svg PUBLIC "-//W3C//DTD SVG 1.1//EN" "http://www.w3.org/Graphics/SVG/1.1/DTD/svg11.dtd">
<svg version="1.1" id="Layer_1" xmlns="http://www.w3.org/2000/svg" xmlns:xlink="http://www.w3.org/1999/xlink" x="0px" y="0px"
	 width="324px" height="324px" viewBox="0 0 324 324" enable-background="new 0 0 324 324" xml:space="preserve">
<rect fill="#FFFFFF" width="324" height="324"/>
<g>
	<g>
		<path fill="none" stroke="#1B80C4" stroke-width="3" stroke-miterlimit="10" d="M197.155,174.985
			C192.255,148.74,166.792,126,140,126"/>
		<g>
			<path fill="#1B80C4" d="M198,184c1.132-4.4,3.268-9.936,5.771-13.49l-6.829,3.304l-7.361-1.829
				C192.761,174.949,195.99,179.927,198,184z"/>
		</g>
	</g>
</g>
<g>
	<g>
		<path fill="none" stroke="#1B80C4" stroke-width="3" stroke-miterlimit="10" d="M68,54c123.079,0,163.802,49.864,165.913,156.947"
			/>
		<g>
			<path fill="#1B80C4" d="M234,220c-1.679-4.222-4.497-9.443-7.428-12.653l7.192,2.415l7.071-2.745
				C238.055,210.359,235.481,215.706,234,220z"/>
		</g>
	</g>
</g>
<path fill="none" stroke="#FFFFFF" stroke-width="8" stroke-miterlimit="10" d="M180,162c93.589,0,126,67.078,126,126"/>
<circle fill="#ABD5EE" stroke="#000000" stroke-miterlimit="10" cx="18" cy="18" r="9"/>
<circle fill="#ABD5EE" stroke="#000000" stroke-miterlimit="10" cx="54" cy="54" r="9"/>
<circle fill="#ABD5EE" stroke="#000000" stroke-miterlimit="10" cx="90" cy="90" r="9"/>
<circle fill="#ABD5EE" stroke="#000000" stroke-miterlimit="10" cx="126" cy="126" r="9"/>
<circle fill="#ABD5EE" stroke="#000000" stroke-miterlimit="10" cx="162" cy="162" r="9"/>
<circle fill="#ABD5EE" stroke="#000000" stroke-miterlimit="10" cx="198" cy="198" r="9"/>
<circle fill="#ABD5EE" stroke="#000000" stroke-miterlimit="10" cx="234" cy="234" r="9"/>
<circle fill="#ABD5EE" stroke="#000000" stroke-miterlimit="10" cx="270" cy="270" r="9"/>
<circle fill="#ABD5EE" stroke="#000000" stroke-miterlimit="10" cx="306" cy="306" r="9"/>
<g>
	<g>
		<line fill="none" stroke="#1B80C4" stroke-width="3" stroke-miterlimit="10" x1="27" y1="27" x2="38.599" y2="38.599"/>
		<g>
			<path fill="#1B80C4" d="M45,45c-4.13-1.895-9.774-3.725-14.11-4.021l6.869-3.22l3.219-6.868C41.275,35.228,43.105,40.872,45,45z"
				/>
		</g>
	</g>
</g>
<g>
	<g>
		<line fill="none" stroke="#1B80C4" stroke-width="3" stroke-miterlimit="10" x1="63" y1="63" x2="74.599" y2="74.599"/>
		<g>
			<path fill="#1B80C4" d="M81,81c-4.13-1.895-9.774-3.725-14.11-4.021l6.869-3.22l3.219-6.868C77.275,71.228,79.105,76.872,81,81z"
				/>
		</g>
	</g>
</g>
<g>
	<g>
		<line fill="none" stroke="#1B80C4" stroke-width="3" stroke-miterlimit="10" x1="135" y1="135" x2="146.599" y2="146.599"/>
		<g>
			<path fill="#1B80C4" d="M153,153c-4.13-1.895-9.774-3.725-14.11-4.021l6.869-3.22l3.219-6.868
				C149.275,143.228,151.105,148.872,153,153z"/>
		</g>
	</g>
</g>
<g>
	<g>
		<line fill="none" stroke="#1B80C4" stroke-width="3" stroke-miterlimit="10" x1="207" y1="207" x2="218.599" y2="218.599"/>
		<g>
			<path fill="#1B80C4" d="M225,225c-4.13-1.895-9.774-3.725-14.11-4.021l6.869-3.22l3.219-6.868
				C221.275,215.228,223.105,220.872,225,225z"/>
		</g>
	</g>
</g>
<g>
	<g>
		<line fill="none" stroke="#1B80C4" stroke-width="3" stroke-miterlimit="10" x1="243" y1="243" x2="254.599" y2="254.599"/>
		<g>
			<path fill="#1B80C4" d="M261,261c-4.13-1.895-9.774-3.725-14.11-4.021l6.869-3.22l3.219-6.868
				C257.275,251.228,259.105,256.872,261,261z"/>
		</g>
	</g>
</g>
<g>
	<g>
		<path fill="none" stroke="#1B80C4" stroke-width="3" stroke-miterlimit="10" d="M102.948,125.744C44.182,122.334,18,85.237,18,32"
			/>
		<g>
			<path fill="#1B80C4" d="M112,126c-4.204-1.723-9.396-4.596-12.574-7.561l2.339,7.217l-2.818,7.042
				C102.317,129.954,107.69,127.436,112,126z"/>
		</g>
	</g>
</g>
<g>
	<g>
		<path fill="none" stroke="#1B80C4" stroke-width="3" stroke-miterlimit="10" d="M246.946,269.767
			C180.617,266.25,162,223.607,162,176"/>
		<g>
			<path fill="#1B80C4" d="M256,270c-4.208-1.714-9.405-4.577-12.589-7.536l2.354,7.211l-2.805,7.047
				C246.325,273.972,251.693,271.444,256,270z"/>
		</g>
	</g>
</g>
<g>
	<g>
		<path fill="none" stroke="#1B80C4" stroke-width="3" stroke-miterlimit="10" d="M176,162c89.507,0,126.715,55.256,129.79,120.95"
			/>
		<g>
			<path fill="#1B80C4" d="M306,292c-1.722-4.205-4.594-9.397-7.558-12.576l7.216,2.341l7.042-2.817
				C309.956,282.318,307.436,287.69,306,292z"/>
		</g>
	</g>
</g>
<g>
	<g>
		<path fill="none" stroke="#1B80C4" stroke-width="3" stroke-miterlimit="10" d="M282.946,305.935
			C141.085,303.83,126,251.236,126,140"/>
		<g>
			<path fill="#1B80C4" d="M292,306c-4.242-1.628-9.496-4.384-12.74-7.277l2.5,7.162l-2.66,7.103
				C282.408,310.169,287.723,307.532,292,306z"/>
		</g>
	</g>
</g>
</svg>
