<svg xmlns="http://www.w3.org/2000/svg" viewBox="0 0 595.28 193.89"><path d="M126.643 160.431c-35.05.134-63.662-28.544-63.503-63.786.158-34.839 28.631-63.396 63.918-63.186 34.783.207 63.35 28.675 63.079 64.022-.265 34.685-28.545 63.062-63.494 62.95zm7.887-69.414l16.529 2.335 1.326-4.748-17.095-2.529c1.977-6.997 3.685-13.69 5.822-20.243.703-2.157 2.276-4.181 3.879-5.857 2.102-2.197 5.011-1.71 6.793.704.745 1.01 1.449 2.079 2.343 2.944 1.141 1.103 2.825 1.64 3.971.565.752-.705.729-2.364.799-3.61.028-.501-.563-1.092-.972-1.554-1.992-2.254-4.681-3.052-7.521-3.171-6.337-.266-10.883 2.966-14.454 7.849-3.538 4.838-5.09 10.529-6.779 16.152-.493 1.642-.915 3.306-1.409 5.106l-18.178-2.63-.632 4.826 17.761 2.732-2.306 9.721-16.975-2.371-.625 4.768 16.452 2.513c0 .613.066.971-.01 1.294-1.737 7.399-3.351 14.831-5.3 22.174-.93 3.502-2.427 6.881-5.338 9.342-2.396 2.025-5.028 1.688-6.83-.825-.813-1.134-1.493-2.477-2.568-3.271-.785-.579-2.533-.929-3.108-.463-.854.691-1.472 2.221-1.4 3.344.063.997 1.021 2.162 1.901 2.84 2.963 2.282 6.452 2.614 9.985 1.918 5.919-1.166 10.094-4.859 12.682-10.081 2.034-4.105 3.556-8.491 4.995-12.854 1.303-3.952 2.186-8.042 3.291-12.21l17.329 2.513 1.38-4.78-17.748-2.61 2.01-9.833z" fill="#00d2d6"/><path d="M134.53 91.017l-2.011 9.833 17.748 2.61-1.38 4.78-17.329-2.513c-1.105 4.168-1.988 8.258-3.291 12.21-1.439 4.363-2.962 8.749-4.995 12.854-2.587 5.222-6.762 8.915-12.682 10.081-3.533.696-7.023.364-9.985-1.918-.88-.678-1.838-1.843-1.901-2.84-.072-1.123.547-2.653 1.4-3.344.576-.466 2.324-.116 3.108.463 1.075.794 1.755 2.137 2.568 3.271 1.803 2.513 4.434 2.85 6.83.825 2.911-2.46 4.409-5.839 5.338-9.342 1.949-7.343 3.563-14.775 5.3-22.174.076-.324.01-.681.01-1.294l-16.452-2.513.625-4.768 16.975 2.371 2.306-9.721-17.761-2.732.632-4.826 18.178 2.63c.495-1.801.916-3.464 1.409-5.106 1.688-5.623 3.241-11.314 6.779-16.152 3.571-4.884 8.118-8.115 14.454-7.849 2.84.119 5.529.918 7.521 3.171.409.462 1 1.053.972 1.554-.071 1.246-.047 2.905-.799 3.61-1.146 1.074-2.83.537-3.971-.565-.894-.865-1.598-1.934-2.343-2.944-1.782-2.414-4.69-2.901-6.793-.704-1.603 1.675-3.176 3.7-3.879 5.857-2.137 6.553-3.845 13.246-5.822 20.243l17.095 2.529-1.326 4.748-16.528-2.335z" fill="#fff"/><g><path d="M359.201 107.462h-33.418c-.157.477-.349.786-.348 1.095.013 8.847 5.176 18.4 18.332 17.039a35.304 35.304 0 0011.24-3.086c.49-.226 1.006-.395 1.855-.724l1.123 5.529c-.646.41-1.188.821-1.784 1.123-6.521 3.297-13.431 4.26-20.578 3.013-7.815-1.364-13.214-5.973-15.84-13.38-3.096-8.734-2.971-17.552 1.175-25.971 4.431-8.998 13.833-13.256 23.589-11.013 3.572.821 6.64 2.545 9.084 5.295 5.327 5.993 6.112 13.174 5.57 21.08zm-33.541-5.773c2.603.646 24.507.531 26.237-.12.297-2.318-.213-4.582-.926-6.794-3.31-10.272-15.529-10.067-20.549-4.707-3.032 3.236-4.437 7.126-4.762 11.621zM434.538 131.917c-10.015.041-17.534-5.044-20.905-14.517-2.969-8.344-2.769-16.738 1.063-24.779 4.626-9.707 13.584-12.827 22.968-11.905 12.574 1.236 18.219 11.242 19.442 20.623.6 4.6.433 9.155-.75 13.65-2.85 10.823-10.672 16.882-21.818 16.928zm-15.26-26.032c-.005 4.602.611 8.701 2.587 12.497 2.795 5.37 7.374 7.679 13.287 7.577 5.925-.102 10.315-2.791 12.555-8.284 3.068-7.526 3.079-15.209.126-22.806-1.118-2.876-3.04-5.176-5.82-6.669-7.773-4.174-17.15-.989-20.7 7.049-1.549 3.506-2.054 7.212-2.035 10.636zM261.93 64.554v6.309H233.492l-.196 23.855h27.099v6.034c-.857.084-1.71.238-2.564.24-7.261.018-14.521.001-21.782.016-.934.002-1.867.127-3.035.212v29.493h-7.08s-.78-63.658-.081-66.161c11.942.002 23.943.002 36.077.002zM525.243 130.759h6.7c.094-.867.23-21.239.188-30.697-.015-3.433-.262-6.846-1.442-10.12-1.628-4.517-4.675-7.528-9.388-8.661-7.938-1.907-14.906-.045-20.865 5.548-.519.487-1.035.979-1.863 1.762l-1.173-6.777h-5.724v48.901h6.968c.052-1.147.305-22.086.4-31.608.026-2.644 1.023-4.945 2.66-6.968 3.393-4.194 8.001-5.585 13.16-5.415 6.685.22 9.213 3.557 9.892 9.997l.487 34.038zM404.146 83.814l-1.903 5.342c-2.348-.705-4.527-1.49-6.769-1.998-2.687-.609-5.439-.707-8.151-.064-5.098 1.209-8.429 4.523-10.211 9.276-2.442 6.514-2.499 13.183-.086 19.717 2.71 7.34 9.393 10.964 17.315 9.466 2.802-.53 5.518-1.511 8.627-2.386l.829 5.149c-1.874 1.694-3.964 2.37-6.084 2.899-3.706.924-7.49.964-11.234.39-7.402-1.136-12.829-5.185-15.85-11.985-3.898-8.775-3.895-17.791.094-26.507 4.57-9.983 13.462-13.339 23.316-12.382 2.36.229 8.929 2.501 10.107 3.083zM301.632 114.081c.006 2.184.151 4.387.466 6.547.503 3.449 2.369 5.026 5.826 5.162 1.094.043 2.193.007 3.288-.046 1.074-.052 2.145-.171 3.503-.284l.381 5.605c-5.17.781-10.092 1.537-14.882-.709-2.3-1.079-5.59-2.952-5.769-14.286-.167-10.074-.078-20.151-.078-30.228 0-6.786.014-13.572.022-20.358v-3.158l6.965-.42.278 52.175zM272.876 81.805h6.746v48.977h-6.603l-.143-48.977zM469.906 81.83h6.872v48.889h-6.872V81.83zM272.741 71.94v-8.165h6.819l.113 8.165h-6.932zM469.926 71.885V63.8h6.779v8.085h-6.779z"/></g></svg>
