<?xml version="1.0" encoding="utf-8"?>
<!-- Generator: Adobe Illustrator 24.1.2, SVG Export Plug-In . SVG Version: 6.00 Build 0)  -->
<svg version="1.1"
	 id="Layer_1" xmlns:cc="http://creativecommons.org/ns#" xmlns:dc="http://purl.org/dc/elements/1.1/" xmlns:osb="http://www.openswatchbook.org/uri/2009/osb" xmlns:rdf="http://www.w3.org/1999/02/22-rdf-syntax-ns#"
	 xmlns="http://www.w3.org/2000/svg" xmlns:xlink="http://www.w3.org/1999/xlink" x="0px" y="0px" viewBox="0 0 1199.2 512"
	 style="enable-background:new 0 0 1199.2 512;" xml:space="preserve">
<style type="text/css">
	.st0{fill:#35777A;}
	.st1{fill:#43979B;}
	.st2{fill:#3F898D;}
	.st3{fill:#51B8BC;}
	.st4{fill:#459DA2;}
	.st5{fill:#64C1C8;}
	.st6{fill:#212121;}
</style>
<g>
	<g>
		<path class="st0" d="M232.8,512l219.6-126.8V131.7L232.8,258.4V512z"/>
		<path class="st1" d="M232.8,512V258.4L13.2,131.7v253.6L232.8,512z"/>
		<path class="st2" d="M13.2,131.7l219.6,126.8l219.6-126.8L232.7,4.9L13.2,131.7z"/>
	</g>
	<g>
		<path class="st3" d="M210.1,35.5L50.9,127.4c0.3,2.8,0.3,5.7,0,8.5l159.2,91.9c13.4-9.9,31.7-9.9,45.2,0l159.2-91.9
			c-0.3-2.8-0.3-5.7,0-8.5L255.3,35.5C241.9,45.4,223.5,45.4,210.1,35.5L210.1,35.5z"/>
		<path class="st4" d="M429.8,161.3l-159.4,92.9c1.9,16.6-7.3,32.4-22.6,39.1l0.2,182.8c2.6,1.1,5.1,2.6,7.4,4.3l159.2-91.9
			c-1.9-16.6,7.3-32.4,22.6-39.1V165.5C434.5,164.4,432.1,163,429.8,161.3L429.8,161.3z"/>
		<path class="st5" d="M35.8,162.3c-2.3,1.7-4.8,3.1-7.4,4.3v183.8c15.3,6.7,24.4,22.5,22.6,39.1l159.2,91.9
			c2.3-1.7,4.8-3.1,7.4-4.3V293.3c-15.3-6.7-24.4-22.5-22.6-39.1L35.8,162.3L35.8,162.3z"/>
	</g>
	<g>
		<path class="st6" d="M583.5,132.3h-29.9v253.6h29.9V132.3z"/>
		<path class="st6" d="M714,253.9c-11.5,0-44.1-0.3-44.1-0.3v-94.5h52.5c31.3,0,53.8,12.2,53.8,42
			C776.2,226.5,771.7,253.9,714,253.9z M669.9,385.9V277.6c12.9,1,30.9,2.4,41.3,2.4c75,0,95.5-32.3,95.5-79.5
			c0-49-36.8-68.1-85.1-68.1h-82v253.6H669.9z"/>
		<path class="st6" d="M973.4,243.9H868.9v-85.5h108l2.4-26.1H839v253.6h29.9V268.2h104.6L973.4,243.9L973.4,243.9z"/>
		<path class="st6" d="M1015.3,344.6c22.6,11.1,51.8,19.5,84.1,19.5c36.1,0,55.2-16,55.2-50.4c0-20.5-8.3-34.4-40.6-42.4l-50-12.5
			c-35.1-8.7-57-27.4-57-61.1c0-49.3,36.8-70.5,92.4-70.5c30.9,0,58.7,7.6,76.1,18.4l-8.7,23.6c-13.5-7.3-40.3-16-67.7-16
			c-40.3,0-61.5,13.5-61.5,42.7c0,19.8,13.2,30.6,37.5,36.5l47.6,11.5c37.9,9,62.2,27.4,62.2,68.8c0,52.8-35.4,77.1-87.2,77.1
			c-44.1,0-75.7-11.5-91-20.8L1015.3,344.6L1015.3,344.6z"/>
	</g>
</g>
</svg>
