<svg xmlns="http://www.w3.org/2000/svg" xmlns:xlink="http://www.w3.org/1999/xlink" width="83.2" height="94.4"><style>.st1{clip-path:url(#SVGID_2_)}</style><g opacity=".9"><defs><path id="SVGID_1_" d="M4.1 4.9h75v85h-75z"/></defs><clipPath id="SVGID_2_"><use xlink:href="#SVGID_1_" overflow="visible"/></clipPath><g class="st1"><defs><path id="SVGID_3_" d="M41.6 47.2l.3-.2L78 26 41.4 5 5 26.1l36.6 21.1z"/></defs><clipPath id="SVGID_4_"><use xlink:href="#SVGID_3_" overflow="visible"/></clipPath><g clip-path="url(#SVGID_4_)"><defs><path id="SVGID_5_" d="M4.1 4.9h75v85h-75z"/></defs><clipPath id="SVGID_6_"><use xlink:href="#SVGID_5_" overflow="visible"/></clipPath><path d="M0 0h83v52.2H0z" clip-path="url(#SVGID_6_)" fill="#843594"/></g></g><g class="st1"><defs><path id="SVGID_7_" d="M41.8 89.4l-.2-42.2L5 26.1l.2 42.2z"/></defs><clipPath id="SVGID_8_"><use xlink:href="#SVGID_7_" overflow="visible"/></clipPath><g clip-path="url(#SVGID_8_)"><defs><path id="SVGID_9_" d="M4.1 4.9h75v85h-75z"/></defs><clipPath id="SVGID_10_"><use xlink:href="#SVGID_9_" overflow="visible"/></clipPath><path d="M0 21.1h46.8v73.2H0z" clip-path="url(#SVGID_10_)" fill="#652977"/></g></g><g class="st1"><defs><path id="SVGID_11_" d="M78 26L41.9 47l-.3.2.2 42.2 36.4-21.2L78 26z"/></defs><clipPath id="SVGID_12_"><use xlink:href="#SVGID_11_" overflow="visible"/></clipPath><g clip-path="url(#SVGID_12_)"><defs><path id="SVGID_13_" d="M4.1 4.9h75v85h-75z"/></defs><clipPath id="SVGID_14_"><use xlink:href="#SVGID_13_" overflow="visible"/></clipPath><path d="M36.6 21h46.6v73.3H36.6z" clip-path="url(#SVGID_14_)" fill="#4d1f5b"/></g></g></g></svg>
