<svg id="Layer_1" data-name="Layer 1" xmlns="http://www.w3.org/2000/svg" viewBox="0 0 1162.95 1268"><defs><style>.cls-1{fill:#474646;}.cls-2{opacity:0.9;}.cls-3{fill:#bec831;}.cls-4{fill:#a1a938;}.cls-5{fill:#999b37;}.cls-6{fill:#cc2a65;}.cls-7{fill:#a21d4c;}.cls-8{fill:#b62454;}.cls-9{fill:#c8d92b;}.cls-10{fill:#c2d02f;}.cls-11{fill:#b9be33;}.cls-12{fill:#33b4d7;}.cls-13{fill:#209ac5;}.cls-14{fill:#0f8cae;}.cls-15{fill:#94d6e3;}.cls-16{fill:#73ccdd;}.cls-17{fill:#3bafbb;}.cls-18{fill:#ee539a;}.cls-19{fill:#d01b68;}.cls-20{fill:#ec0f68;}.cls-21{fill:#a159a2;}.cls-22{fill:#772a86;}.cls-23{fill:#8e3b95;}.cls-24{fill:#f7af19;}.cls-25{fill:#f2901f;}.cls-26{fill:#f9a120;}.cls-27{fill:#f6dd03;}.cls-28{fill:#f9bb1d;}.cls-29{fill:#e9ae20;}.cls-30{fill:#31838b;}.cls-31{fill:#22626c;}.cls-32{fill:#1b4b56;}.cls-33{fill:#833593;}.cls-34{fill:#652977;}.cls-35{fill:#4d1f5b;}</style></defs><title>libp2p_basic_color_horizont</title><path class="cls-1" d="M365.48,910.41v99.51H345.89V910.41Z"/><path class="cls-1" d="M404.34,920c0,13.52-23.32,13.52-23.32,0S404.34,906.43,404.34,920Zm-21.54,19.5v70.47h19.76V939.45Z"/><path class="cls-1" d="M440.12,910.41v38.87C444.82,942,457.93,938,466.35,938c23.32,0,40.64,12.53,40.64,36.73,0,23.06-17.65,36.72-41.13,36.72-9.71,0-19.59-2.85-25.74-11.24l-1.29,9.68H420.37V910.41Zm1.3,64.35c0,12.66,10.68,20.64,23.15,20.64,12.63,0,22.67-8.4,22.67-20.64,0-12.67-10-20.5-22.67-20.5C452.1,954.26,441.42,962.51,441.42,974.76Z"/><path class="cls-1" d="M524,1039.24V939.6h7.77v16.65c6.32-10.68,19.11-17.65,34.65-17.65,21.7.71,38.86,13.52,38.86,36.16,0,23.63-18.13,36.44-40.64,36.44-13.6,0-26.23-5.84-33-17.51v45.55Zm73.35-64.48c0-19.79-14.57-29.47-32.71-29.47-18.62,0-32.38,12.38-32.38,29.61s14.09,29.61,32.38,29.61S597.34,994.54,597.34,974.76Z"/><path class="cls-1" d="M623.25,936.75c0-21.21,23-27.76,43.39-27.76,20.89,0,43.55,7.55,43.72,29,0,20.36-23.32,28.61-43.4,28.61-16.51.14-35.78,3.56-35.78,20.64v15.23h78v7.41H622.6v-22.5c0-22.06,23.15-27.75,44-27.75,14.73,0,35.62-4.84,35.62-21.64,0-17.51-20.08-22.35-35.62-22.35-15.06,0-34.81,4.56-34.81,21.07Z"/><path class="cls-1" d="M731.73,1039.24V939.6h7.77v16.65c6.32-10.68,19.11-17.65,34.65-17.65,21.7.71,38.86,13.52,38.86,36.16,0,23.63-18.13,36.44-40.64,36.44-13.6,0-26.23-5.84-33-17.51v45.55Zm73.35-64.48c0-19.79-14.58-29.47-32.71-29.47-18.62,0-32.38,12.38-32.38,29.61s14.09,29.61,32.38,29.61C790.5,1004.51,805.08,994.54,805.08,974.76Z"/><g class="cls-2"><g class="cls-2"><polygon class="cls-3" points="581.46 556.31 581.46 556.31 581.47 556.31 582.25 555.86 674.53 502.76 581.45 448.59 581.45 448.59 581.45 448.59 581.45 448.59 581.45 448.59 488.36 502.13 581.45 556.3 581.46 556.31"/><polygon class="cls-4" points="581.45 664.02 581.45 664.01 581.45 664.02 581.45 556.32 581.45 556.32 488.35 502.13 488.35 502.13 488.35 502.13 488.35 609.83 488.39 609.86 581.45 664.02"/><polygon class="cls-5" points="674.55 502.77 582.25 555.86 581.46 556.31 581.45 556.32 581.45 664.02 581.47 664.03 581.47 664.03 581.47 664.03 674.56 610.5 674.56 610.5 674.56 610.49 674.56 502.78 674.55 502.78 674.55 502.77"/></g><g class="cls-2"><polygon class="cls-6" points="674.57 610.48 674.57 610.48 674.58 610.49 675.36 610.03 767.64 556.93 674.56 502.77 674.56 502.77 674.56 502.77 674.56 502.77 674.56 502.77 581.47 556.3 674.56 610.48 674.57 610.48"/><polygon class="cls-7" points="674.56 718.19 674.56 718.19 674.56 718.19 674.56 610.49 674.56 610.49 581.46 556.31 581.46 556.31 581.46 556.31 581.46 664.01 581.5 664.03 674.56 718.19"/><polygon class="cls-8" points="767.66 556.95 675.36 610.03 674.57 610.48 674.56 610.49 674.56 718.19 674.58 718.2 674.58 718.2 674.58 718.2 767.67 664.67 767.67 664.67 767.67 664.66 767.67 556.95 767.66 556.95 767.66 556.95"/></g><g class="cls-2"><polygon class="cls-6" points="767.68 664.67 767.68 664.67 767.68 664.67 768.47 664.22 860.75 611.13 767.67 556.96 767.67 556.96 767.67 556.96 767.67 556.96 767.67 556.96 674.58 610.49 767.67 664.67 767.68 664.67"/><polygon class="cls-7" points="767.67 772.38 767.67 772.38 767.67 772.38 767.67 664.68 767.67 664.68 674.57 610.5 674.57 610.5 674.56 610.5 674.56 718.2 674.61 718.22 767.67 772.38"/><polygon class="cls-8" points="860.77 611.14 768.46 664.22 767.68 664.67 767.67 664.68 767.67 772.38 767.69 772.39 767.69 772.39 767.69 772.39 860.78 718.86 860.78 718.86 860.78 718.85 860.78 611.14 860.77 611.14 860.77 611.14"/></g><g class="cls-2"><polygon class="cls-9" points="488.37 609.84 488.38 609.84 488.38 609.84 489.16 609.39 581.45 556.29 488.37 502.12 488.37 502.12 488.37 502.12 488.36 502.12 488.36 502.12 395.27 555.66 488.36 609.83 488.37 609.84"/><polygon class="cls-10" points="488.36 717.55 488.36 717.54 488.37 717.55 488.37 609.85 488.37 609.85 395.26 555.66 395.26 555.66 395.26 555.66 395.26 663.36 395.3 663.39 488.36 717.55"/><polygon class="cls-11" points="581.47 556.3 489.16 609.39 488.37 609.84 488.36 609.85 488.36 717.55 488.38 717.56 488.38 717.56 488.38 717.56 581.47 664.03 581.47 664.03 581.47 664.01 581.47 556.31 581.47 556.31 581.47 556.3"/></g><g class="cls-2"><polygon class="cls-6" points="581.49 664.01 581.49 664.01 581.49 664.01 582.27 663.56 674.56 610.46 581.48 556.3 581.48 556.3 581.48 556.3 581.48 556.3 581.47 556.3 488.38 609.83 581.47 664 581.49 664.01"/><polygon class="cls-7" points="581.47 771.72 581.47 771.72 581.48 771.72 581.48 664.02 581.48 664.02 488.37 609.84 488.37 609.84 488.37 609.84 488.37 717.54 488.41 717.56 581.47 771.72"/><polygon class="cls-8" points="674.58 610.48 582.27 663.56 581.49 664.01 581.48 664.02 581.48 771.72 581.49 771.73 581.49 771.73 581.5 771.73 674.58 718.2 674.58 718.2 674.58 718.19 674.58 610.48 674.58 610.48 674.58 610.48"/></g><g class="cls-2"><polygon class="cls-12" points="674.59 718.2 674.59 718.2 674.6 718.2 675.38 717.75 767.66 664.65 674.59 610.49 674.58 610.49 674.58 610.49 674.58 610.49 674.58 610.49 581.49 664.02 674.58 718.2 674.59 718.2"/><polygon class="cls-13" points="674.58 825.91 674.58 825.91 674.58 825.91 674.58 718.21 674.58 718.21 581.48 664.03 581.48 664.03 581.48 664.03 581.48 771.73 581.52 771.75 674.58 825.91"/><polygon class="cls-14" points="767.69 664.67 675.38 717.75 674.59 718.2 674.58 718.21 674.58 825.91 674.6 825.92 674.6 825.92 674.6 825.92 767.69 772.39 767.69 772.39 767.69 772.38 767.69 664.67 767.69 664.67 767.69 664.67"/></g><g class="cls-2"><polygon class="cls-15" points="395.29 663.37 395.29 663.37 395.29 663.37 396.07 662.92 488.36 609.82 395.28 555.65 395.28 555.66 395.28 555.66 395.27 555.65 395.27 555.65 302.18 609.19 395.27 663.36 395.29 663.37"/><polygon class="cls-16" points="395.27 771.08 395.27 771.08 395.28 771.08 395.28 663.38 395.28 663.38 302.17 609.2 302.17 609.2 302.17 609.2 302.17 716.9 302.21 716.92 395.27 771.08"/><polygon class="cls-17" points="488.38 609.84 396.07 662.92 395.29 663.37 395.27 663.38 395.27 771.08 395.29 771.09 395.3 771.09 395.3 771.09 488.38 717.56 488.38 717.56 488.38 717.55 488.38 609.84 488.38 609.84 488.38 609.84"/></g><g class="cls-2"><polygon class="cls-15" points="488.4 717.55 488.4 717.54 488.4 717.55 489.19 717.1 581.47 664 488.39 609.83 488.39 609.83 488.39 609.83 488.39 609.83 488.39 609.83 395.3 663.36 488.39 717.54 488.4 717.55"/><polygon class="cls-16" points="488.39 825.25 488.39 825.25 488.39 825.25 488.39 717.55 488.39 717.55 395.29 663.37 395.29 663.37 395.28 663.37 395.28 771.07 395.33 771.1 488.39 825.25"/><polygon class="cls-17" points="581.49 664.01 489.18 717.1 488.4 717.55 488.39 717.55 488.39 825.25 488.41 825.26 488.41 825.26 488.41 825.26 581.5 771.73 581.5 771.73 581.5 771.72 581.5 664.01 581.49 664.01 581.49 664.01"/></g><g class="cls-2"><polygon class="cls-12" points="581.5 771.74 581.51 771.74 581.51 771.74 582.29 771.29 674.58 718.19 581.5 664.02 581.5 664.02 581.5 664.02 581.49 664.02 581.49 664.02 488.4 717.55 581.49 771.73 581.5 771.74"/><polygon class="cls-13" points="581.49 879.44 581.49 879.44 581.5 879.44 581.5 771.74 581.5 771.74 488.39 717.56 488.39 717.56 488.39 717.56 488.39 825.26 488.43 825.29 581.49 879.44"/><polygon class="cls-14" points="674.6 718.2 582.29 771.28 581.5 771.74 581.49 771.74 581.49 879.44 581.51 879.45 581.51 879.45 581.52 879.46 674.6 825.92 674.6 825.92 674.6 825.91 674.6 718.2 674.6 718.21 674.6 718.2"/></g></g><g class="cls-2"><polygon class="cls-3" points="581.5 438.14 581.5 438.13 581.51 438.14 582.29 437.69 674.6 384.63 581.54 330.42 581.54 330.42 581.54 330.42 581.54 330.42 581.53 330.42 488.42 383.92 581.49 438.13 581.5 438.14"/><polygon class="cls-4" points="581.45 545.84 581.45 545.84 581.45 545.84 581.5 438.14 581.5 438.14 488.41 383.92 488.41 383.92 488.41 383.92 488.37 491.62 488.41 491.65 581.45 545.84"/><polygon class="cls-5" points="674.62 384.64 582.29 437.69 581.5 438.14 581.49 438.14 581.45 545.84 581.47 545.85 581.47 545.85 581.47 545.85 674.58 492.36 674.58 492.36 674.58 492.35 674.62 384.64 674.62 384.64 674.62 384.64"/></g><g class="cls-2"><polygon class="cls-18" points="674.59 492.35 674.6 492.35 674.6 492.35 675.38 491.9 767.69 438.84 674.63 384.63 674.63 384.63 674.63 384.63 674.63 384.63 674.63 384.63 581.51 438.13 674.58 492.34 674.59 492.35"/><polygon class="cls-19" points="674.54 600.05 674.54 600.05 674.54 600.05 674.59 492.36 674.59 492.36 581.5 438.13 581.5 438.14 581.5 438.13 581.46 545.84 581.5 545.86 674.54 600.05"/><polygon class="cls-20" points="767.71 438.85 675.38 491.9 674.59 492.35 674.58 492.36 674.54 600.05 674.56 600.07 674.56 600.07 674.56 600.07 767.67 546.57 767.67 546.57 767.67 546.56 767.71 438.85 767.71 438.86 767.71 438.85"/></g><g class="cls-2"><polygon class="cls-21" points="767.68 546.58 767.68 546.57 767.68 546.58 768.47 546.13 860.77 493.06 767.72 438.86 767.71 438.86 767.71 438.86 767.71 438.86 767.71 438.86 674.6 492.36 767.67 546.57 767.68 546.58"/><polygon class="cls-22" points="767.62 654.28 767.62 654.28 767.63 654.28 767.67 546.58 767.67 546.58 674.59 492.36 674.59 492.36 674.59 492.36 674.54 600.06 674.59 600.09 767.62 654.28"/><polygon class="cls-23" points="860.79 493.08 768.46 546.13 767.68 546.58 767.67 546.58 767.62 654.28 767.64 654.29 767.64 654.29 767.65 654.29 860.75 600.8 860.75 600.8 860.75 600.79 860.8 493.08 860.79 493.08 860.79 493.08"/></g><g class="cls-2"><polygon class="cls-9" points="488.4 491.63 488.4 491.63 488.4 491.63 489.18 491.18 581.49 438.12 488.43 383.91 488.43 383.91 488.43 383.91 488.43 383.91 488.43 383.91 395.31 437.41 488.38 491.62 488.4 491.63"/><polygon class="cls-10" points="488.34 599.33 488.34 599.33 488.34 599.34 488.39 491.63 488.39 491.63 395.31 437.41 395.31 437.42 395.3 437.41 395.26 545.11 395.3 545.14 488.34 599.33"/><polygon class="cls-11" points="581.51 438.13 489.18 491.18 488.4 491.63 488.38 491.63 488.34 599.33 488.36 599.35 488.36 599.35 488.36 599.35 581.47 545.85 581.47 545.85 581.47 545.84 581.51 438.13 581.51 438.13 581.51 438.13"/></g><g class="cls-2"><polygon class="cls-24" points="581.49 545.84 581.49 545.84 581.49 545.84 582.27 545.39 674.58 492.33 581.52 438.12 581.52 438.12 581.52 438.12 581.52 438.12 581.52 438.12 488.4 491.62 581.47 545.83 581.49 545.84"/><polygon class="cls-25" points="581.43 653.55 581.43 653.54 581.43 653.55 581.48 545.85 581.48 545.85 488.4 491.63 488.4 491.63 488.39 491.63 488.35 599.33 488.39 599.35 581.43 653.55"/><polygon class="cls-26" points="674.6 492.34 582.27 545.39 581.49 545.84 581.48 545.85 581.43 653.55 581.45 653.56 581.45 653.56 581.45 653.56 674.56 600.07 674.56 600.07 674.56 600.05 674.61 492.34 674.6 492.35 674.6 492.34"/></g><g class="cls-2"><polygon class="cls-21" points="674.57 600.07 674.57 600.07 674.58 600.07 675.36 599.62 767.66 546.56 674.61 492.35 674.61 492.35 674.61 492.35 674.6 492.35 674.6 492.35 581.49 545.85 674.56 600.06 674.57 600.07"/><polygon class="cls-22" points="674.51 707.77 674.51 707.77 674.52 707.77 674.56 600.08 674.56 600.07 581.48 545.85 581.48 545.86 581.48 545.85 581.43 653.55 581.48 653.58 674.51 707.77"/><polygon class="cls-23" points="767.68 546.57 675.36 599.62 674.57 600.07 674.56 600.07 674.52 707.77 674.53 707.78 674.53 707.78 674.54 707.79 767.65 654.29 767.65 654.29 767.65 654.28 767.69 546.57 767.68 546.57 767.68 546.57"/></g><g class="cls-2"><polygon class="cls-27" points="395.29 545.12 395.29 545.12 395.29 545.12 396.07 544.67 488.38 491.61 395.32 437.41 395.32 437.41 395.32 437.41 395.32 437.41 395.32 437.41 302.2 490.9 395.27 545.12 395.29 545.12"/><polygon class="cls-28" points="395.23 652.83 395.23 652.83 395.24 652.83 395.28 545.13 395.28 545.13 302.2 490.91 302.2 490.91 302.19 490.91 302.15 598.61 302.19 598.63 395.23 652.83"/><polygon class="cls-29" points="488.4 491.63 396.07 544.67 395.29 545.12 395.28 545.13 395.23 652.83 395.25 652.84 395.25 652.84 395.25 652.84 488.36 599.35 488.36 599.35 488.36 599.34 488.41 491.63 488.4 491.63 488.4 491.63"/></g><g class="cls-2"><polygon class="cls-24" points="488.38 599.33 488.38 599.33 488.38 599.34 489.17 598.88 581.47 545.82 488.41 491.62 488.41 491.62 488.41 491.62 488.41 491.62 488.41 491.62 395.3 545.11 488.36 599.33 488.38 599.33"/><polygon class="cls-25" points="488.32 707.04 488.32 707.04 488.32 707.04 488.37 599.34 488.37 599.34 395.29 545.12 395.29 545.12 395.28 545.12 395.24 652.82 395.28 652.85 488.32 707.04"/><polygon class="cls-26" points="581.49 545.84 489.16 598.88 488.38 599.33 488.37 599.34 488.32 707.04 488.34 707.05 488.34 707.05 488.34 707.05 581.45 653.56 581.45 653.56 581.45 653.55 581.5 545.84 581.49 545.84 581.49 545.84"/></g><g class="cls-2"><polygon class="cls-30" points="581.46 653.56 581.46 653.56 581.47 653.56 582.25 653.11 674.55 600.05 581.5 545.85 581.5 545.85 581.5 545.85 581.49 545.85 581.49 545.85 488.38 599.34 581.45 653.55 581.46 653.56"/><polygon class="cls-31" points="581.4 761.27 581.4 761.27 581.41 761.27 581.45 653.57 581.45 653.57 488.37 599.35 488.37 599.35 488.37 599.35 488.32 707.05 488.37 707.08 581.4 761.27"/><polygon class="cls-32" points="674.58 600.07 582.25 653.11 581.46 653.56 581.45 653.57 581.41 761.27 581.42 761.28 581.43 761.28 581.43 761.28 674.54 707.79 674.54 707.79 674.54 707.77 674.58 600.07 674.58 600.07 674.58 600.07"/></g><g class="cls-2"><polygon class="cls-3" points="581.46 319.96 581.46 319.96 581.47 319.96 582.25 319.51 674.53 266.41 581.45 212.25 581.45 212.25 581.45 212.25 581.45 212.25 581.45 212.25 488.36 265.78 581.45 319.95 581.46 319.96"/><polygon class="cls-4" points="581.45 427.67 581.45 427.67 581.45 427.67 581.45 319.97 581.45 319.97 488.35 265.79 488.35 265.79 488.35 265.79 488.35 373.49 488.39 373.51 581.45 427.67"/><polygon class="cls-5" points="674.55 266.43 582.25 319.51 581.46 319.96 581.45 319.97 581.45 427.67 581.47 427.68 581.47 427.68 581.47 427.68 674.56 374.15 674.56 374.15 674.56 374.14 674.56 266.43 674.55 266.43 674.55 266.43"/></g><g class="cls-2"><polygon class="cls-18" points="674.57 374.14 674.57 374.13 674.58 374.14 675.36 373.69 767.64 320.59 674.56 266.42 674.56 266.42 674.56 266.42 674.56 266.42 674.56 266.42 581.47 319.95 674.56 374.13 674.57 374.14"/><polygon class="cls-19" points="674.56 481.84 674.56 481.84 674.56 481.84 674.56 374.14 674.56 374.14 581.46 319.96 581.46 319.96 581.46 319.96 581.46 427.66 581.5 427.69 674.56 481.84"/><polygon class="cls-20" points="767.66 320.6 675.36 373.69 674.57 374.14 674.56 374.14 674.56 481.84 674.58 481.85 674.58 481.85 674.58 481.86 767.67 428.32 767.67 428.32 767.67 428.31 767.67 320.6 767.66 320.61 767.66 320.6"/></g><g class="cls-2"><polygon class="cls-21" points="767.68 428.33 767.68 428.32 767.68 428.33 768.47 427.88 860.75 374.78 767.67 320.61 767.67 320.61 767.67 320.61 767.67 320.61 767.67 320.61 674.58 374.14 767.67 428.32 767.68 428.33"/><polygon class="cls-22" points="767.67 536.03 767.67 536.03 767.67 536.03 767.67 428.33 767.67 428.33 674.57 374.15 674.57 374.15 674.56 374.15 674.56 481.85 674.61 481.88 767.67 536.03"/><polygon class="cls-23" points="860.77 374.79 768.46 427.88 767.68 428.33 767.67 428.33 767.67 536.03 767.69 536.04 767.69 536.04 767.69 536.04 860.78 482.51 860.78 482.51 860.78 482.5 860.78 374.79 860.77 374.8 860.77 374.79"/></g><g class="cls-2"><polygon class="cls-9" points="488.37 373.49 488.38 373.49 488.38 373.49 489.16 373.04 581.45 319.94 488.37 265.77 488.37 265.78 488.37 265.78 488.36 265.77 488.36 265.77 395.27 319.31 488.36 373.48 488.37 373.49"/><polygon class="cls-10" points="488.36 481.2 488.36 481.2 488.37 481.2 488.37 373.5 488.37 373.5 395.26 319.32 395.26 319.32 395.26 319.32 395.26 427.02 395.3 427.04 488.36 481.2"/><polygon class="cls-11" points="581.47 319.96 489.16 373.04 488.37 373.49 488.36 373.5 488.36 481.2 488.38 481.21 488.38 481.21 488.38 481.21 581.47 427.68 581.47 427.68 581.47 427.67 581.47 319.96 581.47 319.96 581.47 319.96"/></g><g class="cls-2"><polygon class="cls-9" points="581.49 427.67 581.49 427.66 581.49 427.67 582.27 427.22 674.56 374.12 581.48 319.95 581.48 319.95 581.48 319.95 581.48 319.95 581.47 319.95 488.38 373.48 581.47 427.66 581.49 427.67"/><polygon class="cls-10" points="581.47 535.37 581.47 535.37 581.48 535.37 581.48 427.67 581.48 427.67 488.37 373.49 488.37 373.49 488.37 373.49 488.37 481.19 488.41 481.22 581.47 535.37"/><polygon class="cls-11" points="674.58 374.13 582.27 427.21 581.49 427.67 581.48 427.67 581.48 535.37 581.49 535.38 581.49 535.38 581.5 535.38 674.58 481.85 674.58 481.85 674.58 481.84 674.58 374.13 674.58 374.13 674.58 374.13"/></g><g class="cls-2"><polygon class="cls-33" points="674.59 481.86 674.59 481.85 674.6 481.86 675.38 481.4 767.4 427.86 674.06 374.14 674.06 374.14 674.06 374.14 674.06 374.14 674.06 374.14 581.23 428.13 674.58 481.85 674.59 481.86"/><polygon class="cls-34" points="675.1 589.56 675.1 589.56 675.11 589.56 674.58 481.86 674.58 481.86 581.22 428.13 581.22 428.13 581.22 428.13 581.74 535.83 581.78 535.86 675.1 589.56"/><polygon class="cls-35" points="767.42 427.87 675.38 481.4 674.59 481.86 674.58 481.86 675.1 589.56 675.12 589.57 675.12 589.57 675.13 589.57 767.95 535.59 767.95 535.59 767.95 535.58 767.43 427.87 767.42 427.88 767.42 427.87"/></g><g class="cls-2"><polygon class="cls-27" points="395.29 427.02 395.29 427.02 395.29 427.03 396.07 426.57 488.36 373.48 395.28 319.31 395.28 319.31 395.28 319.31 395.27 319.31 395.27 319.31 302.18 372.84 395.27 427.02 395.29 427.02"/><polygon class="cls-28" points="395.27 534.73 395.27 534.73 395.28 534.73 395.28 427.03 395.28 427.03 302.17 372.85 302.17 372.85 302.17 372.85 302.17 480.55 302.21 480.57 395.27 534.73"/><polygon class="cls-29" points="488.38 373.49 396.07 426.57 395.29 427.02 395.27 427.03 395.27 534.73 395.29 534.74 395.3 534.74 395.3 534.74 488.38 481.21 488.38 481.21 488.38 481.2 488.38 373.49 488.38 373.49 488.38 373.49"/></g><g class="cls-2"><polygon class="cls-24" points="488.4 481.2 488.4 481.2 488.4 481.2 489.19 480.75 581.47 427.65 488.39 373.48 488.39 373.48 488.39 373.48 488.39 373.48 488.39 373.48 395.3 427.02 488.39 481.19 488.4 481.2"/><polygon class="cls-25" points="488.39 588.9 488.39 588.9 488.39 588.91 488.39 481.21 488.39 481.2 395.29 427.02 395.29 427.02 395.28 427.02 395.28 534.72 395.33 534.75 488.39 588.9"/><polygon class="cls-26" points="581.49 427.66 489.18 480.75 488.4 481.2 488.39 481.2 488.39 588.9 488.41 588.92 488.41 588.92 488.41 588.92 581.5 535.39 581.5 535.39 581.5 535.37 581.5 427.67 581.49 427.67 581.49 427.66"/></g><g class="cls-2"><polygon class="cls-24" points="581.5 535.39 581.51 535.39 581.51 535.39 582.29 534.94 674.58 481.84 581.5 427.67 581.5 427.67 581.5 427.67 581.49 427.67 581.49 427.67 488.4 481.21 581.49 535.38 581.5 535.39"/><polygon class="cls-25" points="581.49 643.1 581.49 643.09 581.5 643.1 581.5 535.4 581.5 535.39 488.39 481.21 488.39 481.21 488.39 481.21 488.39 588.91 488.43 588.94 581.49 643.1"/><polygon class="cls-26" points="674.6 481.85 582.29 534.94 581.5 535.39 581.49 535.39 581.49 643.1 581.51 643.11 581.51 643.11 581.52 643.11 674.6 589.58 674.6 589.58 674.6 589.56 674.6 481.86 674.6 481.86 674.6 481.85"/></g></svg>