<svg id="Layer_1" data-name="Layer 1" xmlns="http://www.w3.org/2000/svg" viewBox="0 0 1162.95 1268"><defs><style>.cls-1{fill:#474646}.cls-2{opacity:.9}.cls-3{fill:#bec831}.cls-4{fill:#a1a938}.cls-5{fill:#999b37}.cls-6{fill:#cc2a65}.cls-7{fill:#a21d4c}.cls-8{fill:#b62454}.cls-9{fill:#c8d92b}.cls-10{fill:#c2d02f}.cls-11{fill:#b9be33}.cls-12{fill:#33b4d7}.cls-13{fill:#209ac5}.cls-14{fill:#0f8cae}.cls-15{fill:#94d6e3}.cls-16{fill:#73ccdd}.cls-17{fill:#3bafbb}.cls-18{fill:#ee539a}.cls-19{fill:#d01b68}.cls-20{fill:#ec0f68}.cls-21{fill:#a159a2}.cls-22{fill:#772a86}.cls-23{fill:#8e3b95}.cls-24{fill:#f7af19}.cls-25{fill:#f2901f}.cls-26{fill:#f9a120}.cls-27{fill:#f6dd03}.cls-28{fill:#f9bb1d}.cls-29{fill:#e9ae20}</style></defs><path class="cls-1" d="M365.48 910.41v99.51h-19.59v-99.51zM404.34 920c0 13.52-23.32 13.52-23.32 0s23.32-13.57 23.32 0zm-21.54 19.5v70.47h19.76v-70.52zM440.12 910.41v38.87c4.7-7.28 17.81-11.28 26.23-11.28 23.32 0 40.64 12.53 40.64 36.73 0 23.06-17.65 36.72-41.13 36.72-9.71 0-19.59-2.85-25.74-11.24l-1.29 9.68h-18.46v-99.48zm1.3 64.35c0 12.66 10.68 20.64 23.15 20.64 12.63 0 22.67-8.4 22.67-20.64 0-12.67-10-20.5-22.67-20.5-12.47 0-23.15 8.25-23.15 20.5zM524 1039.24V939.6h7.77v16.65c6.32-10.68 19.11-17.65 34.65-17.65 21.7.71 38.86 13.52 38.86 36.16 0 23.63-18.13 36.44-40.64 36.44-13.6 0-26.23-5.84-33-17.51v45.55zm73.35-64.48c0-19.79-14.57-29.47-32.71-29.47-18.62 0-32.38 12.38-32.38 29.61s14.09 29.61 32.38 29.61 32.7-9.97 32.7-29.75zM623.25 936.75c0-21.21 23-27.76 43.39-27.76 20.89 0 43.55 7.55 43.72 29 0 20.36-23.32 28.61-43.4 28.61-16.51.14-35.78 3.56-35.78 20.64v15.23h78v7.41H622.6v-22.5c0-22.06 23.15-27.75 44-27.75 14.73 0 35.62-4.84 35.62-21.64 0-17.51-20.08-22.35-35.62-22.35-15.06 0-34.81 4.56-34.81 21.07zM731.73 1039.24V939.6h7.77v16.65c6.32-10.68 19.11-17.65 34.65-17.65 21.7.71 38.86 13.52 38.86 36.16 0 23.63-18.13 36.44-40.64 36.44-13.6 0-26.23-5.84-33-17.51v45.55zm73.35-64.48c0-19.79-14.58-29.47-32.71-29.47-18.62 0-32.38 12.38-32.38 29.61s14.09 29.61 32.38 29.61c18.13 0 32.71-9.97 32.71-29.75z"/><g class="cls-2"><g class="cls-2"><path class="cls-3" d="M581.46 556.31h.01l.78-.45 92.28-53.1-93.08-54.17-93.09 53.54 93.09 54.17.01.01z"/><path class="cls-4" d="M581.45 664.02v-.01.01-107.7l-93.1-54.19v107.7l.04.03 93.06 54.16z"/><path class="cls-5" d="M674.55 502.77l-92.3 53.09-.79.45-.01.01v107.7l.02.01 93.09-53.53V502.78h-.01v-.01z"/></g><g class="cls-2"><path class="cls-6" d="M674.57 610.48l.01.01.78-.46 92.28-53.1-93.08-54.16-93.09 53.53 93.09 54.18h.01z"/><path class="cls-7" d="M674.56 718.19v-107.7l-93.1-54.18v107.7l.04.02 93.06 54.16z"/><path class="cls-8" d="M767.66 556.95l-92.3 53.08-.79.45-.01.01v107.7l.02.01 93.09-53.53V556.95h-.01z"/></g><g class="cls-2"><path class="cls-6" d="M767.68 664.67l.79-.45 92.28-53.09-93.08-54.17-93.09 53.53 93.09 54.18h.01z"/><path class="cls-7" d="M767.67 772.38v-107.7l-93.1-54.18h-.01v107.7l.05.02 93.06 54.16z"/><path class="cls-8" d="M860.77 611.14l-92.31 53.08-.78.45-.01.01v107.7l.02.01 93.09-53.53V611.14h-.01z"/></g><g class="cls-2"><path class="cls-9" d="M488.37 609.84h.01l.78-.45 92.29-53.1-93.08-54.17h-.01l-93.09 53.54 93.09 54.17.01.01z"/><path class="cls-10" d="M488.36 717.55v-.01l.01.01v-107.7l-93.11-54.19v107.7l.04.03 93.06 54.16z"/><path class="cls-11" d="M581.47 556.3l-92.31 53.09-.79.45-.01.01v107.7l.02.01 93.09-53.53V556.3z"/></g><g class="cls-2"><path class="cls-6" d="M581.49 664.01l.78-.45 92.29-53.1-93.08-54.16h-.01l-93.09 53.53L581.47 664l.02.01z"/><path class="cls-7" d="M581.47 771.72h.01v-107.7l-93.11-54.18v107.7l.04.02 93.06 54.16z"/><path class="cls-8" d="M674.58 610.48l-92.31 53.08-.78.45-.01.01v107.7l.01.01h.01l93.08-53.53V610.48z"/></g><g class="cls-2"><path class="cls-12" d="M674.59 718.2h.01l.78-.45 92.28-53.1-93.07-54.16h-.01l-93.09 53.53 93.09 54.18h.01z"/><path class="cls-13" d="M674.58 825.91v-107.7l-93.1-54.18v107.7l.04.02 93.06 54.16z"/><path class="cls-14" d="M767.69 664.67l-92.31 53.08-.79.45-.01.01v107.7l.02.01 93.09-53.53V664.67z"/></g><g class="cls-2"><path class="cls-15" d="M395.29 663.37l.78-.45 92.29-53.1-93.08-54.17v.01l-.01-.01-93.09 53.54 93.09 54.17.02.01z"/><path class="cls-16" d="M395.27 771.08h.01v-107.7l-93.11-54.18v107.7l.04.02 93.06 54.16z"/><path class="cls-17" d="M488.38 609.84l-92.31 53.08-.78.45-.02.01v107.7l.02.01h.01l93.08-53.53V609.84z"/></g><g class="cls-2"><path class="cls-15" d="M488.4 717.55v-.01.01l.79-.45 92.28-53.1-93.08-54.17-93.09 53.53 93.09 54.18.01.01z"/><path class="cls-16" d="M488.39 825.25v-107.7l-93.1-54.18h-.01v107.7l.05.03 93.06 54.15z"/><path class="cls-17" d="M581.49 664.01l-92.31 53.09-.78.45h-.01v107.7l.02.01 93.09-53.53V664.01h-.01z"/></g><g class="cls-2"><path class="cls-12" d="M581.5 771.74h.01l.78-.45 92.29-53.1-93.08-54.17h-.01l-93.09 53.53 93.09 54.18.01.01z"/><path class="cls-13" d="M581.49 879.44h.01v-107.7l-93.11-54.18v107.7l.04.03 93.06 54.15z"/><path class="cls-14" d="M674.6 718.2l-92.31 53.08-.79.46h-.01v107.7l.02.01.01.01 93.08-53.54V718.2v.01-.01z"/></g></g><g class="cls-2"><path class="cls-3" d="M581.5 438.14v-.01l.01.01.78-.45 92.31-53.06-93.06-54.21h-.01l-93.11 53.5 93.07 54.21.01.01z"/><path class="cls-4" d="M581.45 545.84l.05-107.7-93.09-54.22-.04 107.7.04.03 93.04 54.19z"/><path class="cls-5" d="M674.62 384.64l-92.33 53.05-.79.45h-.01l-.04 107.7.02.01 93.11-53.49v-.01l.04-107.71z"/></g><g class="cls-2"><path class="cls-18" d="M674.59 492.35h.01l.78-.45 92.31-53.06-93.06-54.21-93.12 53.5 93.07 54.21.01.01z"/><path class="cls-19" d="M674.54 600.05l.05-107.69-93.09-54.23v.01-.01l-.04 107.71.04.02 93.04 54.19z"/><path class="cls-20" d="M767.71 438.85l-92.33 53.05-.79.45-.01.01-.04 107.69.02.02 93.11-53.5v-.01l.04-107.71v.01-.01z"/></g><g class="cls-2"><path class="cls-21" d="M767.68 546.58v-.01.01l.79-.45 92.3-53.07-93.05-54.2h-.01l-93.11 53.5 93.07 54.21.01.01z"/><path class="cls-22" d="M767.62 654.28h.01l.04-107.7-93.08-54.22-.05 107.7.05.03 93.03 54.19z"/><path class="cls-23" d="M860.79 493.08l-92.33 53.05-.78.45h-.01l-.05 107.7.02.01h.01l93.1-53.49v-.01l.05-107.71h-.01z"/></g><g class="cls-2"><path class="cls-9" d="M488.4 491.63l.78-.45 92.31-53.06-93.06-54.21-93.12 53.5 93.07 54.21.02.01z"/><path class="cls-10" d="M488.34 599.33v.01l.05-107.71-93.08-54.22v.01l-.01-.01-.04 107.7.04.03 93.04 54.19z"/><path class="cls-11" d="M581.51 438.13l-92.33 53.05-.78.45h-.02l-.04 107.7.02.02 93.11-53.5v-.01l.04-107.71z"/></g><g class="cls-2"><path class="cls-24" d="M581.49 545.84l.78-.45 92.31-53.06-93.06-54.21-93.12 53.5 93.07 54.21.02.01z"/><path class="cls-25" d="M581.43 653.55v-.01.01l.05-107.7-93.08-54.22h-.01l-.04 107.7.04.02 93.04 54.2z"/><path class="cls-26" d="M674.6 492.34l-92.33 53.05-.78.45-.01.01-.05 107.7.02.01 93.11-53.49v-.02l.05-107.71-.01.01v-.01z"/></g><g class="cls-2"><path class="cls-21" d="M674.57 600.07h.01l.78-.45 92.3-53.06-93.05-54.21h-.01l-93.11 53.5 93.07 54.21.01.01z"/><path class="cls-22" d="M674.51 707.77h.01l.04-107.69v-.01l-93.08-54.22v.01-.01l-.05 107.7.05.03 93.03 54.19z"/><path class="cls-23" d="M767.68 546.57l-92.32 53.05-.79.45h-.01l-.04 107.7.01.01.01.01 93.11-53.5v-.01l.04-107.71h-.01z"/></g><g class="cls-2"><path class="cls-27" d="M395.29 545.12l.78-.45 92.31-53.06-93.06-54.2-93.12 53.49 93.07 54.22h.02z"/><path class="cls-28" d="M395.23 652.83h.01l.04-107.7-93.08-54.22h-.01l-.04 107.7.04.02 93.04 54.2z"/><path class="cls-29" d="M488.4 491.63l-92.33 53.04-.78.45-.01.01-.05 107.7.02.01 93.11-53.49v-.01l.05-107.71h-.01z"/></g><g class="cls-2"><path class="cls-24" d="M488.38 599.33v.01l.79-.46 92.3-53.06-93.06-54.2-93.11 53.49 93.06 54.22h.02z"/><path class="cls-25" d="M488.32 707.04l.05-107.7-93.08-54.22h-.01l-.04 107.7.04.03 93.04 54.19z"/><path class="cls-26" d="M581.49 545.84l-92.33 53.04-.78.45-.01.01-.05 107.7.02.01 93.11-53.49v-.01l.05-107.71h-.01z"/></g><g class="cls-2"><path fill="#31838b" d="M581.46 653.56h.01l.78-.45 92.3-53.06-93.05-54.2h-.01l-93.11 53.49 93.07 54.21.01.01z"/><path fill="#22626c" d="M581.4 761.27h.01l.04-107.7-93.08-54.22-.05 107.7.05.03 93.03 54.19z"/><path fill="#1b4b56" d="M674.58 600.07l-92.33 53.04-.79.45-.01.01-.04 107.7.01.01h.01l93.11-53.49v-.02l.04-107.7z"/></g><g class="cls-2"><path class="cls-3" d="M581.46 319.96h.01l.78-.45 92.28-53.1-93.08-54.16-93.09 53.53 93.09 54.17.01.01z"/><path class="cls-4" d="M581.45 427.67v-107.7l-93.1-54.18v107.7l.04.02 93.06 54.16z"/><path class="cls-5" d="M674.55 266.43l-92.3 53.08-.79.45-.01.01v107.7l.02.01 93.09-53.53V266.43h-.01z"/></g><g class="cls-2"><path class="cls-18" d="M674.57 374.14v-.01l.01.01.78-.45 92.28-53.1-93.08-54.17-93.09 53.53 93.09 54.18.01.01z"/><path class="cls-19" d="M674.56 481.84v-107.7l-93.1-54.18v107.7l.04.03 93.06 54.15z"/><path class="cls-20" d="M767.66 320.6l-92.3 53.09-.79.45h-.01v107.7l.02.01v.01l93.09-53.54V320.6l-.01.01v-.01z"/></g><g class="cls-2"><path class="cls-21" d="M767.68 428.33v-.01.01l.79-.45 92.28-53.1-93.08-54.17-93.09 53.53 93.09 54.18.01.01z"/><path class="cls-22" d="M767.67 536.03v-107.7l-93.1-54.18h-.01v107.7l.05.03 93.06 54.15z"/><path class="cls-23" d="M860.77 374.79l-92.31 53.09-.78.45h-.01v107.7l.02.01 93.09-53.53V374.79l-.01.01v-.01z"/></g><g class="cls-2"><path class="cls-9" d="M488.37 373.49h.01l.78-.45 92.29-53.1-93.08-54.17v.01l-.01-.01-93.09 53.54 93.09 54.17.01.01z"/><path class="cls-10" d="M488.36 481.2h.01V373.5l-93.11-54.18v107.7l.04.02 93.06 54.16z"/><path class="cls-11" d="M581.47 319.96l-92.31 53.08-.79.45-.01.01v107.7l.02.01 93.09-53.53V319.96z"/></g><g class="cls-2"><path class="cls-9" d="M581.49 427.67v-.01.01l.78-.45 92.29-53.1-93.08-54.17h-.01l-93.09 53.53 93.09 54.18.02.01z"/><path class="cls-10" d="M581.47 535.37h.01v-107.7l-93.11-54.18v107.7l.04.03 93.06 54.15z"/><path class="cls-11" d="M674.58 374.13l-92.31 53.08-.78.46h-.01v107.7l.01.01h.01l93.08-53.53V374.13z"/></g><g class="cls-2"><path fill="#833593" d="M674.59 481.86v-.01l.01.01.78-.46 92.02-53.54-93.34-53.72-92.83 53.99 93.35 53.72.01.01z"/><path fill="#652977" d="M675.1 589.56h.01l-.53-107.7-93.36-53.73.52 107.7.04.03 93.32 53.7z"/><path fill="#4d1f5b" d="M767.42 427.87l-92.04 53.53-.79.46h-.01l.52 107.7.02.01h.01l92.82-53.98v-.01l-.52-107.71-.01.01v-.01z"/></g><g class="cls-2"><path class="cls-27" d="M395.29 427.02v.01l.78-.46 92.29-53.09-93.08-54.17h-.01l-93.09 53.53 93.09 54.18h.02z"/><path class="cls-28" d="M395.27 534.73h.01v-107.7l-93.11-54.18v107.7l.04.02 93.06 54.16z"/><path class="cls-29" d="M488.38 373.49l-92.31 53.08-.78.45-.02.01v107.7l.02.01h.01l93.08-53.53V373.49z"/></g><g class="cls-2"><path class="cls-24" d="M488.4 481.2l.79-.45 92.28-53.1-93.08-54.17-93.09 53.54 93.09 54.17.01.01z"/><path class="cls-25" d="M488.39 588.9v.01V481.2l-93.1-54.18h-.01v107.7l.05.03 93.06 54.15z"/><path class="cls-26" d="M581.49 427.66l-92.31 53.09-.78.45h-.01v107.7l.02.02 93.09-53.53V427.67h-.01v-.01z"/></g><g class="cls-2"><path class="cls-24" d="M581.5 535.39h.01l.78-.45 92.29-53.1-93.08-54.17h-.01l-93.09 53.54 93.09 54.17.01.01z"/><path class="cls-25" d="M581.49 643.1v-.01l.01.01V535.39l-93.11-54.18v107.7l.04.03 93.06 54.16z"/><path class="cls-26" d="M674.6 481.85l-92.31 53.09-.79.45h-.01V643.1l.02.01h.01l93.08-53.53V481.85z"/></g></svg>
