<svg xmlns="http://www.w3.org/2000/svg" xmlns:xlink="http://www.w3.org/1999/xlink" width="83.1" height="140.6"><style>.st0{opacity:.9;enable-background:new}.st1{clip-path:url(#SVGID_2_)}.st8{clip-path:url(#SVGID_16_)}</style><g class="st0"><defs><path id="SVGID_1_" d="M4.5 50.3h74v86h-74z"/></defs><clipPath id="SVGID_2_"><use xlink:href="#SVGID_1_" overflow="visible"/></clipPath><g class="st1"><defs><path id="SVGID_3_" d="M41.5 93.5l.3-.2L78 72.5 41.5 51.3 5 72.2l36.5 21.3z"/></defs><clipPath id="SVGID_4_"><use xlink:href="#SVGID_3_" overflow="visible"/></clipPath><g clip-path="url(#SVGID_4_)"><defs><path id="SVGID_5_" d="M4.5 50.3h74v86h-74z"/></defs><clipPath id="SVGID_6_"><use xlink:href="#SVGID_5_" overflow="visible"/></clipPath><path d="M0 46.3h83v52.2H0z" clip-path="url(#SVGID_6_)" fill="#ee549a"/></g></g><g class="st1"><defs><path id="SVGID_7_" d="M41.5 135.6V93.5L5 72.2v42.2z"/></defs><clipPath id="SVGID_8_"><use xlink:href="#SVGID_7_" overflow="visible"/></clipPath><g clip-path="url(#SVGID_8_)"><defs><path id="SVGID_9_" d="M4.5 50.3h74v86h-74z"/></defs><clipPath id="SVGID_10_"><use xlink:href="#SVGID_9_" overflow="visible"/></clipPath><path d="M0 67.2h46.5v73.4H0z" clip-path="url(#SVGID_10_)" fill="#d01b67"/></g></g><g class="st1"><defs><path id="SVGID_11_" d="M78 72.5L41.8 93.3l-.3.2v42.1L78 114.7l.1-42.2H78z"/></defs><clipPath id="SVGID_12_"><use xlink:href="#SVGID_11_" overflow="visible"/></clipPath><g clip-path="url(#SVGID_12_)"><defs><path id="SVGID_13_" d="M4.5 50.3h74v86h-74z"/></defs><clipPath id="SVGID_14_"><use xlink:href="#SVGID_13_" overflow="visible"/></clipPath><path d="M36.5 67.5H83v73.1H36.5z" clip-path="url(#SVGID_14_)" fill="#ec1067"/></g></g></g><g class="st0"><defs><path id="SVGID_15_" d="M4.5 4.3h74v86h-74z"/></defs><clipPath id="SVGID_16_"><use xlink:href="#SVGID_15_" overflow="visible"/></clipPath><g class="st8"><defs><path id="SVGID_17_" d="M41.5 47.2l.3-.2L78 26.2 41.5 5 5 26l36.5 21.2z"/></defs><clipPath id="SVGID_18_"><use xlink:href="#SVGID_17_" overflow="visible"/></clipPath><g clip-path="url(#SVGID_18_)"><defs><path id="SVGID_19_" d="M4.5 4.3h74v86h-74z"/></defs><clipPath id="SVGID_20_"><use xlink:href="#SVGID_19_" overflow="visible"/></clipPath><path d="M0 0h83v52.2H0z" clip-path="url(#SVGID_20_)" fill="#ee549a"/></g></g><g class="st8"><defs><path id="SVGID_21_" d="M41.5 89.4V47.2L5 26v42.1z"/></defs><clipPath id="SVGID_22_"><use xlink:href="#SVGID_21_" overflow="visible"/></clipPath><g clip-path="url(#SVGID_22_)"><defs><path id="SVGID_23_" d="M4.5 4.3h74v86h-74z"/></defs><clipPath id="SVGID_24_"><use xlink:href="#SVGID_23_" overflow="visible"/></clipPath><path d="M0 21h46.5v73.4H0z" clip-path="url(#SVGID_24_)" fill="#d01b67"/></g></g><g class="st8"><defs><path id="SVGID_25_" d="M78 26.2L41.8 47l-.3.2v42.2l36.5-21V26.2z"/></defs><clipPath id="SVGID_26_"><use xlink:href="#SVGID_25_" overflow="visible"/></clipPath><g clip-path="url(#SVGID_26_)"><defs><path id="SVGID_27_" d="M4.5 4.3h74v86h-74z"/></defs><clipPath id="SVGID_28_"><use xlink:href="#SVGID_27_" overflow="visible"/></clipPath><path d="M36.5 21.2H83v73.1H36.5z" clip-path="url(#SVGID_28_)" fill="#ec1067"/></g></g></g></svg>
