<svg xmlns="http://www.w3.org/2000/svg" xmlns:xlink="http://www.w3.org/1999/xlink" width="83.1" height="94.4"><style>.st1{clip-path:url(#SVGID_2_)}</style><g opacity=".9"><defs><path id="SVGID_1_" d="M4.4 4.1h74v86h-74z"/></defs><clipPath id="SVGID_2_"><use xlink:href="#SVGID_1_" overflow="visible"/></clipPath><g class="st1"><defs><path id="SVGID_3_" d="M41.5 47.2l.3-.2L78 26.2 41.5 5 5 25.9l36.5 21.3z"/></defs><clipPath id="SVGID_4_"><use xlink:href="#SVGID_3_" overflow="visible"/></clipPath><g clip-path="url(#SVGID_4_)"><defs><path id="SVGID_5_" d="M4.4 4.1h74v86h-74z"/></defs><clipPath id="SVGID_6_"><use xlink:href="#SVGID_5_" overflow="visible"/></clipPath><path d="M0 0h83v52.2H0z" clip-path="url(#SVGID_6_)" fill="#31838c"/></g></g><g class="st1"><defs><path id="SVGID_7_" d="M41.5 89.4V47.2L5 26v42.1z"/></defs><clipPath id="SVGID_8_"><use xlink:href="#SVGID_7_" overflow="visible"/></clipPath><g clip-path="url(#SVGID_8_)"><defs><path id="SVGID_9_" d="M4.4 4.1h74v86h-74z"/></defs><clipPath id="SVGID_10_"><use xlink:href="#SVGID_9_" overflow="visible"/></clipPath><path d="M0 21h46.5v73.4H0z" clip-path="url(#SVGID_10_)" fill="#23626c"/></g></g><g class="st1"><defs><path id="SVGID_11_" d="M78 26.2L41.8 47l-.3.2v42.2l36.5-21 .1-42.2H78z"/></defs><clipPath id="SVGID_12_"><use xlink:href="#SVGID_11_" overflow="visible"/></clipPath><g clip-path="url(#SVGID_12_)"><defs><path id="SVGID_13_" d="M4.4 4.1h74v86h-74z"/></defs><clipPath id="SVGID_14_"><use xlink:href="#SVGID_13_" overflow="visible"/></clipPath><path d="M36.5 21.2H83v73.1H36.5z" clip-path="url(#SVGID_14_)" fill="#1b4b56"/></g></g></g></svg>
