<svg width="126" height="40" fill="none" xmlns="http://www.w3.org/2000/svg"><path d="M79.473 19.765c0-3.007 2.388-5.445 5.334-5.445 2.945 0 5.333 2.438 5.333 5.445M90.14 25.654c0 3.03-2.388 5.485-5.333 5.485M78.068 24.88c-2.344 0-4.245-2.389-4.245-5.334M84.795 24.95a5.322 5.322 0 01-5.322-5.323M59.347 19.68a5.322 5.322 0 1110.644 0M59.347 19.637v6.025M69.991 19.494v6.168M110.706 18.544v7.11M102.228 16.423v9.232M93.75 18.364v7.29M73.823 13.623v6.104M120.106 25.002h-1.225M85.882 24.95H84.73M84.915 31.14h-2.403M90.14 19.712v6.106M113.6 19.817c0-3.006 2.388-5.444 5.333-5.444 2.946 0 5.334 2.438 5.334 5.444M118.922 25.002a5.322 5.322 0 01-5.322-5.322M124.266 19.68v6.105M93.75 18.632c0-2.375 1.897-4.3 4.239-4.3 2.341 0 4.239 1.925 4.239 4.3" stroke="#000" stroke-width="1.534" stroke-miterlimit="10"/><path d="M102.228 18.61c0-2.374 1.897-4.3 4.239-4.3 2.341 0 4.239 1.926 4.239 4.3" stroke="#000" stroke-width="1.534" stroke-miterlimit="10"/><path fill-rule="evenodd" clip-rule="evenodd" d="M72.746 11.15a1.05 1.05 0 112.102 0 1.05 1.05 0 01-2.102 0z" fill="#000"/><path d="M56.806 20.28l-6.319-.008M53.816 24.966H50.65M45.398 19.782c0-3.007 2.388-5.445 5.334-5.445 2.945 0 5.309 2.235 5.309 5.242M50.72 24.966a5.322 5.322 0 01-5.322-5.322" stroke="#000" stroke-width="1.534" stroke-miterlimit="10"/><path d="M25.54 15.412l-7.62-4.616-7.756 4.616 7.633 4.396 7.743-4.396z" fill="#E72E9D"/><path d="M18.059 28.771l7.694-4.098.227-9.138-7.984 4.488.063 8.748z" fill="#20B1F9"/><path d="M18.038 28.943l-.31-8.935-7.711-4.444-.307 8.798 8.328 4.581z" fill="#095198"/><path d="M34.107 29.663v-19.33M1.601 29.66V10.337M17.623 38.994l16.7-9.724M1.375 10.733L18.09 1M18.093 39L1.378 29.267M17.873 20.042l16.075-9.36M17.827 20.043L1.755 10.684M34.339 10.737L17.625 1.005M25.755 24.83v-9.568M9.954 24.836v-9.564M17.932 29.125l8.055-4.69M9.795 15.527l8.281-4.821M17.777 29.126l-8.053-4.689M25.91 15.525l-8.282-4.821" stroke="#000" stroke-width=".933" stroke-miterlimit="10"/><path d="M18.497 4.355a.648.648 0 11-1.295 0 .648.648 0 011.295 0zM18.497 7.605a.648.648 0 11-1.295 0 .648.648 0 011.295 0zM5.167 27.74a.648.648 0 11-1.296 0 .648.648 0 011.296 0zM7.904 26.206a.648.648 0 11-1.296 0 .648.648 0 011.296 0zM31.89 27.72a.648.648 0 11-1.295 0 .648.648 0 011.296 0zM29.165 26.186a.648.648 0 11-1.295 0 .648.648 0 011.295 0z" fill="#000"/><path d="M17.828 19.968v18.881" stroke="#000" stroke-width=".933" stroke-miterlimit="10"/></svg>
