<svg xmlns="http://www.w3.org/2000/svg" xmlns:xlink="http://www.w3.org/1999/xlink" viewBox="-237 340.3 119.6 161.6" width="119.6" height="161.6"><style>.st0{opacity:.9;enable-background:new}.st1{clip-path:url(#SVGID_2_)}.st2{clip-path:url(#SVGID_4_)}.st3{clip-path:url(#SVGID_6_);fill:#a159a3}.st4{clip-path:url(#SVGID_8_)}.st5{clip-path:url(#SVGID_10_);fill:#772a87}.st6{clip-path:url(#SVGID_12_)}.st7{clip-path:url(#SVGID_14_);enable-background:new}.st8{clip-path:url(#SVGID_16_)}.st9{clip-path:url(#SVGID_18_)}.st10{clip-path:url(#SVGID_20_);fill:#8f3c96}.st11{clip-path:url(#SVGID_22_)}.st12{clip-path:url(#SVGID_24_)}.st13{clip-path:url(#SVGID_26_);fill:#a159a3}.st14{clip-path:url(#SVGID_28_)}.st15{clip-path:url(#SVGID_30_);fill:#772a87}.st16{clip-path:url(#SVGID_32_)}.st17{clip-path:url(#SVGID_34_);fill:#8f3c96}.st18{clip-path:url(#SVGID_36_)}.st19{clip-path:url(#SVGID_38_)}.st20{clip-path:url(#SVGID_40_);fill:#a159a3}.st21{clip-path:url(#SVGID_42_)}.st22{clip-path:url(#SVGID_44_);fill:#772a87}.st23{clip-path:url(#SVGID_46_)}.st24{clip-path:url(#SVGID_48_);fill:#8f3c96}</style><g class="st0"><defs><path id="SVGID_1_" d="M-195.5 391.4h74v85h-74z"/></defs><clipPath id="SVGID_2_"><use xlink:href="#SVGID_1_" overflow="visible"/></clipPath><g class="st1"><defs><path id="SVGID_3_" d="M-159 433.8l.4-.2 36.2-20.8-36.5-21.2-36.6 20.9 36.5 21.3z"/></defs><clipPath id="SVGID_4_"><use xlink:href="#SVGID_3_" overflow="visible"/></clipPath><g class="st2"><defs><path id="SVGID_5_" d="M-195.5 391.4h74v85h-74z"/></defs><clipPath id="SVGID_6_"><use xlink:href="#SVGID_5_" overflow="visible"/></clipPath><path class="st3" d="M-200.5 386.6h83v52.2h-83z"/></g></g><g class="st1"><defs><path id="SVGID_7_" d="M-159 475.9v-42.1l-36.5-21.3v42.2z"/></defs><clipPath id="SVGID_8_"><use xlink:href="#SVGID_7_" overflow="visible"/></clipPath><g class="st4"><defs><path id="SVGID_9_" d="M-195.5 391.4h74v85h-74z"/></defs><clipPath id="SVGID_10_"><use xlink:href="#SVGID_9_" overflow="visible"/></clipPath><path class="st5" d="M-200.5 407.5h46.5v73.4h-46.5z"/></g></g><g class="st1"><defs><path id="SVGID_11_" d="M-159 412.8h36.5v63.1H-159z"/></defs><clipPath id="SVGID_12_"><use xlink:href="#SVGID_11_" overflow="visible"/></clipPath><g class="st6"><defs><path id="SVGID_13_" d="M-195.5 391.4h74v85h-74z"/></defs><clipPath id="SVGID_14_"><use xlink:href="#SVGID_13_" overflow="visible"/></clipPath><g class="st7"><defs><path id="SVGID_15_" d="M-159.5 412.4h38v64h-38z"/></defs><clipPath id="SVGID_16_"><use xlink:href="#SVGID_15_" overflow="visible"/></clipPath><g class="st8"><defs><path id="SVGID_17_" d="M-122.4 412.8l-36.2 20.8-.4.2V476l36.6-21v-42.2z"/></defs><clipPath id="SVGID_18_"><use xlink:href="#SVGID_17_" overflow="visible"/></clipPath><g class="st9"><defs><path id="SVGID_19_" d="M-159.5 412.4h38v64h-38z"/></defs><clipPath id="SVGID_20_"><use xlink:href="#SVGID_19_" overflow="visible"/></clipPath><path class="st10" d="M-164 407.8h46.5v73.1H-164z"/></g></g></g></g></g></g><g class="st0"><defs><path id="SVGID_21_" d="M-232.5 412.4h74v85h-74z"/></defs><clipPath id="SVGID_22_"><use xlink:href="#SVGID_21_" overflow="visible"/></clipPath><g class="st11"><defs><path id="SVGID_23_" d="M-195.5 454.7l.3-.2 36.2-20.7-36.5-21.3-36.5 21 36.5 21.2z"/></defs><clipPath id="SVGID_24_"><use xlink:href="#SVGID_23_" overflow="visible"/></clipPath><g class="st12"><defs><path id="SVGID_25_" d="M-232.5 412.4h74v85h-74z"/></defs><clipPath id="SVGID_26_"><use xlink:href="#SVGID_25_" overflow="visible"/></clipPath><path class="st13" d="M-237 407.5h83v52.2h-83z"/></g></g><g class="st11"><defs><path id="SVGID_27_" d="M-195.5 496.9v-42.2l-36.5-21.2v42.2z"/></defs><clipPath id="SVGID_28_"><use xlink:href="#SVGID_27_" overflow="visible"/></clipPath><g class="st14"><defs><path id="SVGID_29_" d="M-232.5 412.4h74v85h-74z"/></defs><clipPath id="SVGID_30_"><use xlink:href="#SVGID_29_" overflow="visible"/></clipPath><path class="st15" d="M-237 428.5h46.5v73.4H-237z"/></g></g><g class="st11"><defs><path id="SVGID_31_" d="M-159 433.8l-36.2 20.7-.3.2v42.2L-159 476v-.1l.1-42.1h-.1z"/></defs><clipPath id="SVGID_32_"><use xlink:href="#SVGID_31_" overflow="visible"/></clipPath><g class="st16"><defs><path id="SVGID_33_" d="M-232.5 412.4h74v85h-74z"/></defs><clipPath id="SVGID_34_"><use xlink:href="#SVGID_33_" overflow="visible"/></clipPath><path class="st17" d="M-200.5 428.8h46.5v73.1h-46.5z"/></g></g></g><g class="st0"><defs><path id="SVGID_35_" d="M-195.5 344.4h74v86h-74z"/></defs><clipPath id="SVGID_36_"><use xlink:href="#SVGID_35_" overflow="visible"/></clipPath><g class="st18"><defs><path id="SVGID_37_" d="M-159 387.5l.4-.2 36.2-20.8-36.6-21.2-36.5 21 36.5 21.2z"/></defs><clipPath id="SVGID_38_"><use xlink:href="#SVGID_37_" overflow="visible"/></clipPath><g class="st19"><defs><path id="SVGID_39_" d="M-195.5 344.4h74v86h-74z"/></defs><clipPath id="SVGID_40_"><use xlink:href="#SVGID_39_" overflow="visible"/></clipPath><path class="st20" d="M-200.5 340.3h83v52.2h-83z"/></g></g><g class="st18"><defs><path id="SVGID_41_" d="M-159 429.6v-42.1l-36.5-21.2v42.1z"/></defs><clipPath id="SVGID_42_"><use xlink:href="#SVGID_41_" overflow="visible"/></clipPath><g class="st21"><defs><path id="SVGID_43_" d="M-195.5 344.4h74v86h-74z"/></defs><clipPath id="SVGID_44_"><use xlink:href="#SVGID_43_" overflow="visible"/></clipPath><path class="st22" d="M-200.5 361.3h46.5v73.4h-46.5z"/></g></g><g class="st18"><defs><path id="SVGID_45_" d="M-122.4 366.5l-36.2 20.8-.4.2v42.1l.1.1 36.5-21v-42.2z"/></defs><clipPath id="SVGID_46_"><use xlink:href="#SVGID_45_" overflow="visible"/></clipPath><g class="st23"><defs><path id="SVGID_47_" d="M-195.5 344.4h74v86h-74z"/></defs><clipPath id="SVGID_48_"><use xlink:href="#SVGID_47_" overflow="visible"/></clipPath><path class="st24" d="M-164 361.5h46.5v73.1H-164z"/></g></g></g></svg>