<svg xmlns="http://www.w3.org/2000/svg" xmlns:xlink="http://www.w3.org/1999/xlink" width="156.1" height="115.6" viewBox="0 0 156.1 115.6"><style>.st0{opacity:.9;enable-background:new}.st1{clip-path:url(#SVGID_2_)}.st2{clip-path:url(#SVGID_4_)}.st3{clip-path:url(#SVGID_6_);fill:#cc2b64}.st4{clip-path:url(#SVGID_8_)}.st5{clip-path:url(#SVGID_10_);fill:#a31d4c}.st6{clip-path:url(#SVGID_12_)}.st7{clip-path:url(#SVGID_14_);fill:#b62554}.st8{clip-path:url(#SVGID_16_)}.st9{clip-path:url(#SVGID_18_)}.st10{clip-path:url(#SVGID_20_);fill:#cc2b64}.st11{clip-path:url(#SVGID_22_)}.st12{clip-path:url(#SVGID_24_);fill:#a31d4c}.st13{clip-path:url(#SVGID_26_)}.st14{clip-path:url(#SVGID_28_);fill:#b62554}.st15{clip-path:url(#SVGID_30_)}.st16{clip-path:url(#SVGID_32_)}.st17{clip-path:url(#SVGID_34_);fill:#cc2b64}.st18{clip-path:url(#SVGID_36_)}.st19{clip-path:url(#SVGID_38_);fill:#a31d4c}.st20{clip-path:url(#SVGID_40_)}.st21{clip-path:url(#SVGID_42_);fill:#b62554}.st22{clip-path:url(#SVGID_44_)}.st23{clip-path:url(#SVGID_46_)}.st24{clip-path:url(#SVGID_48_);fill:#cc2b64}.st25{clip-path:url(#SVGID_50_)}.st26{clip-path:url(#SVGID_52_);fill:#a31d4c}.st27{clip-path:url(#SVGID_54_)}.st28{clip-path:url(#SVGID_56_);fill:#b62554}.st29{clip-path:url(#SVGID_58_)}.st30{clip-path:url(#SVGID_60_)}.st31{clip-path:url(#SVGID_62_);fill:#cc2b64}.st32{clip-path:url(#SVGID_64_)}.st33{clip-path:url(#SVGID_66_);fill:#a31d4c}.st34{clip-path:url(#SVGID_68_)}.st35{clip-path:url(#SVGID_70_);fill:#b62554}.st36{clip-path:url(#SVGID_72_)}.st37{clip-path:url(#SVGID_74_)}.st38{clip-path:url(#SVGID_76_);fill:#cc2b64}.st39{clip-path:url(#SVGID_78_)}.st40{clip-path:url(#SVGID_80_);fill:#a31d4c}.st41{clip-path:url(#SVGID_82_)}.st42{clip-path:url(#SVGID_84_);fill:#b62554}</style><g class="st0"><defs><path id="SVGID_1_" d="M41 4.4h74v85H41z"/></defs><clipPath id="SVGID_2_"><use xlink:href="#SVGID_1_" overflow="visible"/></clipPath><g class="st1"><defs><path id="SVGID_3_" d="M78 47.2l.3-.2 36.2-20.8L78 5 41.5 26 78 47.2z"/></defs><clipPath id="SVGID_4_"><use xlink:href="#SVGID_3_" overflow="visible"/></clipPath><g class="st2"><defs><path id="SVGID_5_" d="M41 4.4h74v85H41z"/></defs><clipPath id="SVGID_6_"><use xlink:href="#SVGID_5_" overflow="visible"/></clipPath><path class="st3" d="M36.5 0h83v52.2h-83z"/></g></g><g class="st1"><defs><path id="SVGID_7_" d="M78 89.4V47.2L41.5 26v42.1z"/></defs><clipPath id="SVGID_8_"><use xlink:href="#SVGID_7_" overflow="visible"/></clipPath><g class="st4"><defs><path id="SVGID_9_" d="M41 4.4h74v85H41z"/></defs><clipPath id="SVGID_10_"><use xlink:href="#SVGID_9_" overflow="visible"/></clipPath><path class="st5" d="M36.5 21H83v73.4H36.5z"/></g></g><g class="st1"><defs><path id="SVGID_11_" d="M114.5 26.2L78.3 47l-.3.2v42.2l36.5-21V26.2z"/></defs><clipPath id="SVGID_12_"><use xlink:href="#SVGID_11_" overflow="visible"/></clipPath><g class="st6"><defs><path id="SVGID_13_" d="M41 4.4h74v85H41z"/></defs><clipPath id="SVGID_14_"><use xlink:href="#SVGID_13_" overflow="visible"/></clipPath><path class="st7" d="M73 21.2h46.5v73.1H73z"/></g></g></g><g class="st0"><defs><path id="SVGID_15_" d="M78 25.4h74v86H78z"/></defs><clipPath id="SVGID_16_"><use xlink:href="#SVGID_15_" overflow="visible"/></clipPath><g class="st8"><defs><path id="SVGID_17_" d="M114.5 68.4l.4-.2 36.2-20.8-36.6-21.2-36.5 21 36.5 21.2z"/></defs><clipPath id="SVGID_18_"><use xlink:href="#SVGID_17_" overflow="visible"/></clipPath><g class="st9"><defs><path id="SVGID_19_" d="M78 25.4h74v86H78z"/></defs><clipPath id="SVGID_20_"><use xlink:href="#SVGID_19_" overflow="visible"/></clipPath><path class="st10" d="M73 21.2h83v52.2H73z"/></g></g><g class="st8"><defs><path id="SVGID_21_" d="M114.5 110.6V68.4L78 47.2v42.2z"/></defs><clipPath id="SVGID_22_"><use xlink:href="#SVGID_21_" overflow="visible"/></clipPath><g class="st11"><defs><path id="SVGID_23_" d="M78 25.4h74v86H78z"/></defs><clipPath id="SVGID_24_"><use xlink:href="#SVGID_23_" overflow="visible"/></clipPath><path class="st12" d="M73 42.2h46.5v73.4H73z"/></g></g><g class="st8"><defs><path id="SVGID_25_" d="M151.1 47.4l-36.2 20.8-.4.2v42.2h.1l36.5-21V47.4z"/></defs><clipPath id="SVGID_26_"><use xlink:href="#SVGID_25_" overflow="visible"/></clipPath><g class="st13"><defs><path id="SVGID_27_" d="M78 25.4h74v86H78z"/></defs><clipPath id="SVGID_28_"><use xlink:href="#SVGID_27_" overflow="visible"/></clipPath><path class="st14" d="M109.5 42.4H156v73.1h-46.5z"/></g></g></g><g class="st0"><defs><path id="SVGID_29_" d="M5 25.4h74v85H5z"/></defs><clipPath id="SVGID_30_"><use xlink:href="#SVGID_29_" overflow="visible"/></clipPath><g class="st15"><defs><path id="SVGID_31_" d="M41.5 68.1l.3-.1L78 47.2 41.5 26 5 46.9l36.5 21.2z"/></defs><clipPath id="SVGID_32_"><use xlink:href="#SVGID_31_" overflow="visible"/></clipPath><g class="st16"><defs><path id="SVGID_33_" d="M5 25.4h74v85H5z"/></defs><clipPath id="SVGID_34_"><use xlink:href="#SVGID_33_" overflow="visible"/></clipPath><path class="st17" d="M0 21h83v52.2H0z"/></g></g><g class="st15"><defs><path id="SVGID_35_" d="M41.5 110.3V68.1L5 46.9v42.2z"/></defs><clipPath id="SVGID_36_"><use xlink:href="#SVGID_35_" overflow="visible"/></clipPath><g class="st18"><defs><path id="SVGID_37_" d="M5 25.4h74v85H5z"/></defs><clipPath id="SVGID_38_"><use xlink:href="#SVGID_37_" overflow="visible"/></clipPath><path class="st19" d="M0 41.9h46.5v73.4H0z"/></g></g><g class="st15"><defs><path id="SVGID_39_" d="M78 47.2L41.8 68l-.3.1v42.2L78 89.4V47.2z"/></defs><clipPath id="SVGID_40_"><use xlink:href="#SVGID_39_" overflow="visible"/></clipPath><g class="st20"><defs><path id="SVGID_41_" d="M5 25.4h74v85H5z"/></defs><clipPath id="SVGID_42_"><use xlink:href="#SVGID_41_" overflow="visible"/></clipPath><path class="st21" d="M36.5 42.2H83v73.1H36.5z"/></g></g></g></svg>