<svg version="1.1" id="Layer_1" xmlns="http://www.w3.org/2000/svg" x="0" y="0" viewBox="0 0 1199.2 512" xml:space="preserve"><style>.st6{fill:#212121}</style><path d="M232.8 512l219.6-126.8V131.7L232.8 258.4V512z" fill="#35777a"/><path d="M232.8 512V258.4L13.2 131.7v253.6L232.8 512z" fill="#43979b"/><path d="M13.2 131.7l219.6 126.8 219.6-126.8L232.7 4.9 13.2 131.7z" fill="#3f898d"/><g><path d="M210.1 35.5L50.9 127.4c.3 2.8.3 5.7 0 8.5l159.2 91.9c13.4-9.9 31.7-9.9 45.2 0l159.2-91.9c-.3-2.8-.3-5.7 0-8.5L255.3 35.5c-13.4 9.9-31.8 9.9-45.2 0z" fill="#51b8bc"/><path d="M429.8 161.3l-159.4 92.9c1.9 16.6-7.3 32.4-22.6 39.1l.2 182.8c2.6 1.1 5.1 2.6 7.4 4.3l159.2-91.9c-1.9-16.6 7.3-32.4 22.6-39.1V165.5c-2.7-1.1-5.1-2.5-7.4-4.2z" fill="#459da2"/><path d="M35.8 162.3c-2.3 1.7-4.8 3.1-7.4 4.3v183.8c15.3 6.7 24.4 22.5 22.6 39.1l159.2 91.9c2.3-1.7 4.8-3.1 7.4-4.3V293.3c-15.3-6.7-24.4-22.5-22.6-39.1L35.8 162.3z" fill="#64c1c8"/></g><g><path class="st6" d="M583.5 132.3h-29.9v253.6h29.9V132.3zM714 253.9c-11.5 0-44.1-.3-44.1-.3v-94.5h52.5c31.3 0 53.8 12.2 53.8 42 0 25.4-4.5 52.8-62.2 52.8zm-44.1 132V277.6c12.9 1 30.9 2.4 41.3 2.4 75 0 95.5-32.3 95.5-79.5 0-49-36.8-68.1-85.1-68.1h-82V386h30.3zM973.4 243.9H868.9v-85.5h108l2.4-26.1H839v253.6h29.9V268.2h104.6l-.1-24.3zM1015.3 344.6c22.6 11.1 51.8 19.5 84.1 19.5 36.1 0 55.2-16 55.2-50.4 0-20.5-8.3-34.4-40.6-42.4l-50-12.5c-35.1-8.7-57-27.4-57-61.1 0-49.3 36.8-70.5 92.4-70.5 30.9 0 58.7 7.6 76.1 18.4l-8.7 23.6c-13.5-7.3-40.3-16-67.7-16-40.3 0-61.5 13.5-61.5 42.7 0 19.8 13.2 30.6 37.5 36.5l47.6 11.5c37.9 9 62.2 27.4 62.2 68.8 0 52.8-35.4 77.1-87.2 77.1-44.1 0-75.7-11.5-91-20.8l8.6-24.4z"/></g></svg>
