<svg xmlns="http://www.w3.org/2000/svg" xmlns:xlink="http://www.w3.org/1999/xlink" viewBox="0 0 1056.84 325.48"><defs><style>.cls-1{fill:url(#Gradient_bez_nazwy_3);}.cls-2{fill:url(#Gradient_bez_nazwy_3-2);}.cls-3{fill:url(#Gradient_bez_nazwy_3-3);}.cls-4{fill:url(#Gradient_bez_nazwy_3-4);}.cls-5{fill:url(#Gradient_bez_nazwy_3-5);}.cls-6{fill:url(#Gradient_bez_nazwy_3-6);}.cls-7{fill:url(#Gradient_bez_nazwy_3-7);}.cls-8{fill:#fff;}</style><linearGradient id="Gradient_bez_nazwy_3" x1="65.14" y1="162.74" x2="249.78" y2="162.74" gradientUnits="userSpaceOnUse"><stop offset="0" stop-color="#22f2ad"/><stop offset="1" stop-color="#ab21f4"/></linearGradient><linearGradient id="Gradient_bez_nazwy_3-2" x1="55.75" y1="537.65" x2="253.46" y2="537.65" gradientTransform="translate(-43.42 -359.39) rotate(-5)" xlink:href="#Gradient_bez_nazwy_3"/><linearGradient id="Gradient_bez_nazwy_3-3" x1="16.61" y1="914.65" x2="227.4" y2="914.65" gradientTransform="matrix(0.98, -0.17, 0.17, 0.98, -121.51, -716.83)" xlink:href="#Gradient_bez_nazwy_3"/><linearGradient id="Gradient_bez_nazwy_3-4" x1="-51.45" y1="1285.36" x2="172.41" y2="1285.36" gradientTransform="translate(-233.64 -1063.17) rotate(-15)" xlink:href="#Gradient_bez_nazwy_3"/><linearGradient id="Gradient_bez_nazwy_3-5" x1="-149.51" y1="1645.94" x2="87.42" y2="1645.94" gradientTransform="translate(-376.31 -1394.56) rotate(-20)" xlink:href="#Gradient_bez_nazwy_3"/><linearGradient id="Gradient_bez_nazwy_3-6" x1="-286.91" y1="1997.24" x2="-36.91" y2="1997.24" gradientTransform="matrix(0.91, -0.42, 0.42, 0.91, -539.87, -1715.81)" xlink:href="#Gradient_bez_nazwy_3"/><linearGradient id="Gradient_bez_nazwy_3-7" x1="-455.62" y1="2343.18" x2="-190.89" y2="2343.18" gradientTransform="matrix(0.87, -0.5, 0.5, 0.87, -734.18, -2028.15)" xlink:href="#Gradient_bez_nazwy_3"/></defs><title>ProtoSchoolColor horizontal white logotype</title><g id="Warstwa_2" data-name="Warstwa 2"><path class="cls-1" d="M203.62,242.69H111.3L65.14,162.74l46.16-80h92.32l46.16,80Zm-91.49-1.44h90.66l45.33-78.51L202.79,84.22H112.13L66.8,162.74Z"/><path class="cls-2" d="M115.69,252.33l-.24-.34L59,171.35l.18-.37,41.6-89.22,98.48-8.62.24.34,56.46,80.64-.17.38-41.61,89.22Zm-55-81.12,55.75,79.62,96.82-8.47,41.08-88.09L198.54,74.65l-96.83,8.47Z"/><path class="cls-3" d="M121.41,261.78l-.26-.32L53.67,181l.15-.39L89.72,82l.41-.07L193.51,63.7l.26.32,67.49,80.42-.15.39-35.9,98.64-.41.08Zm-66.1-81L122,260.21l102.15-18,35.48-97.48L192.94,65.26l-102.16,18Z"/><path class="cls-4" d="M128.49,270.85l-.3-.29L49.35,191.71l29-108.12.41-.1L186.43,54.62l.3.3,78.85,78.85-.11.4L236.61,241.88l-.41.11ZM51,191.27l78,78,106.51-28.53L264,134.2l-78-78L79.5,84.77Z"/><path class="cls-5" d="M136.89,279.4l-.32-.27L46.14,203.25l.08-.4L66.71,86.59l.39-.14L178,46.08l.32.26,90.43,75.88-.07.41-20.5,116.25-.39.15ZM47.71,202.69l89.47,75.07,109.76-39.95,20.28-115L177.74,47.71,68,87.66Z"/><path class="cls-6" d="M146.57,287.26l-102.4-71.7,0-.41L55.07,91l.38-.18L168.36,38.22l102.39,71.69,0,.42-10.86,124.1-.38.18ZM45.68,214.86l101,70.74,111.78-52.12,10.75-122.86-101-70.75L56.43,92Z"/><path class="cls-7" d="M157.46,295.1,42.83,228.92V96.55l.72-.41L157.46,30.37,272.09,96.55V228.92l-.72.42ZM45.71,227.26l111.75,64.52,111.75-64.52v-129L157.46,33.7,45.71,98.22Z"/><path class="cls-8" d="M383.64,128.82q9,7.58,9,20.83t-9,20.78q-9,7.51-24.86,7.52H336.53v26.16h-8.76V121.24h31Q374.65,121.24,383.64,128.82Zm-6.27,36q6.51-5.38,6.51-15.21,0-10.05-6.51-15.45t-18.82-5.38h-22v41.43h22Q370.85,170.25,377.37,164.86Z"/><path class="cls-8" d="M425.14,144.56q5.85-3.19,14.5-3.19v8.16l-2-.11q-9.84,0-15.4,6t-5.56,16.92v31.73h-8.41V141.84h8.06V154A20.39,20.39,0,0,1,425.14,144.56Z"/><path class="cls-8" d="M463.43,200.62a29.81,29.81,0,0,1-11.36-11.31,34.22,34.22,0,0,1,0-32.67,29.38,29.38,0,0,1,11.36-11.25,34.73,34.73,0,0,1,32.44,0,29,29,0,0,1,11.3,11.25,34.74,34.74,0,0,1,0,32.67,29.45,29.45,0,0,1-11.3,11.31,34.28,34.28,0,0,1-32.44,0Zm28.12-6.4a21,21,0,0,0,8.22-8.58,28.57,28.57,0,0,0,0-25.33,21,21,0,0,0-8.22-8.58,25,25,0,0,0-23.8,0,21.48,21.48,0,0,0-8.29,8.58,28.07,28.07,0,0,0,0,25.33,21.48,21.48,0,0,0,8.29,8.58,25,25,0,0,0,23.8,0Z"/><path class="cls-8" d="M561.21,200.32a16.08,16.08,0,0,1-5.86,3.26,23.88,23.88,0,0,1-7.28,1.12q-8.76,0-13.49-4.73t-4.74-13.38V148.94H518.72v-7.1h11.12V128.23h8.41v13.61h18.94v7.1H538.25v37.18c0,3.7.92,6.53,2.78,8.46s4.52,2.9,8,2.9a15.51,15.51,0,0,0,5-.83,12.34,12.34,0,0,0,4.2-2.37Z"/><path class="cls-8" d="M583.47,200.62a29.83,29.83,0,0,1-11.37-11.31,34.3,34.3,0,0,1,0-32.67,29.4,29.4,0,0,1,11.37-11.25,34.71,34.71,0,0,1,32.43,0,29,29,0,0,1,11.31,11.25,34.74,34.74,0,0,1,0,32.67,29.41,29.41,0,0,1-11.31,11.31,34.26,34.26,0,0,1-32.43,0Zm28.11-6.4a21,21,0,0,0,8.23-8.58,28.57,28.57,0,0,0,0-25.33,21,21,0,0,0-8.23-8.58,24.94,24.94,0,0,0-23.79,0,21.42,21.42,0,0,0-8.29,8.58,28.07,28.07,0,0,0,0,25.33,21.42,21.42,0,0,0,8.29,8.58,24.94,24.94,0,0,0,23.79,0Z"/><path class="cls-8" d="M655.74,201.38q-8.12-3.19-12.49-8.28l2.13-2.84A30.05,30.05,0,0,0,656.92,198a41.31,41.31,0,0,0,15.8,3q12.43,0,18.77-4.91a15.28,15.28,0,0,0,6.33-12.61,13.53,13.53,0,0,0-3.31-9.53,21.06,21.06,0,0,0-8.17-5.45,115.65,115.65,0,0,0-13.26-3.84,122.65,122.65,0,0,1-14.44-4.38,23.14,23.14,0,0,1-9.23-6.51q-3.79-4.38-3.79-11.72a19.53,19.53,0,0,1,3.07-10.66,21.21,21.21,0,0,1,9.42-7.75q6.33-2.9,15.8-2.9a45.29,45.29,0,0,1,13.32,2,34.91,34.91,0,0,1,11.19,5.57l-1.78,3.19a36.12,36.12,0,0,0-10.83-5.38A39.8,39.8,0,0,0,674,124.32q-12.07,0-18.29,5a15.71,15.71,0,0,0-6.21,12.73q0,6,3.37,9.65a22,22,0,0,0,8.29,5.5,112.54,112.54,0,0,0,13.19,3.91,132.81,132.81,0,0,1,14.45,4.32,22.41,22.41,0,0,1,9.17,6.39q3.74,4.32,3.73,11.54a19.34,19.34,0,0,1-3.13,10.66,21.19,21.19,0,0,1-9.66,7.69q-6.51,2.85-16.09,2.84A46,46,0,0,1,655.74,201.38Z"/><path class="cls-8" d="M729.25,200.5a28.57,28.57,0,0,1-10.9-11.07,34.71,34.71,0,0,1,0-32.2,28.57,28.57,0,0,1,10.9-11.07,31,31,0,0,1,15.69-4,31.44,31.44,0,0,1,13,2.66,24,24,0,0,1,9.76,7.87l-3,2.49a21.13,21.13,0,0,0-8.46-7,28.41,28.41,0,0,0-25,1.13,24.79,24.79,0,0,0-9.53,9.71,29,29,0,0,0-3.43,14.26,29.3,29.3,0,0,0,3.43,14.32,24.68,24.68,0,0,0,9.53,9.77,28.36,28.36,0,0,0,25,1.12,21,21,0,0,0,8.46-7l3,2.37a23.88,23.88,0,0,1-9.76,7.87,31.44,31.44,0,0,1-13,2.66A31,31,0,0,1,729.25,200.5Z"/><path class="cls-8" d="M832.42,148.88q6.63,6.69,6.62,19.12v36.11h-3.9V168.24q0-10.89-5.51-16.63T814,145.87q-11.48,0-18.11,6.8T789.21,171v33.15H785.3V116.27h3.91v41.08a23.88,23.88,0,0,1,9.59-11.13,28.92,28.92,0,0,1,15.5-4Q825.79,142.2,832.42,148.88Z"/><path class="cls-8" d="M872.49,200.5a28.06,28.06,0,0,1-10.83-11.07,35.1,35.1,0,0,1,0-32.2,28.06,28.06,0,0,1,10.83-11.07,32.22,32.22,0,0,1,31,0,28.27,28.27,0,0,1,10.78,11.07,35.18,35.18,0,0,1,0,32.2,28.27,28.27,0,0,1-10.78,11.07,32.22,32.22,0,0,1-31,0Zm28.88-3.08a24.86,24.86,0,0,0,9.41-9.77,29.31,29.31,0,0,0,3.44-14.32,29,29,0,0,0-3.44-14.26,25,25,0,0,0-9.41-9.71,27.6,27.6,0,0,0-26.87,0,25,25,0,0,0-9.41,9.71,29,29,0,0,0-3.43,14.26,29.3,29.3,0,0,0,3.43,14.32,24.93,24.93,0,0,0,9.41,9.77,27.6,27.6,0,0,0,26.87,0Z"/><path class="cls-8" d="M945.18,200.5a28.08,28.08,0,0,1-10.84-11.07,35.18,35.18,0,0,1,0-32.2,28.08,28.08,0,0,1,10.84-11.07,32.22,32.22,0,0,1,31,0,28.32,28.32,0,0,1,10.77,11.07,35.1,35.1,0,0,1,0,32.2,28.32,28.32,0,0,1-10.77,11.07,32.22,32.22,0,0,1-31,0Zm28.88-3.08a24.93,24.93,0,0,0,9.41-9.77,29.3,29.3,0,0,0,3.43-14.32,29,29,0,0,0-3.43-14.26,25,25,0,0,0-9.41-9.71,27.62,27.62,0,0,0-26.88,0,25,25,0,0,0-9.41,9.71,29,29,0,0,0-3.43,14.26,29.3,29.3,0,0,0,3.43,14.32,24.93,24.93,0,0,0,9.41,9.77,27.62,27.62,0,0,0,26.88,0Z"/><path class="cls-8" d="M1010.1,116.27H1014v87.84h-3.91Z"/></g></svg>