<svg xmlns="http://www.w3.org/2000/svg" viewBox="0 0 71 81"><g fill-rule="nonzero" fill="none"><path d="M70.638 58.696V21.994c0-1.25-.667-2.405-1.75-3.03L37.103.613a3.499 3.499 0 00-3.498 0L1.82 18.963a3.498 3.498 0 00-1.75 3.03v36.703c0 1.25.667 2.405 1.75 3.03l31.785 18.35a3.499 3.499 0 003.498 0l31.785-18.35a3.498 3.498 0 001.75-3.03z" fill="#1D74F2"/><g transform="translate(3.754 4.692)" fill="#FFF"><path d="M31.6 70.24L1.23 52.455V19.034L31.6 1.066l.043.024L61.97 18.317v34.139l-.043.025L31.6 70.239v.001zM1.402 52.356L31.6 70.039l30.198-17.682v-33.94L31.6 1.266 1.402 19.132v33.225-.001z"/><path d="M30.909 10.953h1.382v59.186h-1.382z"/><circle cx="31.6" cy="11.068" r="2.175"/><path d="M30.939 27.127l-6.642-4.196v-8.048h1.382v7.287l5.998 3.789z"/><g transform="translate(31.346 32.284)"><path d="M.784 22.438L.046 21.27l22.73-14.36V3.77h1.383v3.903z"/><circle cx="23.468" cy="2.308" r="2.175"/></g><path d="M42.357 31.103h1.382v16.121h-1.382V31.103zM31.086 43.632L14.26 34.383V27.01h1.382v6.58l16.139 8.848-.695 1.194z"/><circle cx="14.951" cy="26.396" r="2.175"/><circle cx="24.988" cy="16.52" r="2.175"/><g transform="translate(31.158 22.149)"><path d="M14.308 3.784v3.143L.124 15.887c.011.533.03 1.068.049 1.603L15.69 7.688V3.785h-1.382v-.001z"/><circle cx="14.999" cy="2.323" r="2.175"/></g><path d="M32.08 31.103l6.641-4.195v-8.049H37.34v7.287l-5.998 3.789z"/><circle cx="38.03" cy="18.859" r="2.175"/><circle cx="24.657" cy="30.397" r="2.175"/><path d="M23.966 30.917h1.382v8.687h-1.382z"/><g transform="translate(6.194 34.537)"><path d="M25.031 20.367l.739-1.168L3.038 6.804V3.662H1.656v3.904z"/><circle cx="2.347" cy="2.201" r="2.175"/></g><path d="M16.78 35.652h1.238v11.171H16.78z"/><circle cx="31.6" cy="69.912" r="1.213"/><g transform="translate(0 18.02)"><circle cx="1.23" cy="34.437" r="1.213"/><circle cx="1.23" cy="1.351" r="1.213"/></g><g transform="translate(60.627 18.02)"><circle cx="1.343" cy="34.359" r="1.213"/><circle cx="1.343" cy="1.273" r="1.213"/></g><circle cx="31.599" cy="1.393" r="1.213"/></g></g></svg>
