<svg fill="none" xmlns="http://www.w3.org/2000/svg" viewBox="0 0 112 129"><path d="M111.498 75.118l-18.43 10.563-.158.078v21.413l18.588-10.64V75.118z" fill="#A33768"/><path d="M92.91 85.76L74.48 96.321l-.157.079v21.413l18.587-10.642V85.759z" fill="#3DA1BD"/><path d="M18.587 106.911V85.498L0 74.752V96.14l18.587 10.771zM37.175 117.683V96.27L18.588 85.498v21.413l18.587 10.772z" fill="#81D2E0"/><path d="M55.762 128.455v-21.413L37.175 96.27v21.414l18.587 10.771z" fill="#36A4CB"/><path d="M74.324 96.4L55.92 106.963l-.157.079v21.413l18.56-10.641V96.4z" fill="#3DA1BD"/><path d="M111.499 53.757l-18.592 10.62-.022 21.408h.026l18.561-10.614.027-21.414z" fill="#994FA0"/><path d="M92.91 64.373L74.48 74.935l-.157.079v21.413l18.587-10.64V64.372v.026-.026z" fill="#994FA0"/><path d="M18.587 85.498V64.111L0 53.313v21.413l18.587 10.772z" fill="#FFC41A"/><path d="M37.15 96.27l.025-21.387-18.587-10.798v21.413L37.149 96.27z" fill="#F39B35"/><path d="M55.736 107.068V85.655L37.175 74.883l-.027 21.386.027.027 18.56 10.772z" fill="#38727B"/><path d="M74.324 75.014L55.894 85.55l-.158.105v21.413l18.588-10.641V75.014z" fill="#1C6B7D"/><path d="M55.736 21.442l.218-.122 18.37-10.52L55.735.028 37.175 10.67l18.561 10.773z" fill="#C4CD46"/><path d="M74.324 32.214l.157-.105 18.43-10.537L74.324 10.8 55.736 21.442l18.588 10.772z" fill="#F064A4"/><path d="M92.91 42.986l.158-.105 18.404-10.537L92.91 21.572 74.323 32.214 92.91 42.986z" fill="#AA6AAB"/><path d="M111.498 32.344l-18.43 10.537-.158.105v21.387l18.588-10.616V32.344z" fill="#994FA0"/><path d="M37.175 32.083l.184-.105L55.736 21.44 37.176 10.67 18.587 21.311l18.587 10.772z" fill="#CDDD40"/><path d="M55.736 42.855l18.587-10.642-18.587-10.772-18.561 10.642 18.561 10.772z" fill="#CDDD40"/><path d="M74.323 53.626l18.588-10.64-18.588-10.851h-.104.105L55.683 42.88l18.64 10.745z" fill="#8F499E"/><path d="M92.91 42.96L74.482 53.521l-.157.105-.004 21.398L92.934 64.36l-.023-21.4z" fill="#5F356B"/><path d="M18.587 42.724l.158-.104 18.43-10.537-18.588-10.772L0 31.952l18.587 10.772z" fill="#FFD75A"/><path d="M18.587 64.111V42.724L0 31.952v21.413l18.587 10.746z" fill="#FFC41A"/><path d="M37.2 53.526l18.562-10.668-18.586-10.775L18.57 42.72 37.2 53.526z" fill="#F8B730"/><path d="M37.175 74.883V53.496L18.588 42.724v21.413l18.587 10.746z" fill="#F39B35"/><path d="M55.762 64.242l.158-.079 18.409-10.536-18.567-10.773-18.587 10.642L55.762 64.24z" fill="#F8B730"/><path d="M55.733 85.654l.03-21.412L37.174 53.47v21.413l18.558 10.771z" fill="#F39B35"/><path d="M74.323 53.627L55.919 64.162l-.157.079v.026l-.032 21.4 18.593-10.655V53.626z" fill="#FAAA36"/></svg>
