<svg id="Layer_1" data-name="Layer 1" xmlns="http://www.w3.org/2000/svg" viewBox="0 0 91.09 87.92"><defs><style>.cls-1{fill:#f59121;}.cls-2,.cls-3{fill:#fff;}.cls-3{opacity:0.33;}</style></defs><title>Artboard 1</title><circle class="cls-1" cx="45.54" cy="43.96" r="38.08"/><path class="cls-2" d="M45.07,68.66a24.7,24.7,0,0,1,0-49.4,5.7,5.7,0,1,1,0,11.4,13.3,13.3,0,0,0,0,26.6,5.7,5.7,0,1,1,0,11.4Z"/><path class="cls-3" d="M46,68.66a5.7,5.7,0,0,1,0-11.4,13.3,13.3,0,0,0,0-26.6,5.7,5.7,0,0,1,0-11.4,24.7,24.7,0,0,1,0,49.4Z"/></svg>
