<svg xmlns="http://www.w3.org/2000/svg" xmlns:xlink="http://www.w3.org/1999/xlink" viewBox="0 0 568.13 636.66"><defs><style>.cls-1{fill:url(#Gradient_bez_nazwy_3);}.cls-2{fill:url(#Gradient_bez_nazwy_3-2);}.cls-3{fill:url(#Gradient_bez_nazwy_3-3);}.cls-4{fill:url(#Gradient_bez_nazwy_3-4);}.cls-5{fill:url(#Gradient_bez_nazwy_3-5);}.cls-6{fill:url(#Gradient_bez_nazwy_3-6);}.cls-7{fill:url(#Gradient_bez_nazwy_3-7);}.cls-8{fill:#fff;}</style><linearGradient id="Gradient_bez_nazwy_3" x1="136.49" y1="253.78" x2="431.4" y2="253.78" gradientUnits="userSpaceOnUse"><stop offset="0" stop-color="#22f2ad"/><stop offset="1" stop-color="#ab21f4"/></linearGradient><linearGradient id="Gradient_bez_nazwy_3-2" x1="87.32" y1="519.75" x2="403.1" y2="519.75" gradientTransform="translate(-5.63 -242.62) rotate(-5)" xlink:href="#Gradient_bez_nazwy_3"/><linearGradient id="Gradient_bez_nazwy_3-3" x1="18.02" y1="785.1" x2="354.69" y2="785.1" gradientTransform="matrix(0.98, -0.17, 0.17, 0.98, -35.91, -487.03)" xlink:href="#Gradient_bez_nazwy_3"/><linearGradient id="Gradient_bez_nazwy_3-4" x1="-70.36" y1="1042.3" x2="287.19" y2="1042.3" gradientTransform="translate(-90.54 -724.94) rotate(-15)" xlink:href="#Gradient_bez_nazwy_3"/><linearGradient id="Gradient_bez_nazwy_3-5" x1="-178.78" y1="1288.36" x2="199.63" y2="1288.36" gradientTransform="translate(-166.5 -953.32) rotate(-20)" xlink:href="#Gradient_bez_nazwy_3"/><linearGradient id="Gradient_bez_nazwy_3-6" x1="-316.54" y1="1525.02" x2="82.75" y2="1525.02" gradientTransform="matrix(0.91, -0.42, 0.42, 0.91, -254.61, -1177.76)" xlink:href="#Gradient_bez_nazwy_3"/><linearGradient id="Gradient_bez_nazwy_3-7" x1="-476.14" y1="1757.06" x2="-53.32" y2="1757.06" gradientTransform="matrix(0.87, -0.5, 0.5, 0.87, -365.33, -1400.24)" xlink:href="#Gradient_bez_nazwy_3"/></defs><title>ProtoSchoolColor vertical white logotype</title><g id="Warstwa_2" data-name="Warstwa 2"><path class="cls-1" d="M357.67,381.48H210.22l-73.73-127.7,73.73-127.7H357.67l73.73,127.7Zm-146.12-2.3H356.34l72.4-125.4-72.4-125.4H211.55l-72.4,125.4Z"/><path class="cls-2" d="M217.22,396.88l-.38-.54-90.19-128.8.28-.6,66.45-142.5,157.29-13.76.38.55L441.24,240l-.28.6-66.44,142.5ZM129.3,267.31l89,127.16L373,380.94,438.6,240.25,349.55,113.09,194.9,126.62Z"/><path class="cls-3" d="M226.37,412l-.42-.51L118.17,283l.23-.63,57.35-157.55.65-.11L341.52,95.6l.42.51L449.72,224.55l-.23.63L392.14,382.73l-.65.12ZM120.79,282.55l106.5,126.91L390.43,380.7,447.1,225,340.6,98.1,177.46,126.87Z"/><path class="cls-4" d="M237.68,426.46l-.48-.47L111.26,300.05l.17-.64,46.1-172,.65-.17,172-46.1.48.47L456.63,207.51l-.17.64-46.1,172-.65.17ZM113.83,299.36,238.36,423.89l170.11-45.58L454.06,208.2,329.53,83.67,159.42,129.25Z"/><path class="cls-5" d="M251.08,440.11l-.5-.42L106.15,318.49l.12-.65L139,132.16l.62-.23L316.8,67.45l.5.43L461.74,189.07l-.12.65L428.88,375.4l-.62.23ZM108.65,317.58,251.55,437.5l175.3-63.81L459.24,190,316.33,70.07,141,133.87Z"/><path class="cls-6" d="M266.54,452.66,103,338.15l.06-.66,17.35-198.22.6-.28L301.35,54.9,464.89,169.4l-.06.67L447.49,368.29l-.61.28ZM105.41,337,266.78,450l178.53-83.26,17.17-196.23-161.37-113L122.58,140.79Z"/><path class="cls-7" d="M284,465.19l-183.1-105.7V148.07l1.16-.66L284,42.37,467,148.07V359.49l-1.15.66ZM105.46,356.83,284,459.88l178.47-103V150.74L284,47.68,105.46,150.74Z"/><path class="cls-8" d="M81.51,540.78q6.34,5.34,6.34,14.7t-6.34,14.64q-6.35,5.31-17.53,5.31H48.29v18.44H42.11V535.44H64Q75.16,535.44,81.51,540.78ZM77.09,566.2q4.59-3.8,4.59-10.72,0-7.1-4.59-10.9t-13.28-3.8H48.29V570H63.81Q72.49,570,77.09,566.2Z"/><path class="cls-8" d="M110.77,551.88A21.16,21.16,0,0,1,121,549.63v5.76l-1.41-.08q-6.93,0-10.85,4.25T104.8,571.5v22.37H98.87V550h5.68v8.59A14.42,14.42,0,0,1,110.77,551.88Z"/><path class="cls-8" d="M137.77,591.41a21,21,0,0,1-8-8,24.18,24.18,0,0,1,0-23,20.69,20.69,0,0,1,8-7.93,24.46,24.46,0,0,1,22.88,0,20.46,20.46,0,0,1,8,7.93,24.48,24.48,0,0,1,0,23,20.76,20.76,0,0,1-8,8,24.16,24.16,0,0,1-22.88,0Zm19.83-4.51a14.78,14.78,0,0,0,5.8-6,20.12,20.12,0,0,0,0-17.86,14.78,14.78,0,0,0-5.8-6,17.59,17.59,0,0,0-16.78,0,15,15,0,0,0-5.84,6,19.78,19.78,0,0,0,0,17.86,15,15,0,0,0,5.84,6,17.59,17.59,0,0,0,16.78,0Z"/><path class="cls-8" d="M206.72,591.2a11.11,11.11,0,0,1-4.13,2.3,16.57,16.57,0,0,1-5.13.79q-6.18,0-9.52-3.34t-3.34-9.43V555h-7.84v-5h7.84v-9.61h5.93V550h13.36v5H190.53v26.22a8.27,8.27,0,0,0,2,6,7.43,7.43,0,0,0,5.63,2.05,11,11,0,0,0,3.56-.58,9,9,0,0,0,3-1.67Z"/><path class="cls-8" d="M222.41,591.41a21.07,21.07,0,0,1-8-8,24.18,24.18,0,0,1,0-23,20.76,20.76,0,0,1,8-7.93,24.46,24.46,0,0,1,22.88,0,20.46,20.46,0,0,1,8,7.93,24.48,24.48,0,0,1,0,23,20.76,20.76,0,0,1-8,8,24.16,24.16,0,0,1-22.88,0Zm19.83-4.51a14.72,14.72,0,0,0,5.8-6A20.12,20.12,0,0,0,248,563a14.72,14.72,0,0,0-5.8-6,17.59,17.59,0,0,0-16.78,0,15.07,15.07,0,0,0-5.84,6,19.78,19.78,0,0,0,0,17.86,15.07,15.07,0,0,0,5.84,6,17.59,17.59,0,0,0,16.78,0Z"/><path class="cls-8" d="M273.39,592a22,22,0,0,1-8.81-5.85l1.5-2a21.21,21.21,0,0,0,8.14,5.46,29,29,0,0,0,11.14,2.13q8.77,0,13.23-3.46a10.76,10.76,0,0,0,4.47-8.89,9.55,9.55,0,0,0-2.34-6.72,14.75,14.75,0,0,0-5.76-3.84,79.94,79.94,0,0,0-9.34-2.71A86.81,86.81,0,0,1,275.43,563a16.32,16.32,0,0,1-6.51-4.59,12.22,12.22,0,0,1-2.68-8.27,13.74,13.74,0,0,1,2.18-7.51,14.92,14.92,0,0,1,6.63-5.47,26.83,26.83,0,0,1,11.15-2,31.78,31.78,0,0,1,9.39,1.42,24.49,24.49,0,0,1,7.89,3.92l-1.26,2.25a25.72,25.72,0,0,0-7.63-3.8,28.29,28.29,0,0,0-8.31-1.29q-8.5,0-12.89,3.55a11,11,0,0,0-4.39,9,9.61,9.61,0,0,0,2.38,6.81,15.66,15.66,0,0,0,5.84,3.88,77.58,77.58,0,0,0,9.31,2.75,91.68,91.68,0,0,1,10.18,3,15.75,15.75,0,0,1,6.48,4.51,12,12,0,0,1,2.62,8.13,13.53,13.53,0,0,1-2.21,7.52,14.9,14.9,0,0,1-6.8,5.43,28.51,28.51,0,0,1-11.35,2A32.58,32.58,0,0,1,273.39,592Z"/><path class="cls-8" d="M325.22,591.33a20.09,20.09,0,0,1-7.68-7.81,24.4,24.4,0,0,1,0-22.7,20.09,20.09,0,0,1,7.68-7.81,21.87,21.87,0,0,1,11.06-2.79,22.24,22.24,0,0,1,9.14,1.87,17,17,0,0,1,6.89,5.55l-2.09,1.76a15,15,0,0,0-6-4.93,20,20,0,0,0-17.61.8,17.4,17.4,0,0,0-6.72,6.84,20.4,20.4,0,0,0-2.42,10.06,20.61,20.61,0,0,0,2.42,10.1,17.34,17.34,0,0,0,6.72,6.89,19,19,0,0,0,9.64,2.46,18.75,18.75,0,0,0,8-1.67,14.81,14.81,0,0,0,6-4.93l2.09,1.68a16.88,16.88,0,0,1-6.89,5.55,22.24,22.24,0,0,1-9.14,1.87A21.87,21.87,0,0,1,325.22,591.33Z"/><path class="cls-8" d="M398,554.93q4.68,4.73,4.68,13.48v25.46h-2.76V568.58q0-7.68-3.88-11.73T385,552.8q-8.1,0-12.77,4.8c-3.12,3.21-4.68,7.5-4.68,12.9v23.37h-2.76V531.93h2.76v29a17,17,0,0,1,6.76-7.85,20.41,20.41,0,0,1,10.94-2.83Q393.3,550.22,398,554.93Z"/><path class="cls-8" d="M426.23,591.33a19.86,19.86,0,0,1-7.64-7.81,24.72,24.72,0,0,1,0-22.7,19.86,19.86,0,0,1,7.64-7.81,22.75,22.75,0,0,1,21.83,0,20,20,0,0,1,7.6,7.81,24.8,24.8,0,0,1,0,22.7,20,20,0,0,1-7.6,7.81,22.75,22.75,0,0,1-21.83,0Zm20.36-2.17a17.54,17.54,0,0,0,6.64-6.89,20.62,20.62,0,0,0,2.43-10.1,20.41,20.41,0,0,0-2.43-10.06,17.61,17.61,0,0,0-6.64-6.84,19.39,19.39,0,0,0-18.94,0,17.68,17.68,0,0,0-6.64,6.84,20.51,20.51,0,0,0-2.42,10.06,20.72,20.72,0,0,0,2.42,10.1,17.61,17.61,0,0,0,6.64,6.89,19.46,19.46,0,0,0,18.94,0Z"/><path class="cls-8" d="M477.48,591.33a19.93,19.93,0,0,1-7.64-7.81,24.8,24.8,0,0,1,0-22.7,19.93,19.93,0,0,1,7.64-7.81,22.75,22.75,0,0,1,21.83,0,20,20,0,0,1,7.6,7.81,24.8,24.8,0,0,1,0,22.7,20,20,0,0,1-7.6,7.81,22.75,22.75,0,0,1-21.83,0Zm20.37-2.17a17.52,17.52,0,0,0,6.63-6.89,20.62,20.62,0,0,0,2.43-10.1,20.41,20.41,0,0,0-2.43-10.06,17.59,17.59,0,0,0-6.63-6.84,19.41,19.41,0,0,0-19,0,17.68,17.68,0,0,0-6.64,6.84,20.51,20.51,0,0,0-2.42,10.06,20.72,20.72,0,0,0,2.42,10.1,17.61,17.61,0,0,0,6.64,6.89,19.48,19.48,0,0,0,19,0Z"/><path class="cls-8" d="M523.27,531.93H526v61.94h-2.76Z"/></g></svg>